<svg width="81" height="80" viewBox="0 0 81 80" fill="none" xmlns="http://www.w3.org/2000/svg">
<path d="M24.7319 65.5225C24.8995 65.6204 25.009 65.7639 25.0603 65.953C25.1104 66.144 25.0859 66.3244 24.9868 66.494C24.8888 66.6616 24.7449 66.7695 24.555 66.8176C24.364 66.8677 24.1846 66.8438 24.017 66.7458C23.8494 66.6479 23.7405 66.5034 23.6904 66.3123C23.6391 66.1233 23.6624 65.945 23.7604 65.7774C23.8261 65.6649 23.915 65.5784 24.0272 65.5179C24.1361 65.4581 24.2527 65.4275 24.3769 65.4261C24.5012 65.4247 24.6195 65.4568 24.7319 65.5225Z" fill="black"/>
<path d="M19.7006 61.8268L20.5215 62.6531L13.5176 65.9223L12.6241 65.0229L15.9388 58.0404L16.7597 58.8667L13.9867 64.5201L14.0267 64.5604L19.7006 61.8268ZM17.5425 63.6955L14.8795 61.0151L15.5345 60.3644L18.1975 63.0448L17.5425 63.6955Z" fill="black"/>
<path d="M16.1612 57.8941L10.1418 61.9758L8.68695 59.8302C8.36939 59.3619 8.19155 58.9162 8.15342 58.4929C8.11529 58.0697 8.19234 57.6814 8.38458 57.3279C8.57486 56.9758 8.85418 56.6748 9.22255 56.425C9.59289 56.1739 9.97847 56.0254 10.3793 55.9796C10.7769 55.9331 11.1668 56.0062 11.5492 56.1989C11.9282 56.3909 12.2759 56.7201 12.5921 57.1865L13.5926 58.6619L12.8225 59.1841L11.8779 57.7909C11.6772 57.495 11.4635 57.2896 11.2367 57.1745C11.008 57.0607 10.7752 57.0212 10.5385 57.0559C10.3017 57.0906 10.0697 57.185 9.84238 57.3391C9.61509 57.4932 9.4425 57.6732 9.32461 57.879C9.20672 58.0848 9.16092 58.3146 9.18722 58.5685C9.21218 58.8205 9.32697 59.0973 9.53159 59.3991L10.3049 60.5395L15.5453 56.9859L16.1612 57.8941Z" fill="black"/>
<path d="M13.3857 53.4069L6.74324 56.3684L5.68761 54.0007C5.45721 53.484 5.36038 53.0139 5.39714 52.5906C5.43391 52.1672 5.57794 51.7984 5.82924 51.4842C6.07838 51.1709 6.40621 50.9237 6.81271 50.7424C7.22137 50.5602 7.62704 50.4818 8.02969 50.507C8.42923 50.5311 8.80029 50.6715 9.14289 50.9283C9.48236 51.1839 9.76682 51.569 9.99626 52.0836L10.7222 53.7118L9.87242 54.0907L9.18698 52.5533C9.04141 52.2268 8.8671 51.987 8.66404 51.8339C8.45882 51.6817 8.23662 51.6019 7.99744 51.5945C7.75826 51.5871 7.51326 51.6393 7.26244 51.7511C7.01161 51.863 6.81011 52.0098 6.65793 52.1917C6.50574 52.3736 6.42031 52.5919 6.40162 52.8465C6.38196 53.0989 6.44636 53.3916 6.59483 53.7246L7.1559 54.983L12.9388 52.4047L13.3857 53.4069Z" fill="black"/>
<path d="M11.4421 48.4789L4.39155 50.2629L4.12238 49.1992L10.2572 47.6469L9.44878 44.4521L10.3645 44.2204L11.4421 48.4789Z" fill="black"/>
<path d="M3.20245 44.7223L3.11358 43.479L6.27581 41.3483L6.27024 41.2703L2.83709 39.611L2.74822 38.3678L7.34271 40.6846L10.1906 40.481L10.2685 41.572L7.4207 41.7755L3.20245 44.7223Z" fill="black"/>
<path d="M10.8726 34.1185C10.8371 34.3094 10.7392 34.4609 10.5787 34.5732C10.4159 34.685 10.2378 34.723 10.0447 34.6872C9.85378 34.6517 9.70359 34.5528 9.59408 34.3904C9.48224 34.2276 9.44404 34.0507 9.47947 33.8599C9.5149 33.669 9.61403 33.5177 9.77686 33.4058C9.93735 33.2935 10.113 33.2551 10.3039 33.2906C10.4319 33.3143 10.5434 33.3687 10.6384 33.4538C10.7315 33.5361 10.7997 33.6354 10.8431 33.7518C10.8865 33.8682 10.8963 33.9905 10.8726 34.1185Z" fill="black"/>
<path d="M12.6468 28.1328L12.1472 29.185L6.70024 23.7011L7.24406 22.5559L14.9364 23.3114L14.4367 24.3636L8.17841 23.6679L8.15403 23.7192L12.6468 28.1328ZM10.1579 26.7347L11.7787 23.3216L12.6128 23.7176L10.992 27.1307L10.1579 26.7347Z" fill="black"/>
<path d="M15.1494 23.4712L9.27124 19.1888L10.7977 17.0935C11.1309 16.6362 11.4901 16.318 11.8755 16.1388C12.2608 15.9597 12.6523 15.9007 13.05 15.962C13.4457 16.0218 13.8235 16.1828 14.1832 16.4449C14.5448 16.7084 14.8151 17.0209 14.9939 17.3826C15.1722 17.7409 15.2354 18.1326 15.1835 18.5576C15.1311 18.9793 14.939 19.4179 14.6073 19.8733L13.5575 21.3141L12.8056 20.7663L13.7967 19.4058C14.0072 19.1169 14.1282 18.8462 14.1598 18.5939C14.1894 18.3401 14.1478 18.1077 14.035 17.8967C13.9222 17.6856 13.7549 17.4992 13.5329 17.3375C13.3109 17.1758 13.0832 17.0743 12.8496 17.0331C12.6161 16.9918 12.3843 17.0265 12.1543 17.1372C11.9256 17.246 11.704 17.4477 11.4893 17.7424L10.678 18.856L15.7956 22.5843L15.1494 23.4712Z" fill="black"/>
<path d="M18.4327 19.3405L13.3976 14.0926L15.2682 12.2979C15.6765 11.9062 16.086 11.656 16.4968 11.5473C16.9076 11.4386 17.3034 11.4493 17.6842 11.5794C18.0633 11.7078 18.4069 11.9326 18.715 12.2537C19.0248 12.5766 19.2359 12.9317 19.3485 13.3192C19.4611 13.7033 19.4546 14.1 19.3289 14.5092C19.2033 14.9152 18.9372 15.3132 18.5306 15.7033L17.2442 16.9375L16.6001 16.2661L17.8147 15.1008C18.0727 14.8533 18.2393 14.6081 18.3147 14.3652C18.3884 14.1206 18.3882 13.8845 18.3143 13.6569C18.2403 13.4293 18.1082 13.2165 17.9181 13.0183C17.728 12.8202 17.5216 12.6803 17.2989 12.5986C17.0762 12.517 16.8419 12.5105 16.596 12.5791C16.3519 12.646 16.0983 12.8057 15.8352 13.0581L14.8409 14.012L19.2245 18.5809L18.4327 19.3405Z" fill="black"/>
<path d="M22.4115 15.8436L18.3463 9.8131L19.2562 9.19975L22.7934 14.447L25.526 12.6049L26.054 13.3882L22.4115 15.8436Z" fill="black"/>
<path d="M23.1575 6.81903L24.2973 6.31457L27.3726 8.56892L27.444 8.5373L27.8433 4.74516L28.9831 4.2407L28.3583 9.34819L29.5138 11.959L28.5136 12.4017L27.3581 9.79085L23.1575 6.81903Z" fill="black"/>
<path d="M35.7319 10.4474C35.5403 10.4787 35.3645 10.4378 35.2045 10.3248C35.0442 10.2094 34.9482 10.0548 34.9165 9.86085C34.8853 9.66926 34.9275 9.49445 35.0432 9.33644C35.1586 9.17609 35.3121 9.08028 35.5037 9.04901C35.6953 9.01774 35.8712 9.05979 36.0316 9.17515C36.1916 9.28817 36.2872 9.44048 36.3184 9.63207C36.3394 9.76058 36.326 9.88391 36.2781 10.0021C36.2322 10.1175 36.1618 10.2153 36.0669 10.2956C35.9721 10.3758 35.8604 10.4264 35.7319 10.4474Z" fill="black"/>
<path d="M41.9644 10.0903L40.8052 9.97631L44.1217 2.99468L45.3833 3.11877L47.2761 10.6128L46.1169 10.4987L44.6532 4.37436L44.5967 4.3688L41.9644 10.0903ZM42.4375 7.2751L46.1978 7.64494L46.1074 8.56381L42.3471 8.19397L42.4375 7.2751Z" fill="black"/>
<path d="M47.1979 10.8678L49.2379 3.88707L51.7262 4.61422C52.2693 4.77293 52.6903 5.00326 52.9893 5.30521C53.2883 5.60717 53.4763 5.95561 53.5532 6.35054C53.6309 6.74319 53.6073 7.15312 53.4824 7.58033C53.3569 8.00981 53.1543 8.36988 52.8745 8.66055C52.5976 8.94961 52.2505 9.14167 51.833 9.23672C51.4184 9.33016 50.9408 9.29785 50.3999 9.13981L48.6888 8.63977L48.9498 7.74672L50.5655 8.21887C50.9086 8.31914 51.2042 8.34141 51.4524 8.28567C51.7012 8.22765 51.9058 8.10986 52.0662 7.93229C52.2266 7.75472 52.3453 7.53414 52.4224 7.27054C52.4994 7.00695 52.5178 6.75828 52.4776 6.52455C52.4374 6.29082 52.3262 6.08446 52.1442 5.90549C51.9645 5.72717 51.6997 5.58688 51.3497 5.48462L50.0272 5.09813L48.2512 11.1756L47.1979 10.8678Z" fill="black"/>
<path d="M52.1961 12.5591L55.4299 6.04493L57.7519 7.19762C58.2587 7.4492 58.6328 7.74988 58.8741 8.09963C59.1154 8.44939 59.2393 8.82542 59.2458 9.22772C59.2533 9.62791 59.1581 10.0273 58.9602 10.426C58.7612 10.8268 58.4985 11.1457 58.172 11.3827C57.8487 11.6187 57.4732 11.7468 57.0456 11.7671C56.6211 11.7863 56.1565 11.6706 55.6518 11.4201L54.055 10.6274L54.4687 9.79407L55.9764 10.5425C56.2966 10.7015 56.5837 10.7753 56.8378 10.764C57.0929 10.7505 57.315 10.6705 57.5041 10.5239C57.6932 10.3772 57.8488 10.1809 57.9709 9.93491C58.0931 9.68893 58.1548 9.44736 58.1563 9.2102C58.1577 8.97303 58.0845 8.75038 57.9368 8.54223C57.7911 8.33513 57.555 8.15052 57.2285 7.98841L55.9943 7.37575L53.179 13.0471L52.1961 12.5591Z" fill="black"/>
<path d="M56.8332 15.1192L61.1318 9.25274L62.0169 9.90129L58.2767 15.0058L60.9349 16.9536L60.3766 17.7155L56.8332 15.1192Z" fill="black"/>
<path d="M65.5779 12.7666L66.4383 13.6684L65.358 17.3252L65.412 17.3817L69.1154 16.4739L69.9759 17.3756L64.9584 18.5165L62.8928 20.4875L62.1377 19.6962L64.2033 17.7252L65.5779 12.7666Z" fill="black"/>
<path d="M66.4202 25.8273C66.3259 25.6576 66.3049 25.4784 66.3571 25.2896C66.4114 25.0997 66.5244 24.957 66.6962 24.8616C66.8659 24.7673 67.0447 24.7479 67.2325 24.8033C67.4224 24.8576 67.5646 24.9696 67.6588 25.1393C67.7531 25.309 67.7731 25.4888 67.7188 25.6787C67.6666 25.8675 67.5557 26.009 67.386 26.1033C67.2721 26.1665 67.1515 26.1956 67.0241 26.1906C66.9 26.1864 66.7841 26.1533 66.6765 26.0912C66.5689 26.0291 66.4834 25.9412 66.4202 25.8273Z" fill="black"/>
<path d="M68.8652 31.5711L68.5801 30.4417L76.2722 31.1993L76.5825 32.4285L70.1715 36.7461L69.8864 35.6168L75.1539 32.1665L75.14 32.1114L68.8652 31.5711ZM71.6744 31.0634L72.5991 34.7269L71.7039 34.9529L70.7791 31.2894L71.6744 31.0634Z" fill="black"/>
<path d="M69.9055 36.7584L77.1647 36.3151L77.3227 38.9026C77.3572 39.4673 77.283 39.9415 77.1001 40.3251C76.9171 40.7086 76.6529 41.0034 76.3073 41.2095C75.9641 41.4155 75.5704 41.532 75.1262 41.5592C74.6795 41.5864 74.2721 41.5176 73.9039 41.3528C73.5382 41.1901 73.24 40.9284 73.0092 40.5678C72.781 40.2093 72.6497 39.7489 72.6154 39.1865L72.5067 37.4071L73.4354 37.3504L73.538 39.0305C73.5598 39.3874 73.6389 39.6731 73.7753 39.8877C73.9141 40.1022 74.0942 40.2548 74.3156 40.3457C74.537 40.4365 74.7847 40.4736 75.0588 40.4568C75.3329 40.4401 75.5732 40.3732 75.7795 40.2563C75.9858 40.1393 76.1424 39.9649 76.2492 39.7331C76.3561 39.5036 76.3985 39.2069 76.3763 38.843L76.2923 37.4677L69.9724 37.8536L69.9055 36.7584Z" fill="black"/>
<path d="M70.0058 42.0337L77.2301 42.8717L76.9314 45.4467C76.8663 46.0088 76.7099 46.4625 76.4625 46.808C76.2151 47.1535 75.9032 47.3973 75.5268 47.5396C75.1528 47.6821 74.7447 47.7277 74.3026 47.6764C73.8582 47.6249 73.4692 47.4856 73.1356 47.2586C72.8041 47.0343 72.5565 46.7243 72.3926 46.3288C72.2309 45.9358 72.1824 45.4595 72.2474 44.8998L72.4528 43.129L73.377 43.2362L73.183 44.9082C73.1418 45.2633 73.1696 45.5585 73.2662 45.7938C73.3652 46.0293 73.5157 46.2112 73.7177 46.3395C73.9197 46.4678 74.1571 46.5477 74.4299 46.5794C74.7027 46.611 74.9509 46.5874 75.1745 46.5085C75.3982 46.4295 75.5829 46.2853 75.7288 46.0758C75.8744 45.8687 75.9682 45.584 76.0102 45.2219L76.1689 43.8532L69.8794 43.1237L70.0058 42.0337Z" fill="black"/>
<path d="M69.1663 47.2637L76.1414 49.3228L75.8308 50.3752L69.7616 48.5836L68.8286 51.7442L67.9226 51.4767L69.1663 47.2637Z" fill="black"/>
<path d="M74.3401 54.6961L73.7828 55.811L69.9761 56.0323L69.9412 56.1022L72.049 59.2797L71.4918 60.3946L68.7199 56.0594L66.1661 54.7829L66.6551 53.8046L69.209 55.0811L74.3401 54.6961Z" fill="black"/>
<path d="M62.336 59.9096C62.4638 59.7634 62.6253 59.683 62.8206 59.6682C63.0177 59.655 63.1902 59.713 63.3382 59.8424C63.4843 59.9701 63.5631 60.1318 63.5745 60.3273C63.5878 60.5244 63.5305 60.696 63.4027 60.8422C63.2749 60.9883 63.1125 61.068 62.9154 61.0813C62.7201 61.096 62.5494 61.0395 62.4032 60.9118C62.3052 60.8261 62.237 60.7224 62.1986 60.6008C62.1605 60.4826 62.1524 60.3623 62.1744 60.2401C62.1964 60.1178 62.2503 60.0076 62.336 59.9096Z" fill="black"/>
<path d="M55.8255 65.0513L56.8497 64.4964L58.0127 72.1377L56.8981 72.7416L51.1326 67.5936L52.1567 67.0388L56.7996 71.2925L56.8496 71.2655L55.8255 65.0513ZM57.0104 67.6484L53.6882 69.4482L53.2484 68.6364L56.5706 66.8366L57.0104 67.6484Z" fill="black"/>
<path d="M51.0548 67.3391L53.2748 74.2647L50.8062 75.0561C50.2674 75.2288 49.7896 75.2738 49.3728 75.1911C48.956 75.1084 48.6051 74.9251 48.3201 74.641C48.0359 74.3592 47.8258 74.0064 47.69 73.5826C47.5534 73.1565 47.5196 72.7447 47.5885 72.3472C47.656 71.9527 47.836 71.5991 48.1286 71.2865C48.4197 70.9769 48.8335 70.7361 49.3701 70.5642L51.0676 70.02L51.3516 70.906L49.7487 71.4198C49.4083 71.5289 49.151 71.6761 48.9766 71.8612C48.803 72.0486 48.6995 72.2608 48.666 72.4978C48.6326 72.7347 48.6578 72.9839 48.7416 73.2455C48.8255 73.507 48.9495 73.7233 49.1137 73.8944C49.278 74.0655 49.4856 74.1742 49.7366 74.2205C49.9854 74.2676 50.2834 74.2354 50.6306 74.1241L51.9426 73.7035L50.0099 67.6741L51.0548 67.3391Z" fill="black"/>
<path d="M45.9668 68.7376L46.9366 75.9454L44.3674 76.291C43.8066 76.3665 43.3283 76.3269 42.9325 76.1724C42.5367 76.0178 42.2234 75.7757 41.9927 75.446C41.7624 75.1187 41.6175 74.7345 41.5582 74.2934C41.4985 73.8499 41.5375 73.4386 41.6752 73.0594C41.8109 72.6828 42.0502 72.3663 42.3931 72.11C42.734 71.8563 43.1837 71.6919 43.7421 71.6168L45.5088 71.3791L45.6329 72.3011L43.9647 72.5256C43.6104 72.5733 43.3312 72.6729 43.1271 72.8246C42.9232 72.9786 42.7841 73.1694 42.7096 73.3968C42.6351 73.6242 42.6161 73.8739 42.6527 74.1461C42.6893 74.4183 42.7735 74.653 42.9051 74.8503C43.0368 75.0476 43.2221 75.191 43.4611 75.2807C43.6977 75.3707 43.9967 75.3914 44.3581 75.3428L45.7236 75.159L44.8793 68.8839L45.9668 68.7376Z" fill="black"/>
<path d="M40.6913 69.2135L40.4162 76.481L39.3197 76.4395L39.559 70.1159L36.2659 69.9913L36.3017 69.0474L40.6913 69.2135Z" fill="black"/>
<path d="M34.765 76.0611L33.5471 75.7961L32.3937 72.1615L32.3174 72.1449L29.7579 74.9714L28.54 74.7063L32.0576 70.9508L32.6648 68.161L33.7335 68.3936L33.1263 71.1835L34.765 76.0611Z" fill="black"/>
</svg>
