<svg width="323" height="65" viewBox="0 0 323 65" fill="none" xmlns="http://www.w3.org/2000/svg">
<g clip-path="url(#clip0_187_186)">
<path d="M73.3041 55.4322V50.3188L77.8319 49.4423V18.9134L73.3041 18.0369V12.8956H77.8319H92.2059C97.2118 12.8956 101.116 13.8697 103.921 15.8178C106.725 17.766 108.128 20.6783 108.128 24.5526C108.128 26.5207 107.606 28.2776 106.564 29.8254C105.522 31.3731 104.008 32.5384 102.02 33.3173C103.716 33.6878 105.132 34.3392 106.271 35.2754C107.411 36.2096 108.263 37.3451 108.827 38.6797C109.391 40.0143 109.674 41.4704 109.674 43.0481C109.674 47.1197 108.329 50.2012 105.642 52.2948C102.955 54.3884 99.146 55.4361 94.2178 55.4361H73.3041V55.4322ZM86.3635 30.7178H92.4988C94.7776 30.7178 96.5305 30.2497 97.7576 29.3154C98.9846 28.3812 99.5981 27.0167 99.5981 25.2259C99.5981 23.2598 98.9806 21.8077 97.7436 20.8735C96.5066 19.9392 94.662 19.4711 92.2079 19.4711H86.3655V30.7178H86.3635ZM86.3635 48.8885H94.2218C96.4807 48.8885 98.2038 48.3965 99.393 47.4125C100.58 46.4285 101.176 44.9723 101.176 43.0441C101.176 41.6417 100.951 40.4625 100.504 39.5083C100.056 38.5542 99.3691 37.8331 98.4448 37.3471C97.5185 36.861 96.3273 36.616 94.8652 36.616H86.3635V48.8885Z" fill="white"/>
<path d="M112.305 55.4322V50.3188L116.424 49.4423V15.8757L111.867 14.9992V9.85791H124.954V49.4443L129.073 50.3208V55.4342H112.305V55.4322Z" fill="white"/>
<path d="M141.828 55.4262C138.693 55.4262 136.199 54.5836 134.348 52.8984C132.498 51.2132 131.573 48.9205 131.573 46.0182C131.573 44.0322 132.113 42.2892 133.195 40.7892C134.276 39.2893 135.872 38.112 137.985 37.2535C140.099 36.3969 142.704 35.9687 145.8 35.9687H149.977V33.6321C149.977 32.1122 149.533 30.8812 148.648 29.937C147.762 28.9928 146.433 28.5207 144.66 28.5207C143.744 28.5207 142.921 28.6322 142.192 28.8573C141.461 29.0804 140.804 29.3972 140.22 29.8075L139.549 33.9847H133.414L133.296 25.7758C134.952 24.8415 136.744 24.0806 138.673 23.497C140.601 22.9133 142.752 22.6205 145.129 22.6205C149.258 22.6205 152.521 23.5806 154.915 25.4989C157.311 27.4171 158.509 30.1581 158.509 33.7237V46.7532C158.509 47.1815 158.513 47.6058 158.523 48.0241C158.533 48.4424 158.566 48.8468 158.624 49.2372L161.925 49.7053V54.8187H151.35C151.134 54.2729 150.921 53.6892 150.706 53.0657C150.491 52.4423 150.336 51.8188 150.238 51.1953C149.226 52.4801 148.033 53.508 146.658 54.2769C145.29 55.0418 143.678 55.4262 141.828 55.4262ZM144.107 49.1157C145.294 49.1157 146.423 48.8488 147.495 48.3129C148.567 47.7771 149.393 47.0719 149.979 46.1954V41.1996H145.772C143.902 41.1996 142.485 41.6279 141.521 42.4844C140.557 43.341 140.075 44.3748 140.075 45.5819C140.075 46.7114 140.43 47.5838 141.141 48.1974C141.852 48.8089 142.842 49.1157 144.107 49.1157Z" fill="white"/>
<path d="M177.526 55.4481C175.17 55.4481 172.972 55.225 170.939 54.7768C168.903 54.3286 166.951 53.6872 165.08 52.8486L164.993 43.9087H170.923L172.062 48.4663C172.723 48.797 173.45 49.0599 174.239 49.2551C175.028 49.4503 175.928 49.5479 176.942 49.5479C178.851 49.5479 180.195 49.2372 180.974 48.6137C181.753 47.9902 182.143 47.2113 182.143 46.2771C182.143 45.4006 181.729 44.6258 180.902 43.9545C180.074 43.2832 178.424 42.6936 175.95 42.1876C172.211 41.4087 169.455 40.2016 167.682 38.5642C165.909 36.9288 165.022 34.8352 165.022 32.2835C165.022 30.5306 165.465 28.933 166.351 27.4928C167.238 26.0526 168.59 24.8933 170.413 24.0168C172.233 23.1404 174.566 22.7021 177.41 22.7021C179.787 22.7021 181.962 22.9312 183.94 23.3894C185.916 23.8475 187.578 24.4471 188.922 25.1861L189.01 33.8333H183.108L182.201 29.684C181.675 29.2936 181.056 29.0027 180.347 28.8075C179.636 28.6123 178.833 28.5147 177.936 28.5147C176.436 28.5147 175.287 28.8175 174.488 29.4211C173.689 30.0246 173.291 30.8035 173.291 31.7576C173.291 32.3034 173.433 32.8094 173.715 33.2775C173.998 33.7456 174.558 34.1839 175.395 34.5922C176.231 35.0006 177.448 35.391 179.046 35.7615C182.96 36.6579 185.815 37.8511 187.605 39.3411C189.396 40.8311 190.293 42.9206 190.293 45.6078C190.293 48.548 189.227 50.9244 187.093 52.7371C184.96 54.5498 181.773 55.4481 177.526 55.4481Z" fill="white"/>
<path d="M206.993 55.448C204.051 55.448 201.788 54.6393 200.201 53.0238C198.613 51.4063 197.82 48.8467 197.82 45.3408V29.2138H193.468V23.2239H197.82V15.4832H206.322V23.2259H212.137V29.2158H206.322V45.3129C206.322 46.54 206.579 47.4164 207.097 47.9423C207.613 48.4682 208.318 48.7311 209.214 48.7311C209.682 48.7311 210.188 48.6973 210.732 48.6295C211.278 48.5618 211.744 48.4881 212.135 48.4104L212.866 54.5756C211.989 54.8285 211.039 55.0377 210.017 55.203C208.995 55.3664 207.987 55.448 206.993 55.448Z" fill="white"/>
<path d="M243.785 55.4481C239.655 55.4481 236.062 54.5856 233.004 52.8626C229.947 51.1395 227.584 48.6954 225.919 45.5301C224.254 42.3649 223.421 38.62 223.421 34.2974V32.8652C223.421 28.7358 224.224 25.0786 225.831 21.8954C227.439 18.7102 229.731 16.2123 232.711 14.4016C235.691 12.5909 239.235 11.6846 243.345 11.6846C246.227 11.6846 248.93 12.0929 251.452 12.9116C253.974 13.7303 256.229 14.9753 258.215 16.6506V26.9331H251.874L250.998 20.4771C250.354 20.009 249.653 19.6106 248.894 19.28C248.135 18.9493 247.311 18.6963 246.426 18.521C245.54 18.3457 244.582 18.2581 243.548 18.2581C241.134 18.2581 239.058 18.8517 237.325 20.0409C235.592 21.2301 234.261 22.9093 233.337 25.0806C232.413 27.2518 231.949 29.8274 231.949 32.8074V34.2974C231.949 37.2774 232.435 39.859 233.409 42.0402C234.383 44.2214 235.765 45.9106 237.558 47.1098C239.349 48.3069 241.472 48.9065 243.926 48.9065C245.153 48.9065 246.384 48.7651 247.621 48.4822C248.858 48.1994 249.982 47.8348 250.996 47.3866L251.872 41.3968H258.213V51.5638C256.557 52.6554 254.492 53.5757 252.02 54.3247C249.55 55.0737 246.805 55.4481 243.785 55.4481Z" fill="white"/>
<path d="M274.752 55.448C271.812 55.448 269.547 54.6393 267.959 53.0238C266.372 51.4063 265.579 48.8467 265.579 45.3408V29.2138H261.227V23.2239H265.579V15.4832H274.081V23.2259H279.895V29.2158H274.081V45.3129C274.081 46.54 274.338 47.4164 274.856 47.9423C275.372 48.4682 276.077 48.7311 276.973 48.7311C277.441 48.7311 277.947 48.6973 278.493 48.6295C279.039 48.5618 279.505 48.4881 279.895 48.4104L280.626 54.5756C279.75 54.8285 278.8 55.0377 277.778 55.203C276.754 55.3664 275.746 55.448 274.752 55.448Z" fill="white"/>
<path d="M283.656 55.4322V50.3188L287.746 49.4423V29.8393L283.218 28.9629V23.8216H295.692L296.012 27.7358L296.07 28.437C296.849 26.7239 297.813 25.4271 298.962 24.5507C300.112 23.6742 301.484 23.236 303.082 23.236C303.588 23.236 304.144 23.2798 304.747 23.3674C305.351 23.4551 305.887 23.5666 306.355 23.7041L305.448 31.5624L301.211 31.3293C300.004 31.2716 299.024 31.4747 298.275 31.9429C297.524 32.411 296.859 33.0823 296.273 33.9587V49.4423L300.363 50.3188V55.4322H283.656Z" fill="white"/>
<path d="M305.574 55.4322V50.3188L309.693 49.4423V15.8757L305.135 14.9992V9.85791H318.225V49.4443L322.344 50.3208V55.4342H305.574V55.4322Z" fill="white"/>
<mask id="mask0_187_186" style="mask-type:luminance" maskUnits="userSpaceOnUse" x="0" y="0" width="66" height="65">
<path d="M65.1291 0.64502H0.975708V64.645H65.1291V0.64502Z" fill="white"/>
</mask>
<g mask="url(#mask0_187_186)">
<mask id="mask1_187_186" style="mask-type:luminance" maskUnits="userSpaceOnUse" x="0" y="0" width="66" height="65">
<path d="M65.1291 0.64502H0.975708V64.645H65.1291V0.64502Z" fill="white"/>
</mask>
<g mask="url(#mask1_187_186)">
<path d="M15.3 40.345C16.7561 37.9626 18.8357 36.4866 21.3237 35.4209C21.505 35.3432 21.6962 35.5006 21.6604 35.6938C21.6584 35.7037 21.6564 35.7137 21.6544 35.7237C21.252 37.4487 20.8974 39.1877 20.4293 40.8948C19.9134 42.7752 20.5827 44.1895 22.2301 45.2532C24.1782 46.5102 26.224 47.6197 28.2538 48.7432C29.6183 49.4981 30.8473 49.3208 32.0226 48.2551C33.4409 46.9703 34.8293 45.6516 36.2296 44.3489C36.2774 44.3051 36.3252 44.2592 36.375 44.2134C36.5185 44.08 36.7555 44.1636 36.7814 44.3568C36.9726 45.7194 36.9647 47.0181 36.7774 48.3169C36.5942 49.5878 36.2197 50.7989 35.5245 52.018C35.4229 52.1972 35.5703 52.4144 35.7735 52.3825C36.144 52.3227 36.4647 52.2729 36.7794 52.1992C42.2673 50.9184 46.7532 48.032 50.2372 43.6338C51.2969 42.2952 52.2411 40.8311 53.0319 39.3172C54.3785 36.7415 54.257 34.0623 53 31.4827C52.4204 30.2935 51.6196 29.2119 50.8567 28.0008C50.8089 27.9271 50.8069 27.8315 50.8487 27.7538C53.6872 22.485 55.49 16.774 55.5139 10.4475C55.5139 10.2304 55.7788 10.1248 55.9322 10.2802C59.2986 13.7144 61.7328 17.5927 63.2607 22.0269C65.9797 29.9171 65.7646 37.7575 62.3882 45.3967C55.227 61.6033 38.2774 67.1769 25.1124 63.6152C24.9411 63.5694 24.8774 63.3602 24.9909 63.2228C25.1841 62.9897 25.3714 62.7646 25.5527 62.5356C27.6761 59.8404 28.1123 56.8485 27.0805 53.6175C27.0048 53.3785 26.7777 53.1315 26.5566 53.002C24.0368 51.518 21.507 50.0479 18.9652 48.6037C18.7063 48.4563 18.3158 48.4025 18.023 48.4683C14.3996 49.285 11.9973 51.4542 10.8699 55.0079C10.8539 55.0557 10.838 55.1055 10.822 55.1533C10.7663 55.3206 10.5531 55.3744 10.4256 55.2529C1.42991 46.7412 -2.76518 30.8075 5.18477 16.8796C13.6188 2.10318 30.0087 -1.5461 41.3091 1.78646C41.5143 1.84622 41.5462 2.1251 41.3589 2.23067C37.5583 4.38399 34.3711 7.24645 31.6959 10.6766C30.6521 12.0152 29.7059 13.4315 28.7577 14.8398C28.5346 15.1705 28.3474 15.2143 27.9888 15.1426C25.4849 14.6327 23.0408 14.7821 20.7361 15.9633C19.1345 16.784 17.9553 18.0429 17.043 19.6026C14.5072 23.9411 13.2801 28.5984 13.5052 33.6221C13.6048 35.8671 14.0251 38.0543 14.806 40.1657C14.8239 40.2175 14.8458 40.2673 14.8697 40.3191C14.9494 40.5004 15.1984 40.5143 15.3 40.345Z" fill="white"/>
</g>
<mask id="mask2_187_186" style="mask-type:luminance" maskUnits="userSpaceOnUse" x="0" y="0" width="66" height="65">
<path d="M65.1291 0.64502H0.975708V64.645H65.1291V0.64502Z" fill="white"/>
</mask>
<g mask="url(#mask2_187_186)">
<path d="M17.3617 54.2828C19.0409 55.2509 20.7141 56.217 22.3934 57.1851C23.5129 57.8305 23.6085 59.4221 22.5647 60.1831C22.5567 60.189 22.5507 60.193 22.5428 60.199C21.003 61.3145 19.256 62.0436 17.5469 62.8364C16.9573 63.1093 16.3199 63.2806 15.7063 63.5017C15.4514 63.5933 15.292 63.5276 15.2402 63.2467C15.1247 62.6192 14.9514 61.9958 14.8956 61.3643C14.7323 59.5018 14.4853 57.6373 14.6705 55.7609C14.6745 55.723 14.6785 55.6852 14.6825 55.6473C14.8179 54.3546 16.2382 53.6335 17.3617 54.2828Z" fill="white"/>
</g>
<mask id="mask3_187_186" style="mask-type:luminance" maskUnits="userSpaceOnUse" x="0" y="0" width="66" height="65">
<path d="M65.1291 0.64502H0.975708V64.645H65.1291V0.64502Z" fill="white"/>
</mask>
<g mask="url(#mask3_187_186)">
<path d="M41.4864 4.54535C41.3748 4.48161 41.3788 4.31627 41.4964 4.2605C43.331 3.37806 45.1357 2.73465 47.034 2.39402C48.1854 2.18686 49.3567 2.1012 50.522 1.98965C50.6793 1.97571 50.9363 2.09324 51.008 2.22471C52.5578 5.03537 53.3844 8.05918 53.6055 11.2543V11.2563C53.6135 11.3818 53.4721 11.4635 53.3645 11.3997C49.4105 9.11692 45.4923 6.85603 41.4864 4.54535Z" fill="white"/>
</g>
</g>
</g>
<defs>
<clipPath id="clip0_187_186">
<rect width="321.368" height="64" fill="white" transform="translate(0.975708 0.64502)"/>
</clipPath>
</defs>
</svg>
