<svg width="44" height="44" viewBox="0 0 44 44" fill="none" xmlns="http://www.w3.org/2000/svg">
<path d="M34.7879 2H9.21209C4.31242 2 0.340454 5.97197 0.340454 10.8716V33.1284C0.340454 38.028 4.31242 42 9.21209 42H34.7879C39.6876 42 43.6595 38.028 43.6595 33.1284V10.8716C43.6595 5.97197 39.6876 2 34.7879 2Z" fill="white"/>
<path d="M33.4643 13.005C33.4733 12.5856 33.3985 12.1687 33.2442 11.7786C33.09 11.3886 32.8594 11.0332 32.566 10.7335C32.2726 10.4337 31.9223 10.1956 31.5356 10.033C31.149 9.87037 30.7337 9.78662 30.3143 9.78662C29.8949 9.78662 29.4796 9.87037 29.093 10.033C28.7063 10.1956 28.356 10.4337 28.0626 10.7335C27.7692 11.0332 27.5386 11.3886 27.3844 11.7786C27.2301 12.1687 27.1553 12.5856 27.1643 13.005V20.4993C27.026 20.4906 26.8866 20.4863 26.7463 20.4863H21.0936V13.005C21.1026 12.5856 21.0278 12.1687 20.8736 11.7786C20.7193 11.3886 20.4887 11.0332 20.1953 10.7335C19.9019 10.4337 19.5516 10.1956 19.165 10.033C18.7783 9.87037 18.3631 9.78662 17.9436 9.78662C17.5242 9.78662 17.109 9.87037 16.7223 10.033C16.3357 10.1956 15.9854 10.4337 15.692 10.7335C15.3986 11.0332 15.168 11.3886 15.0137 11.7786C14.8595 12.1687 14.7847 12.5856 14.7937 13.005V20.6125C13.1275 20.9374 11.642 21.8712 10.6268 23.2318C9.61169 24.5924 9.13964 26.2824 9.30272 27.9721C9.46581 29.6618 10.2523 31.2302 11.509 32.3716C12.7656 33.5129 14.4022 34.1454 16.0998 34.1457H26.7536C30.5269 34.1457 33.4657 31.0878 33.4657 27.316C33.4585 26.8951 33.4643 13.005 33.4643 13.005ZM17.3363 27.2797H14.261C13.9412 27.2797 13.6344 27.1526 13.4083 26.9264C13.1821 26.7003 13.055 26.3935 13.055 26.0737C13.055 25.7538 13.1821 25.4471 13.4083 25.2209C13.6344 24.9947 13.9412 24.8677 14.261 24.8677H17.3363C17.6561 24.8677 17.9629 24.9947 18.1891 25.2209C18.4152 25.4471 18.5423 25.7538 18.5423 26.0737C18.5423 26.3935 18.4152 26.7003 18.1891 26.9264C17.9629 27.1526 17.6561 27.2797 17.3363 27.2797ZM25.8886 27.2797H22.8119C22.4921 27.2797 22.1853 27.1526 21.9592 26.9264C21.733 26.7003 21.6059 26.3935 21.6059 26.0737C21.6059 25.7538 21.733 25.4471 21.9592 25.2209C22.1853 24.9947 22.4921 24.8677 22.8119 24.8677H25.8828C26.2027 24.8677 26.5094 24.9947 26.7356 25.2209C26.9618 25.4471 27.0888 25.7538 27.0888 26.0737C27.0888 26.3935 26.9618 26.7003 26.7356 26.9264C26.5094 27.1526 26.2027 27.2797 25.8828 27.2797H25.8886Z" fill="black"/>
</svg>
