<svg width="285" height="64" viewBox="0 0 285 64" fill="none" xmlns="http://www.w3.org/2000/svg">
<path d="M100.501 22.039C103.344 22.039 105.63 22.8529 107.408 24.4254H107.509V12.6448H114.768V49.7098H108.016V47.3237H107.916C106.439 49.1522 103.596 50.4687 100.501 50.4687C93.5429 50.4687 88.4641 44.4254 88.4641 36.2517C88.4641 28.0778 93.5429 22.039 100.501 22.039ZM107.509 34.327C107.538 33.5786 107.412 32.8324 107.139 32.135C106.866 31.4376 106.452 30.804 105.922 30.2741C105.393 29.7442 104.76 29.329 104.063 29.0549C103.367 28.781 102.62 28.6536 101.872 28.6814C97.9636 28.6814 95.7281 31.4242 95.7281 36.247C95.7281 40.9694 98.0138 43.8127 101.872 43.8127C102.618 43.8336 103.36 43.702 104.053 43.4261C104.747 43.1503 105.377 42.7358 105.904 42.2082C106.432 41.6806 106.846 41.0509 107.122 40.3575C107.398 39.6644 107.529 38.922 107.509 38.1762V34.327Z" fill="white"/>
<path d="M146.823 49.7095H138.773L132.066 37.2159H127.495V49.7095H119.961V14.1667H134.43C141.945 14.1667 146.567 18.537 146.567 25.6455C146.567 30.8754 144.03 34.6834 139.609 36.3611V36.4114L146.823 49.7095ZM133.516 30.3679C137.122 30.3679 139.052 28.6902 139.052 25.5954C139.052 22.5006 137.223 21.0239 133.516 21.0239H127.477V30.3679H133.516Z" fill="white"/>
<path d="M160.926 22.0391C168.386 22.0391 173.566 27.7762 173.566 36.2562V38.3911H155.541C155.746 42.1991 157.776 44.3798 161.077 44.3798C163.714 44.3798 165.698 43.1638 167.577 40.3706L172.702 44.3798C170.114 48.4438 166.206 50.4734 161.077 50.4734C153.511 50.4734 148.231 44.7362 148.231 36.2562C148.231 27.8767 153.511 22.0391 160.926 22.0391ZM160.976 28.1327C157.977 28.1327 155.797 30.1626 155.541 33.2619H166.512C166.256 30.0118 164.277 28.1327 160.976 28.1327Z" fill="white"/>
<path d="M201.452 22.8024V49.7099H194.444V47.9819H194.343C192.871 49.5544 190.585 50.4688 187.943 50.4688C180.834 50.4688 175.705 44.5808 175.705 36.2516C175.705 27.9224 180.834 22.0344 187.943 22.0344C190.585 22.0344 192.871 22.9488 194.343 24.5213H194.444V22.7979L201.452 22.8024ZM194.188 34.0756C194.188 30.8253 192.007 28.6904 188.807 28.6904C185.15 28.6904 182.969 31.5339 182.969 36.2561C182.969 40.9784 185.15 43.8219 188.757 43.8219C192.007 43.8219 194.188 41.6916 194.188 38.4413V34.0756Z" fill="white"/>
<path d="M216.866 22.039C219.71 22.039 221.997 22.8529 223.774 24.4254H223.874V12.6448H231.138V49.7098H224.382V47.3237H224.281C222.809 49.1522 219.966 50.4687 216.866 50.4687C209.913 50.4687 204.834 44.4254 204.834 36.2517C204.834 28.0778 209.913 22.039 216.866 22.039ZM223.874 34.327C223.904 33.5786 223.778 32.8324 223.505 32.135C223.232 31.4376 222.818 30.804 222.289 30.2741C221.76 29.7442 221.126 29.329 220.429 29.0549C219.733 28.781 218.986 28.6536 218.238 28.6814C214.329 28.6814 212.094 31.4242 212.094 36.247C212.094 40.9694 214.38 43.8127 218.238 43.8127C218.984 43.8336 219.727 43.702 220.42 43.4261C221.113 43.1503 221.743 42.7358 222.27 42.2082C222.796 41.6806 223.212 41.0509 223.488 40.3575C223.763 39.6644 223.895 38.922 223.874 38.1762V34.327Z" fill="white"/>
<path d="M247.198 22.0391C254.662 22.0391 259.842 27.7762 259.842 36.2562V38.3911H241.817C242.018 42.1991 244.053 44.3798 247.353 44.3798C249.99 44.3798 251.974 43.1638 253.849 40.3706L259.001 44.3798C256.414 48.4438 252.505 50.4734 247.377 50.4734C239.81 50.4734 234.53 44.7362 234.53 36.2562C234.509 27.8767 239.801 22.0391 247.198 22.0391ZM247.253 28.1327C244.254 28.1327 242.073 30.1626 241.817 33.2619H252.789C252.533 30.0118 250.553 28.1327 247.253 28.1327Z" fill="white"/>
<path d="M263.238 22.8024H270.041V25.1888H270.142C271.362 23.3601 273.341 22.2951 275.929 22.2951C277.113 22.2828 278.293 22.4366 279.436 22.7521L278.201 29.6551C277.222 29.403 276.217 29.2664 275.206 29.2481C272.108 29.2481 270.485 31.3328 270.485 35.2413V49.71H263.238V22.8024Z" fill="white"/>
<path d="M62.4983 11.4446C62.4983 9.5409 61.768 7.71513 60.4682 6.36898C59.1681 5.02285 57.4051 4.2666 55.5666 4.2666C53.7283 4.2666 51.9651 5.02285 50.6653 6.36898C49.3652 7.71513 48.635 9.5409 48.635 11.4446V28.561C48.3325 28.561 48.0048 28.561 47.7149 28.561H35.1875V11.4446C35.1875 9.5409 34.4573 7.71513 33.1572 6.36898C31.8574 5.02285 30.0944 4.2666 28.2559 4.2666C26.4176 4.2666 24.6544 5.02285 23.3546 6.36898C22.0545 7.71513 21.3243 9.5409 21.3243 11.4446V28.8221C17.6537 29.5701 14.3831 31.7053 12.1489 34.8125C9.91467 37.9197 8.87657 41.7764 9.23659 45.6324C9.59661 49.4884 11.329 53.0677 14.0967 55.674C16.8643 58.2805 20.4694 59.7273 24.2102 59.7333H47.7023C49.6665 59.7266 51.6097 59.3164 53.4196 58.5264C55.2296 57.7365 56.8701 56.5825 58.2463 55.1312C59.6225 53.6801 60.7069 51.9605 61.4369 50.0722C62.1667 48.184 62.5275 46.1644 62.4983 44.1307C62.4983 43.1716 62.4983 11.4446 62.4983 11.4446ZM26.9326 44.072H20.1333C19.428 44.072 18.7516 43.7819 18.2529 43.2654C17.7542 42.7492 17.474 42.0486 17.474 41.3183C17.474 40.5879 17.7542 39.8875 18.2529 39.371C18.7516 38.8548 19.428 38.5646 20.1333 38.5646H26.92C27.6253 38.5646 28.3016 38.8548 28.8003 39.371C29.2991 39.8875 29.5792 40.5879 29.5792 41.3183C29.5792 42.0486 29.2991 42.7492 28.8003 43.2654C28.3016 43.7819 27.6253 44.072 26.92 44.072H26.9326ZM45.793 44.072H38.9936C38.2883 44.072 37.6121 43.7819 37.1133 43.2654C36.6147 42.7492 36.3344 42.0486 36.3344 41.3183C36.3344 40.5879 36.6147 39.8875 37.1133 39.371C37.6121 38.8548 38.2883 38.5646 38.9936 38.5646H45.7804C46.4857 38.5646 47.1621 38.8548 47.6607 39.371C48.1595 39.8875 48.4396 40.5879 48.4396 41.3183C48.4396 42.0486 48.1595 42.7492 47.6607 43.2654C47.1621 43.7819 46.4857 44.072 45.7804 44.072H45.793Z" fill="white"/>
</svg>
