<svg width="24" height="24" viewBox="0 0 24 24" fill="none" xmlns="http://www.w3.org/2000/svg">
<path fill-rule="evenodd" clip-rule="evenodd" d="M1.32919 12.6645C1.51443 12.294 1.96494 12.1439 2.33542 12.3291L8.04217 15.1825C9.65524 15.989 10.3338 16.3207 11.0319 16.4517C11.6717 16.5717 12.3283 16.5717 12.9681 16.4517C13.6662 16.3207 14.3448 15.989 15.9579 15.1825L21.6646 12.3291C22.0351 12.1439 22.4856 12.294 22.6708 12.6645C22.8561 13.035 22.7059 13.4855 22.3354 13.6707L16.6287 16.5241C16.5911 16.5429 16.554 16.5615 16.5172 16.5799C15.0495 17.3139 14.1744 17.7515 13.2447 17.926C12.4221 18.0803 11.5779 18.0803 10.7553 17.926C9.8256 17.7515 8.9505 17.3139 7.48286 16.5799C7.44606 16.5615 7.4089 16.5429 7.37135 16.5241L1.6646 13.6707C1.29412 13.4855 1.14395 13.035 1.32919 12.6645ZM1.32919 17.6645C1.51443 17.294 1.96494 17.1439 2.33542 17.3291L8.04217 20.1825C9.65524 20.989 10.3338 21.3207 11.0319 21.4517C11.6717 21.5717 12.3283 21.5717 12.9681 21.4517C13.6662 21.3207 14.3448 20.989 15.9579 20.1825L21.6646 17.3291C22.0351 17.1439 22.4856 17.294 22.6708 17.6645C22.8561 18.035 22.7059 18.4855 22.3354 18.6707L16.6287 21.5241C16.5911 21.5429 16.554 21.5615 16.5172 21.5799C15.0495 22.3139 14.1744 22.7515 13.2447 22.926C12.4221 23.0803 11.5779 23.0803 10.7553 22.926C9.8256 22.7515 8.9505 22.3139 7.48287 21.5799C7.44607 21.5615 7.4089 21.5429 7.37135 21.5241L1.6646 18.6707C1.29412 18.4855 1.14395 18.035 1.32919 17.6645Z" fill="#4C5FAB" fill-opacity="0.5"/>
<path d="M9.13784 1.93108C10.1873 1.40635 10.712 1.14399 11.2624 1.04073C11.7499 0.949272 12.2501 0.949272 12.7376 1.04073C13.288 1.14399 13.8127 1.40635 14.8622 1.93108L19.2757 4.13784C21.1181 5.05905 22.0393 5.51965 22.3349 6.14295C22.5922 6.68536 22.5922 7.31464 22.3349 7.85705C22.0393 8.48035 21.1181 8.94095 19.2757 9.86217L14.8622 12.0689C13.8127 12.5936 13.288 12.856 12.7376 12.9593C12.2501 13.0507 11.7499 13.0507 11.2624 12.9593C10.712 12.856 10.1873 12.5936 9.13783 12.0689L4.72433 9.86216C2.8819 8.94095 1.96069 8.48035 1.66508 7.85705C1.40782 7.31464 1.40782 6.68536 1.66508 6.14295C1.96069 5.51965 2.88191 5.05905 4.72433 4.13783L9.13784 1.93108Z" fill="white"/>
</svg>
