<svg width="24" height="24" viewBox="0 0 24 24" fill="none" xmlns="http://www.w3.org/2000/svg">
<path d="M12 3.2581C10.4311 2.30401 9.05461 1.79347 7.54619 1.52901C5.99997 1.25792 4.42208 1.236 2.84998 1.24232C2.28768 1.24458 2.00654 1.24571 1.7935 1.35502C1.60561 1.45142 1.45409 1.60355 1.35845 1.79183C1.25 2.0053 1.25 2.28683 1.25 2.84989V11.807C1.25 13.3974 1.25 14.1926 1.5397 14.803C1.81132 15.3754 2.17112 15.7706 2.71551 16.0947C3.29615 16.4403 4.2131 16.5266 6.04701 16.6992C6.46239 16.7383 6.87606 16.7915 7.28715 16.8636C9.02109 17.1676 10.5345 17.9494 12 18.8915L12 3.2581Z" fill="#4C5FAB" fill-opacity="0.5"/>
<path fill-rule="evenodd" clip-rule="evenodd" d="M12 3.25834C13.5689 2.30425 14.9454 1.79372 16.4538 1.52926C18 1.25817 19.5779 1.23624 21.15 1.24256C21.7123 1.24483 21.9935 1.24596 22.2065 1.35526C22.3944 1.45166 22.5459 1.60379 22.6416 1.79207C22.75 2.00555 22.75 2.28707 22.75 2.85013V11.8073C22.75 13.3976 22.75 14.1928 22.4603 14.8033C22.1887 15.3756 21.8289 15.7709 21.2845 16.0949C20.7039 16.4406 19.7869 16.5269 17.953 16.6995L17.953 16.6995C17.5376 16.7386 17.1239 16.7918 16.7129 16.8639C14.9789 17.1679 13.4655 17.9496 12 18.8917V3.25834ZM3 18.75C2.58579 18.75 2.25 19.0858 2.25 19.5C2.25 19.9142 2.58579 20.25 3 20.25C4.97377 20.25 6.39687 20.3743 7.67766 20.7236C8.95056 21.0707 10.1262 21.6522 11.584 22.624C11.8359 22.792 12.1641 22.792 12.416 22.624C13.8738 21.6522 15.0494 21.0707 16.3223 20.7236C17.6031 20.3743 19.0262 20.25 21 20.25C21.4142 20.25 21.75 19.9142 21.75 19.5C21.75 19.0858 21.4142 18.75 21 18.75C18.9738 18.75 17.3969 18.8757 15.9277 19.2764C14.585 19.6426 13.3686 20.2283 12 21.1041C10.6314 20.2283 9.41499 19.6426 8.07234 19.2764C6.60313 18.8757 5.02623 18.75 3 18.75Z" fill="white"/>
</svg>
