<svg width="937" height="954" viewBox="0 0 937 954" fill="none" xmlns="http://www.w3.org/2000/svg">
<g opacity="0.5">
<path d="M403.997 405.375L406.294 407.213L415.485 420.539L421.918 422.837L430.649 428.811L437.082 443.515L437.541 453.624L435.244 465.572L436.622 475.222L432.946 478.898L436.163 488.088L437.082 496.819L442.596 506.929L448.11 511.983L454.084 523.012L461.436 522.093L467.41 527.147V532.202L472.465 540.473L468.789 552.421L460.977 556.097L455.463 570.342L454.084 579.532L451.327 581.83L442.596 583.208L434.784 589.182L439.38 599.291L435.244 602.508L433.865 609.401L430.649 612.618L418.242 608.482L415.025 596.994L407.213 584.587L384.697 572.64L379.183 567.585L381.021 560.692L380.561 554.259L374.128 543.23L375.507 531.283L379.183 521.174L377.804 508.767L378.264 499.117L375.047 485.791L377.345 476.141L381.48 470.167L380.561 460.058L373.668 455.003L366.316 454.084V439.839L364.938 437.082H372.75L364.938 424.216L379.642 399.861L384.697 401.24L388.373 410.889L403.997 405.375Z" fill="black" fill-opacity="0.2" stroke="white" stroke-width="2" stroke-linecap="round" stroke-linejoin="round"/>
<path d="M886.03 320.365L886.949 337.367L882.814 345.638L873.623 342.881L863.514 345.178L858.919 354.369L853.404 359.883V371.83L855.243 391.13L847.89 394.347L834.564 411.349L848.35 419.62L856.161 429.73L867.19 441.218L869.488 446.732L861.676 445.813L857.54 447.651H849.269L842.376 450.408L826.752 438.92L810.669 440.299L803.777 445.353L788.153 447.191L783.558 457.301L774.827 458.679L773.448 465.112L766.096 462.815L758.744 467.87L761.96 472.465L766.096 484.872L765.177 488.548L753.689 494.062L745.418 492.683L730.713 494.522L715.09 498.657L707.278 493.602L690.276 488.088L686.14 490.845L675.112 484.412L669.598 476.6L662.245 478.898L642.946 478.438L642.026 482.574L633.296 483.493L619.51 488.548L607.563 487.629L596.534 488.548L591.939 493.143L578.153 492.224V472.924L580.451 465.112L576.316 460.517L568.504 445.353L552.88 437.082L537.716 422.377L542.311 420.999L547.366 413.187L540.933 399.861V384.697L545.987 381.94L554.259 381.48L559.313 374.128L566.666 366.316L568.044 359.883L560.692 355.288L554.718 347.935L541.392 341.043L530.364 323.122L527.607 312.093L529.445 301.524L539.094 296.929L540.014 288.198L544.149 284.982L563.909 296.47L555.637 305.66L559.773 313.931L576.775 311.174L594.696 312.553L619.051 317.148L635.134 318.986L646.622 316.688L689.816 324.5L709.116 325.419L719.685 322.662L727.037 318.527L732.551 311.174L747.715 301.524L762.42 296.01L782.639 291.874L795.965 290.036L816.643 300.605L831.348 302.443L835.483 305.2L843.295 302.903L854.783 314.85L864.892 318.067L876.84 320.365H886.03Z" fill="black" fill-opacity="0.2" stroke="white" stroke-width="2" stroke-linecap="round" stroke-linejoin="round"/>
<path d="M328.176 240.408L341.043 237.192L347.936 240.868L345.638 252.356L338.286 264.763L337.826 276.71L340.124 280.386L351.152 285.901L366.316 299.227L364.938 302.903L350.693 302.443L348.395 306.119L363.1 323.122L362.181 333.231L350.693 331.852L347.476 335.529L332.772 337.826L339.205 347.935L328.636 348.854L319.446 356.666L317.148 364.478L317.608 371.371L309.796 372.29L307.498 375.506L310.255 389.292L315.31 396.644L314.85 400.32L309.796 404.916L301.984 401.699L273.494 384.237L270.737 380.102L263.384 380.561L258.33 377.804L259.708 370.452L245.923 358.964L239.03 351.612L237.192 341.502L226.164 336.447L203.188 317.607L195.376 308.417L182.509 297.848L171.941 286.82L165.967 268.439L150.343 253.734L141.612 247.761L141.153 241.327L142.531 218.352L148.046 215.594L156.317 217.433L164.129 225.704L172.4 230.299L184.807 215.594L199.512 216.973L206.404 211.459L218.811 218.811L230.299 219.271L243.166 222.487L250.978 219.73L258.33 225.704L268.439 221.109L276.71 222.487L284.982 221.568L296.929 224.785L307.038 225.704L312.093 229.38L318.067 239.489L328.176 240.408Z" fill="black" fill-opacity="0.2" stroke="white" stroke-width="2" stroke-linecap="round" stroke-linejoin="round"/>
<path d="M671.436 909.006H682.005L689.816 904.411L699.926 921.413L707.737 920.954L723.82 916.818L740.823 917.737L747.256 922.332L759.203 923.251L769.772 925.549L784.936 922.332L786.774 924.17L787.234 937.037L792.748 937.956L795.965 934.739L803.777 931.982H812.048L819.4 928.306L817.562 944.389L813.426 946.227L793.208 945.768L755.987 950.363L731.632 952.201L728.416 951.282L725.199 941.172L710.035 936.118L681.545 931.522L674.652 929.685L660.407 930.604L655.353 926.008L653.514 917.737L654.433 909.006L660.867 910.385L662.705 903.951L671.436 909.006ZM870.866 914.061L863.514 904.411L868.568 902.113L874.083 913.142L870.866 914.061ZM619.51 861.676L613.077 862.595L609.86 852.486L612.158 847.891L621.808 857.54L619.51 861.676ZM907.627 880.516L899.816 878.678L901.654 870.407L898.437 863.055L909.006 850.647L923.71 844.674L927.846 848.809L923.71 860.297L919.575 866.271L921.413 870.866L914.061 871.785L907.627 880.516ZM820.319 833.186L813.426 838.7L809.291 835.943L818.022 830.429L820.319 833.186ZM848.809 823.076V819.86L854.783 814.805L866.271 810.21L871.785 812.967L860.297 819.4L853.404 819.86L848.809 823.076ZM746.796 798.262L742.661 804.236L736.687 801.02L738.525 795.505L743.58 792.748L746.796 798.262ZM763.339 805.615L758.284 808.372L751.851 798.262L760.582 789.072L764.718 792.289L765.177 800.56L763.339 805.615ZM788.153 765.177L790.91 757.825L798.262 757.366V762.42L788.153 765.177ZM688.438 761.961L683.842 760.123L685.681 754.608L690.735 756.906L688.438 761.961ZM833.645 744.959L846.512 748.175L843.295 752.77L835.943 756.906L828.131 752.77L822.617 747.256L833.645 744.959ZM481.195 745.418L483.034 750.932L477.979 755.527L470.627 750.013L465.112 741.742L469.248 736.687L473.384 742.202L481.195 745.418ZM725.199 748.635L718.766 748.175L707.737 738.525L711.873 732.092L716.009 737.606L721.983 738.066L725.199 748.635ZM461.896 704.061L463.274 712.333L467.41 713.711L473.384 721.064L472.464 726.578L462.815 722.902L458.22 723.821L453.165 714.631L447.191 715.549L449.948 707.278L456.381 707.738L461.896 704.061ZM787.234 715.549L782.179 719.685L773.908 711.873L780.341 705.9L770.691 694.871L770.232 690.276L779.882 687.978L785.855 692.114L788.613 697.628L790.45 709.576L787.234 715.549ZM464.653 687.519L458.679 687.978L456.841 683.843L460.517 672.814L465.572 674.193L466.491 685.681L464.653 687.519ZM623.646 662.705L627.782 670.517L653.055 682.005L665.921 683.383L673.733 695.331L672.814 698.088L679.707 715.549L684.762 719.685L697.169 721.064L699.007 729.795L694.871 733.471L686.14 730.254L676.49 722.902L674.652 716.928L664.543 703.602L648 702.683L641.107 699.466L638.35 691.655L631.458 687.519L622.267 678.788L615.375 673.733L601.589 668.679L598.832 665.462L607.563 659.488L617.212 657.191L623.646 662.705ZM797.803 636.053L797.343 640.189L806.074 647.081L809.291 651.677L803.777 661.326L785.396 657.65L781.72 653.974L789.072 648.001L784.936 645.703L779.422 652.596L769.313 649.379L765.177 645.243L768.394 638.81L775.286 639.27L783.098 635.594V632.836L793.667 631.917L797.803 636.053ZM424.215 628.701L418.242 630.079L412.727 626.403L407.213 617.672L397.104 607.563L400.32 602.508L407.673 600.67L414.106 606.184L409.051 611.699L412.727 614.915L416.863 625.943L424.215 628.701ZM735.768 589.182L732.551 595.615L732.092 601.589L714.63 598.372L713.252 587.804L723.361 587.344L727.037 591.02L731.632 586.885L735.768 589.182ZM746.796 557.476L740.363 559.313L732.551 553.34L738.984 551.042L746.796 557.476ZM692.114 543.69L684.762 546.447L676.49 541.392L681.545 530.824L687.519 531.283L692.114 537.257V543.69ZM765.177 535.878L762.879 532.662L753.23 527.147L732.092 524.39L721.523 520.255L717.387 521.174L708.197 516.578L702.683 518.417L691.195 526.228L684.302 525.309L676.95 520.714L666.84 522.552L659.029 531.283L650.757 535.878L642.486 534.04H631.917L630.998 539.095L640.188 548.745L637.891 553.34L640.188 557.935L649.838 558.395L661.326 564.368L658.11 567.585L643.405 562.071L637.891 561.611L632.377 567.125L648.46 579.532L650.757 585.966L648 590.101L641.107 586.425L629.619 571.721L615.375 568.964L613.536 571.721L619.051 582.749L632.377 590.561L629.619 593.318L615.834 588.723L610.779 581.371L608.941 572.18L583.668 559.313L577.235 546.447L567.125 552.421L568.963 561.611L566.206 579.073L568.044 585.047L584.127 602.049L590.101 614.456L602.048 624.106L613.996 638.81L617.212 647.081L611.239 652.136L605.265 649.838L606.644 641.108L596.534 635.594L587.803 641.108L594.696 651.677L596.994 657.191L595.156 663.165L587.803 666.841L575.856 667.3L586.884 673.733L602.048 678.329L609.401 683.383L616.294 683.843L624.105 693.493L636.053 696.25L643.865 705.9L653.055 708.197L660.867 711.873L665.462 721.523L666.84 734.849L669.597 744.499L670.057 752.311L665.002 754.608L659.029 747.256L639.729 730.714L635.134 728.875L630.539 732.092L617.212 734.39L608.482 740.363L615.375 746.337L615.834 751.851L619.51 758.744L628.7 760.582L637.891 771.611L624.105 776.206L619.051 779.422L615.375 777.125L614.455 771.611L594.696 761.501L591.939 764.258L595.156 775.287L601.129 782.639L611.239 802.398L617.212 819.4L616.294 829.05L620.889 835.943L621.348 842.836L613.536 837.321L603.427 825.833L599.751 818.941L589.641 819.4L583.668 834.564L584.587 843.295L577.235 838.24L576.316 824.915L566.666 812.048L562.53 810.21L556.556 801.479L549.664 804.236L549.204 817.562L547.366 822.157L537.257 813.427L526.688 797.344L525.769 789.072L532.202 781.261L530.823 775.746L523.471 764.258L513.821 757.366L508.307 755.068L505.09 747.716L495.9 741.742V737.147L505.09 729.335L509.686 717.388L518.416 719.685L524.85 718.766L534.04 707.738L541.392 708.197L559.313 717.847L578.613 723.361L588.263 727.956L593.777 733.011L601.129 734.39L598.832 727.956L602.508 726.118H612.158L613.077 718.766L603.887 716.009L600.21 716.928L589.182 710.495L578.613 706.819L568.504 699.926L562.989 705.9H557.475L541.852 701.764L532.202 704.98L512.902 708.197L507.847 702.224L495.9 706.819L491.305 703.602L482.574 684.302L474.762 675.572L469.248 673.274L468.329 664.543L475.222 663.624L486.25 667.76L490.386 665.002L487.629 657.65L476.141 656.731L467.869 659.029L455.003 648.919L448.11 641.108L438.001 636.053L430.189 620.43L418.242 608.482L430.649 612.618L433.865 609.401L435.244 602.508L439.379 599.292L434.784 589.182L442.596 583.208L451.327 581.83L454.084 579.532L455.463 570.342L460.977 556.097L468.788 552.421L472.464 540.473L467.41 532.202V527.147L488.548 525.769L492.683 523.012L503.252 525.769L514.281 519.795L522.093 508.307L525.769 506.929L539.554 505.091L554.718 507.848L568.044 503.253L568.963 493.603L578.153 492.224L591.939 493.143L596.534 488.548L607.563 487.629L619.51 488.548L633.296 483.493L642.026 482.574L642.946 478.439L662.245 478.898L669.597 476.6L675.112 484.412L686.14 490.846L690.276 488.088L707.278 493.603L715.09 498.657L730.713 494.522L745.418 492.683L753.689 494.062L765.177 488.548L766.096 484.872L761.96 472.465L758.744 467.87L766.096 462.815L773.448 465.112L778.963 466.491L789.531 473.384L793.667 487.629L778.043 499.117L780.341 519.336L768.853 534.04L765.177 535.878Z" fill="black" fill-opacity="0.2" stroke="white" stroke-width="2" stroke-linecap="round" stroke-linejoin="round"/>
<path d="M204.107 373.669L214.675 375.506L209.621 379.642L204.107 373.669ZM263.384 380.561L270.737 380.102L273.494 384.237L301.984 401.699L309.796 404.916L315.31 413.647L293.253 399.401L273.034 387.914L258.789 384.697L239.03 375.506L236.732 371.371L263.384 380.561ZM234.435 364.478L230.758 364.938L205.026 364.478L197.214 363.1L194.916 357.126L203.187 358.045L205.485 360.802L234.435 364.478ZM210.08 353.909L200.89 354.369L188.943 350.693L190.321 345.638L212.378 348.395L210.08 353.909ZM112.662 278.089L111.284 279.927L96.12 267.52L94.7415 258.789L107.608 271.196L112.662 278.089ZM90.1463 248.22L81.4154 247.301L85.0915 242.247L90.1463 248.22ZM70.8465 255.113L66.7108 254.654L58.8989 235.354L60.7371 229.84L57.061 220.649L61.1965 219.271L63.4941 228.921L68.0893 233.056L67.6299 240.409L70.8465 255.113ZM87.8487 232.597L80.956 233.975L76.3608 229.38L70.3868 228.461L65.7917 223.866L70.3868 220.649L72.6844 215.135L87.8487 232.597ZM315.31 165.048L312.093 171.94L319.445 184.347L320.364 191.7L326.338 193.538L324.5 202.728L330.014 207.323L343.8 211.918L347.935 218.811L337.367 219.271L329.555 221.109L332.771 233.056L328.176 240.409L318.067 239.49L312.093 229.38L307.038 225.704L296.929 224.785L284.981 221.568L276.71 222.487L268.439 221.109L258.33 225.704L250.977 219.73L243.165 222.487L230.299 219.271L218.811 218.811L206.404 211.459L199.511 216.973L184.807 215.595L172.4 230.299L164.128 225.704L156.317 217.433L148.045 215.595L142.531 218.352L141.153 241.328L141.612 247.761L150.343 253.735L165.967 268.439L171.94 286.82L182.509 297.848L195.376 308.417L203.187 317.607L226.163 336.448L237.192 341.502L239.03 351.612L245.922 358.964L259.708 370.452L258.33 377.804L242.246 364.938L230.299 358.045L216.054 345.178L198.592 340.124L186.185 334.61L171.021 337.367L162.75 336.448L159.533 326.338L132.881 308.417L113.122 290.036L109.446 284.063L123.691 278.548L117.258 274.872L99.3367 259.249L93.8224 251.897L93.3627 233.056L89.6866 225.244L76.3608 215.135L71.3059 210.08L61.6562 206.864L55.2228 210.999L53.8443 219.73L40.0588 242.706H34.0852L19.8399 223.406L17.5424 214.676L11.5687 196.754L14.7854 194.457L17.083 197.214L32.247 200.89L38.6803 194.916L43.7349 197.214L60.2777 196.754L63.0347 195.376L68.5489 185.267L80.4963 194.916L87.389 198.133L93.3627 195.835L102.553 199.052L109.905 199.971L115.42 198.133L111.743 187.564L114.96 184.347L110.365 179.293L120.015 174.698L129.665 171.94L131.503 166.886L130.584 156.776L126.448 152.641L128.286 146.208L148.505 138.396L151.721 133.801H160.912V125.989L165.048 122.313L176.535 125.07L189.861 130.584L197.673 136.098L201.809 142.072L214.216 150.343L224.325 160.452L230.299 163.669L241.787 166.426L247.761 172.4L262.925 176.536L285.441 177.455L296.929 173.319L301.984 166.886L315.31 165.048Z" fill="black" fill-opacity="0.2" stroke="white" stroke-width="2" stroke-linecap="round" stroke-linejoin="round"/>
<path d="M537.716 422.377L552.88 437.082L568.504 445.353L576.316 460.517L580.451 465.112L578.153 472.924V492.224L568.963 493.603L568.044 503.253L554.718 507.848L539.554 505.09L525.769 506.929L522.093 508.307L514.281 519.795L503.252 525.769L492.683 523.012L488.548 525.769L467.41 527.147L461.436 522.093L454.084 523.012L448.11 511.983L442.596 506.929L437.082 496.819L436.163 488.088L432.946 478.898L436.622 475.222L435.244 465.572L437.541 453.624L445.353 455.003L447.651 451.327L448.57 439.38L464.193 432.487L468.788 432.027L476.141 437.541L483.034 428.811L492.683 426.972L502.793 425.594L511.983 421.458L520.714 422.837L531.283 419.161L537.716 422.377Z" fill="black" fill-opacity="0.2" stroke="white" stroke-width="2" stroke-linecap="round" stroke-linejoin="round"/>
<path d="M347.476 335.529L349.314 341.043L361.262 348.855L369.992 358.045L383.778 365.397L393.428 367.695L417.782 381.021L418.242 385.616L410.89 387.454L409.97 390.671L400.78 392.509L404.916 399.402L403.997 405.375L388.373 410.889L384.697 401.24L379.642 399.861L364.938 424.216L361.262 425.594L349.774 424.675L357.126 433.406L364.938 437.082L366.316 439.839V454.084L356.667 448.57L352.531 440.299L338.286 426.973L322.203 417.782L322.662 413.187L315.31 413.647L309.796 404.916L314.85 400.321L315.31 396.645L310.255 389.292L307.498 375.507L309.796 372.29L317.608 371.371L317.148 364.478L319.445 356.666L328.636 348.855L339.205 347.936L332.772 337.826L347.476 335.529Z" fill="black" fill-opacity="0.2" stroke="white" stroke-width="2" stroke-linecap="round" stroke-linejoin="round"/>
<path d="M848.35 199.052L855.243 206.404L863.514 210.54L881.895 214.676L884.652 209.161L888.787 210.54L896.14 208.242L906.249 202.269L916.358 201.35L926.468 204.566L935.199 212.837L934.279 232.597L931.063 242.247L902.573 248.22L904.411 245.463L901.194 236.273L896.599 231.678L892.464 236.732L895.22 244.544L892.004 250.977L891.085 262.006L893.842 266.141L886.49 275.332L884.192 281.306L887.868 303.362L886.03 320.364H876.84L864.892 318.067L854.783 314.85L843.295 302.903L835.483 305.2L831.348 302.443L816.643 300.605L795.965 290.036L782.639 291.874L762.42 296.01L747.716 301.524L732.552 311.174L727.037 318.526L719.685 322.662L709.116 325.419L689.817 324.5L646.622 316.688L635.134 318.986L619.051 317.148L594.696 312.553L576.775 311.174L559.773 313.931L555.637 305.66L563.909 296.47L544.15 284.982L540.473 279.467L533.121 275.332L530.823 267.52L542.311 259.249L528.526 251.896L520.714 254.194L512.902 262.465L506.928 263.384L502.333 257.87L495.441 254.653L479.357 251.437L472.465 245.923L462.815 243.166L463.734 240.409L472.005 236.732L461.436 231.678L468.329 222.487L464.193 217.433L452.246 213.756L434.784 205.026L424.675 196.754L422.837 177.914L419.161 178.833L410.89 169.643L397.563 161.831L389.752 152.641L404.456 148.505L410.89 150.803L422.377 141.612L434.325 142.991L440.298 138.855L447.191 117.258L456.841 110.365L455.922 104.391L463.274 91.9844V86.4703L469.708 79.5775L472.924 68.0896L479.357 61.6562L478.898 53.8445L484.412 49.2493L493.143 38.2209L514.281 33.1662L524.39 22.5972L534.04 18.4616L538.176 12.9475H541.392L553.799 19.8403L566.206 19.3807L597.913 25.8139L614.456 22.5972L619.97 23.9759L639.729 39.1399L649.379 36.8423L653.974 31.3282L669.598 25.3544L708.197 19.8403L713.252 11.1093L714.171 4.6761L731.173 1.00002H740.823L752.311 8.35232L763.799 22.1378L777.584 44.6542L784.477 50.6278L795.965 65.3324L805.615 73.6037L811.589 81.4155L825.374 91.0654L831.807 104.391L838.241 114.96L840.538 128.286L836.402 150.343L836.862 162.291L843.295 185.266L839.16 188.483L848.35 199.052Z" fill="black" fill-opacity="0.2" stroke="white" stroke-width="2" stroke-linecap="round" stroke-linejoin="round"/>
<path d="M389.752 152.641L397.563 161.831L410.889 169.643L419.161 178.833L422.837 177.914L424.675 196.754L434.784 205.026L452.246 213.756L464.193 217.433L468.329 222.487L461.436 231.677L472.005 236.732L463.734 240.408L462.815 243.165L472.465 245.923L479.357 251.437L495.44 254.653L502.333 257.87L506.928 263.384L512.902 262.465L520.714 254.194L528.526 251.896L542.311 259.248L530.823 267.52L533.121 275.332L540.473 279.467L544.149 284.981L540.014 288.198L539.095 296.929L529.445 301.524L527.607 312.093L530.364 323.121L541.392 341.042L554.718 347.935L560.692 355.288L568.044 359.883L566.666 366.316L559.313 374.128L554.259 381.48L545.987 381.94L540.933 384.697V399.861L547.366 413.187L542.311 420.999L537.716 422.377L531.283 419.16L520.714 422.837L511.983 421.458L502.793 425.594L492.683 426.972L489.926 420.999L494.522 416.863L500.036 402.159L500.955 396.644L479.357 391.13V385.156L469.248 379.642L468.329 376.425L457.76 366.776L444.894 360.802L439.839 354.828L432.027 358.964L434.784 366.316L432.946 370.911L425.134 376.885V383.318L418.242 385.616L417.782 381.021L393.428 367.695L383.778 365.397L369.992 358.045L361.262 348.854L349.314 341.042L347.476 335.529L350.693 331.852L362.18 333.231L363.1 323.121L348.395 306.119L350.693 302.443L364.938 302.903L366.316 299.227L351.152 285.901L340.124 280.386L337.826 276.71L338.286 264.763L345.638 252.356L347.936 240.868L341.043 237.192L328.176 240.408L332.772 233.056L329.555 221.109L337.367 219.271L347.936 218.811L343.8 211.918L330.014 207.323L324.5 202.728L326.338 193.538L320.365 191.7L319.445 184.347L312.093 171.94L315.31 165.047L324.96 159.074L332.312 161.371L342.421 156.776L349.314 149.424L353.909 148.045L367.235 149.883L372.29 148.964L385.156 150.343L389.752 152.641Z" fill="black" fill-opacity="0.2" stroke="white" stroke-width="2" stroke-linecap="round" stroke-linejoin="round"/>
<path d="M176.536 125.07L165.048 122.313L160.912 125.989V133.801H151.722L148.505 138.396L128.286 146.208L126.448 152.641L130.584 156.776L131.503 166.886L129.665 171.94L120.015 174.698L110.365 179.293L114.96 184.347L111.744 187.564L115.42 198.133L109.906 199.971L102.553 199.052L93.3628 195.835L87.3892 198.133L80.4964 194.916L68.5491 185.266L63.0348 195.376L60.2778 196.754L43.735 197.214L38.6805 194.916L32.2471 200.89L17.0831 197.214L14.7855 194.457L22.5974 189.402L29.4901 188.943L28.571 182.969L21.6783 176.995L12.9473 171.94L14.7855 162.75L8.81185 161.831L7.43335 157.236L14.7855 147.586L4.21668 144.369L1 137.936L16.164 127.367L17.0831 123.232L40.059 127.367L63.0348 130.584L76.8203 125.07L81.4155 119.096L90.1464 115.879L102.094 114.96L114.96 115.879L125.529 110.825L132.881 109.906L143.91 112.203L144.369 103.472L150.343 99.3367L161.372 99.7963L167.805 114.96L176.536 125.07Z" fill="black" fill-opacity="0.2" stroke="white" stroke-width="2" stroke-linecap="round" stroke-linejoin="round"/>
<path d="M492.683 426.972L483.034 428.811L476.141 437.541L468.789 432.027L464.193 432.487L448.57 439.38L447.651 451.327L445.353 455.003L437.541 453.624L437.082 443.515L430.649 428.811L421.918 422.837L415.485 420.539L406.294 407.213L403.997 405.375L404.916 399.401L400.78 392.509L409.97 390.671L410.889 387.454L418.242 385.616L425.134 383.318V376.885L432.946 370.911L434.784 366.316L432.027 358.964L439.839 354.828L444.894 360.802L457.76 366.776L468.329 376.426L469.248 379.642L479.357 385.157V391.13L500.955 396.644L500.036 402.159L494.522 416.863L489.926 420.999L492.683 426.972Z" fill="black" fill-opacity="0.2" stroke="white" stroke-width="2" stroke-linecap="round" stroke-linejoin="round"/>
</g>
</svg>
