<svg width="336" height="56" viewBox="0 0 336 56" fill="none" xmlns="http://www.w3.org/2000/svg">
<g clip-path="url(#clip0_187_164)">
<mask id="mask0_187_164" style="mask-type:luminance" maskUnits="userSpaceOnUse" x="0" y="0" width="336" height="56">
<path d="M0 -8.20208e-07H335.985V56H0V-8.20208e-07Z" fill="white"/>
</mask>
<g mask="url(#mask0_187_164)">
<path d="M121.543 26.9076C121.543 14.5526 119.317 12.7379 110.358 12.7379C101.398 12.7379 99.1728 14.5526 99.1728 26.9076C99.1728 39.2054 101.398 41.426 110.358 41.426C119.317 41.426 121.543 39.2054 121.543 26.9076ZM129.738 26.7933C129.738 43.6566 123.301 48.3989 110.358 48.3989C97.3581 48.3989 90.9153 43.6566 90.9153 26.7933C90.9153 10.2211 97.4152 5.76999 110.358 5.76999C123.301 5.76999 129.738 10.2211 129.738 26.7933Z" fill="white"/>
<path d="M134.247 17.0473H157.553V22.9598H141.507V29.99H153.81V35.6683H141.507V46.8534H134.247V17.0473Z" fill="white"/>
<path d="M162.019 17.0473H185.325V22.9598H169.278V29.99H181.581V35.6683H169.278V46.8534H162.019V17.0473Z" fill="white"/>
<path d="M209.184 5.76731C212.933 5.76731 217.732 6.41216 220.894 7.29108L219.193 14.0821C217.087 13.3228 213.281 12.7978 210.53 12.7978C201.628 12.7978 198.29 14.316 198.29 26.8478C198.29 39.3797 201.628 41.3088 210.53 41.3088C213.281 41.3088 217.087 40.7838 219.193 40.0244L220.894 46.9353C217.732 47.8087 212.933 48.3966 209.184 48.3966C196.241 48.3966 190.032 43.42 190.032 26.7906C190.032 10.0989 196.241 5.76731 209.184 5.76731Z" fill="white"/>
<path d="M232.685 34.2939V46.9454H225.426V17.1394H232.685V28.0904H244.396V17.1394H251.655V46.9454H244.396V34.2939H232.685Z" fill="white"/>
<path d="M271.501 22.9929C270.092 26.4509 268.688 30.3715 267.341 34.412H276.301C274.892 30.2522 273.727 26.4509 272.728 22.9929H271.501ZM278.116 39.7421H265.641C264.824 42.3158 264.123 44.7755 263.535 46.9438H256.037C258.616 38.0415 263.129 26.0402 266.759 17.1379H278.058C280.871 26.6796 284.969 38.9827 288.484 46.9438H280.871C279.993 44.9524 279.051 42.4356 278.116 39.7421Z" fill="white"/>
<path d="M300.153 46.9454H292.894V17.1396H300.153V46.9454Z" fill="white"/>
<path d="M324.182 17.1378H331.441V46.944H324.182C320.609 40.5586 316.096 33.1798 312.061 28.1461V46.944H304.796V17.1378H311.941C316.096 22.5251 320.609 28.9105 324.182 35.348V17.1378Z" fill="white"/>
<path d="M25.9714 35.1868C25.9296 32.431 26.9385 30.325 28.717 28.5466C34.6656 22.6084 40.6091 16.67 46.5578 10.7317C47.8265 9.46286 49.0849 8.18369 50.3694 6.93049C54.0457 3.34781 59.4693 3.36339 63.104 6.98249C67.9452 11.8028 72.7915 16.618 77.591 21.48C80.0038 23.9186 80.6538 26.8723 79.801 30.1899C79.4007 31.7602 78.5166 33.0133 77.3987 34.1364C72.6043 38.9465 67.8412 43.7877 62.9947 48.5507C60.7016 50.8024 57.9093 51.6446 54.7009 50.9064C52.9745 50.5061 51.5289 49.6688 50.2966 48.4C48.617 46.6841 46.9114 44.9889 45.1955 43.3144C44.9354 43.0596 44.9407 42.9816 45.1903 42.7373C47.8162 40.132 50.4214 37.5112 53.037 34.8957C54.5501 33.3827 56.0789 31.8797 57.5765 30.3458C57.956 29.9556 58.1173 30.0755 58.2941 30.4759C59.1938 32.4674 58.7777 34.3601 57.1138 35.9827C55.7202 37.3396 54.3525 38.723 52.9642 40.0853C52.6627 40.3766 52.6418 40.5792 52.9642 40.8862C53.8274 41.7129 54.6542 42.5762 55.5069 43.4132C56.261 44.1517 57.1604 44.1413 57.9508 43.3561C61.2216 40.101 64.4819 36.8406 67.7424 33.5855C69.1932 32.1346 70.6284 30.6788 72.0947 29.2486C73.3063 28.0683 73.2438 26.9554 71.9284 25.7958C71.1639 25.1198 70.5191 24.3191 69.76 23.6432C68.5015 22.5148 67.3264 21.3084 66.12 20.1227C63.4368 17.4862 60.7381 14.8657 58.0965 12.1826C57.2749 11.3506 56.1778 11.3295 55.3197 12.1878C49.8026 17.7307 44.2596 23.248 38.7163 28.7703C38.0768 29.4043 37.2603 29.8884 36.7248 30.5954C35.4507 32.2698 33.8283 33.5906 32.3932 35.0985C30.9215 36.6481 29.346 38.0938 27.8796 39.638C27.4429 40.0954 27.3077 39.8563 27.1308 39.5185C26.3769 38.1039 25.8674 36.6221 25.9714 35.1868Z" fill="white"/>
<path d="M43.7781 39.0159C40.5437 42.292 37.2833 45.542 34.0022 48.7711C32.6501 50.1075 30.9913 50.8199 29.0883 51.0537C25.7447 51.4595 23.181 50.123 20.9036 47.7988C16.8735 43.6755 12.698 39.6869 8.69408 35.5424C7.56061 34.3727 6.21897 33.3534 5.48561 31.7883C4.51336 29.7136 4.28969 27.6026 4.83572 25.3975C5.25163 23.7233 6.17728 22.3503 7.3994 21.1388C10.8573 17.7068 14.2632 14.2279 17.7472 10.8219C19.3487 9.25165 20.7943 7.50976 22.5728 6.12131C24.4967 4.61861 26.6909 4.08296 29.1299 4.36391C31.4958 4.63938 33.3157 5.84065 34.9172 7.49938C36.3317 8.96053 37.7878 10.3853 39.2281 11.8205C39.7897 12.3768 39.8 12.3664 39.254 12.9125C35.2607 16.9113 31.2669 20.9098 27.2682 24.9088C26.6703 25.5066 26.6546 25.5015 26.3063 24.6954C25.5834 23.0213 25.9682 21.0505 27.2786 19.7504C28.7606 18.2736 30.2426 16.7864 31.7402 15.3201C32.0314 15.034 32.0522 14.8468 31.7453 14.5557C30.9343 13.786 30.1126 13.0217 29.3639 12.1846C28.537 11.2643 27.4035 11.3681 26.5923 12.1896C22.531 16.2875 18.4388 20.3536 14.362 24.4357C13.6912 25.1011 13.0568 25.8083 12.3497 26.4324C11.5592 27.129 11.6217 28.2887 12.3705 29.0323C17.1752 33.8265 21.9748 38.621 26.7793 43.4152C27.5179 44.1485 28.4589 44.1328 29.239 43.353C31.7715 40.836 34.2986 38.3038 36.8309 35.7819C37.9071 34.7055 38.9785 33.6344 40.0549 32.5577C45.624 26.9888 51.1983 21.4198 56.7674 15.8503C57.2251 15.3927 57.277 15.4188 57.5994 15.9963C58.3585 17.3844 58.8058 18.8405 58.7174 20.286C58.7798 23.1617 57.5839 25.3092 55.6806 27.1758C52.5502 30.2386 49.4565 33.3534 46.3571 36.4526" fill="white"/>
</g>
</g>
<defs>
<clipPath id="clip0_187_164">
<rect width="335.985" height="56" fill="white"/>
</clipPath>
</defs>
</svg>
