<svg width="3321" height="24" viewBox="0 0 3321 24" fill="none" xmlns="http://www.w3.org/2000/svg">
<path d="M87.5682 21H81.9176V3.54545H87.7472C89.4574 3.54545 90.9261 3.89489 92.1534 4.59375C93.3807 5.28693 94.321 6.28409 94.9744 7.58523C95.6335 8.88068 95.9631 10.4347 95.9631 12.2472C95.9631 14.0653 95.6307 15.6278 94.9659 16.9347C94.3068 18.2415 93.3523 19.2472 92.1023 19.9517C90.8523 20.6506 89.3409 21 87.5682 21ZM84.5511 18.6989H87.4233C88.7528 18.6989 89.858 18.4489 90.7386 17.9489C91.6193 17.4432 92.2784 16.7131 92.7159 15.7585C93.1534 14.7983 93.3722 13.6278 93.3722 12.2472C93.3722 10.8778 93.1534 9.71591 92.7159 8.76136C92.2841 7.80682 91.6392 7.08239 90.7812 6.58807C89.9233 6.09375 88.858 5.84659 87.5852 5.84659H84.5511V18.6989ZM113.638 21V3.54545H124.581V5.8125H116.271V11.1307H124.01V13.3892H116.271V18.733H124.683V21H113.638ZM144.024 3.54545L148.882 17.7614H149.078L153.936 3.54545H156.783L150.502 21H147.459L141.178 3.54545H144.024ZM173.704 21V3.54545H184.647V5.8125H176.337V11.1307H184.076V13.3892H176.337V18.733H184.749V21H173.704ZM202.564 21V3.54545H205.198V18.733H213.107V21H202.564ZM244.994 12.2727C244.994 14.1364 244.653 15.7386 243.971 17.0795C243.289 18.4148 242.354 19.4432 241.167 20.1648C239.985 20.8807 238.641 21.2386 237.136 21.2386C235.624 21.2386 234.275 20.8807 233.087 20.1648C231.906 19.4432 230.974 18.4119 230.292 17.071C229.61 15.7301 229.269 14.1307 229.269 12.2727C229.269 10.4091 229.61 8.80966 230.292 7.47443C230.974 6.13352 231.906 5.10511 233.087 4.3892C234.275 3.66761 235.624 3.30682 237.136 3.30682C238.641 3.30682 239.985 3.66761 241.167 4.3892C242.354 5.10511 243.289 6.13352 243.971 7.47443C244.653 8.80966 244.994 10.4091 244.994 12.2727ZM242.386 12.2727C242.386 10.8523 242.156 9.65625 241.695 8.68466C241.241 7.70739 240.616 6.96875 239.82 6.46875C239.031 5.96307 238.136 5.71023 237.136 5.71023C236.13 5.71023 235.232 5.96307 234.442 6.46875C233.653 6.96875 233.028 7.70739 232.567 8.68466C232.113 9.65625 231.886 10.8523 231.886 12.2727C231.886 13.6932 232.113 14.892 232.567 15.8693C233.028 16.8409 233.653 17.5795 234.442 18.0852C235.232 18.5852 236.13 18.8352 237.136 18.8352C238.136 18.8352 239.031 18.5852 239.82 18.0852C240.616 17.5795 241.241 16.8409 241.695 15.8693C242.156 14.892 242.386 13.6932 242.386 12.2727ZM262.677 21V3.54545H268.899C270.257 3.54545 271.382 3.79261 272.274 4.28693C273.166 4.78125 273.833 5.45739 274.276 6.31534C274.72 7.16761 274.941 8.12784 274.941 9.19602C274.941 10.2699 274.717 11.2358 274.268 12.0938C273.825 12.946 273.154 13.6222 272.257 14.1222C271.364 14.6165 270.242 14.8636 268.89 14.8636H264.612V12.6307H268.651C269.509 12.6307 270.205 12.483 270.739 12.1875C271.274 11.8864 271.666 11.4773 271.916 10.9602C272.166 10.4432 272.291 9.85511 272.291 9.19602C272.291 8.53693 272.166 7.9517 271.916 7.44034C271.666 6.92898 271.271 6.52841 270.731 6.23864C270.197 5.94886 269.492 5.80398 268.617 5.80398H265.311V21H262.677ZM292.429 21V3.54545H303.372V5.8125H295.062V11.1307H302.801V13.3892H295.062V18.733H303.474V21H292.429ZM321.289 21V3.54545H327.511C328.863 3.54545 329.986 3.77841 330.878 4.24432C331.775 4.71023 332.446 5.35511 332.889 6.17898C333.332 6.99716 333.554 7.94318 333.554 9.01705C333.554 10.0852 333.329 11.0256 332.88 11.8381C332.437 12.6449 331.767 13.2727 330.869 13.7216C329.977 14.1705 328.855 14.3949 327.503 14.3949H322.789V12.1278H327.264C328.116 12.1278 328.809 12.0057 329.343 11.7614C329.883 11.517 330.278 11.1619 330.528 10.696C330.778 10.2301 330.903 9.67045 330.903 9.01705C330.903 8.35795 330.775 7.78693 330.52 7.30398C330.27 6.82102 329.875 6.4517 329.335 6.19602C328.801 5.93466 328.099 5.80398 327.23 5.80398H323.923V21H321.289ZM329.906 13.125L334.218 21H331.218L326.991 13.125H329.906ZM360.678 8.13068C360.587 7.32386 360.212 6.69886 359.553 6.25568C358.894 5.80682 358.064 5.58239 357.064 5.58239C356.349 5.58239 355.729 5.69602 355.207 5.92329C354.684 6.14489 354.278 6.4517 353.988 6.84375C353.704 7.23011 353.562 7.67045 353.562 8.16477C353.562 8.57955 353.658 8.9375 353.851 9.23864C354.05 9.53977 354.309 9.79261 354.627 9.99716C354.951 10.196 355.297 10.3636 355.667 10.5C356.036 10.6307 356.391 10.7386 356.732 10.8239L358.437 11.267C358.993 11.4034 359.564 11.5881 360.15 11.821C360.735 12.054 361.278 12.3608 361.778 12.7415C362.278 13.1222 362.681 13.5938 362.988 14.1562C363.3 14.7188 363.457 15.392 363.457 16.1761C363.457 17.1648 363.201 18.0426 362.689 18.8097C362.184 19.5767 361.448 20.1818 360.482 20.625C359.522 21.0682 358.36 21.2898 356.996 21.2898C355.689 21.2898 354.559 21.0824 353.604 20.6676C352.65 20.2528 351.903 19.6648 351.363 18.9034C350.823 18.1364 350.525 17.2273 350.468 16.1761H353.11C353.161 16.8068 353.366 17.3324 353.724 17.7528C354.087 18.1676 354.55 18.4773 355.113 18.6818C355.681 18.8807 356.303 18.9801 356.979 18.9801C357.724 18.9801 358.386 18.8636 358.965 18.6307C359.55 18.392 360.011 18.0625 360.346 17.642C360.681 17.2159 360.849 16.7187 360.849 16.1506C360.849 15.6335 360.701 15.2102 360.405 14.8807C360.116 14.5511 359.721 14.2784 359.221 14.0625C358.726 13.8466 358.167 13.6562 357.542 13.4915L355.479 12.929C354.082 12.5483 352.974 11.9886 352.155 11.25C351.343 10.5114 350.937 9.53409 350.937 8.31818C350.937 7.3125 351.209 6.43466 351.755 5.68466C352.3 4.93466 353.039 4.35227 353.971 3.9375C354.903 3.51705 355.954 3.30682 357.124 3.30682C358.306 3.30682 359.349 3.5142 360.252 3.92898C361.161 4.34375 361.877 4.91477 362.4 5.64204C362.922 6.36364 363.195 7.19318 363.218 8.13068H360.678Z" fill="white"/>
<path fill-rule="evenodd" clip-rule="evenodd" d="M449.935 12L445 9.14871L448.637 2.8513L453.574 5.69765L453.577 0H460.851L460.854 5.69765L465.792 2.8513L469.429 9.14871L464.494 12L469.429 14.8513L465.792 21.1487L460.854 18.3024L460.851 24H453.577L453.574 18.3024L448.637 21.1487L445 14.8513L449.935 12Z" fill="#FD9A87"/>
<path d="M556.997 21H551.346V3.54545H557.176C558.886 3.54545 560.355 3.89489 561.582 4.59375C562.809 5.28693 563.75 6.28409 564.403 7.58523C565.062 8.88068 565.392 10.4347 565.392 12.2472C565.392 14.0653 565.059 15.6278 564.395 16.9347C563.736 18.2415 562.781 19.2472 561.531 19.9517C560.281 20.6506 558.77 21 556.997 21ZM553.98 18.6989H556.852C558.182 18.6989 559.287 18.4489 560.167 17.9489C561.048 17.4432 561.707 16.7131 562.145 15.7585C562.582 14.7983 562.801 13.6278 562.801 12.2472C562.801 10.8778 562.582 9.71591 562.145 8.76136C561.713 7.80682 561.068 7.08239 560.21 6.58807C559.352 6.09375 558.287 5.84659 557.014 5.84659H553.98V18.6989ZM583.067 21V3.54545H594.01V5.8125H585.7V11.1307H593.439V13.3892H585.7V18.733H594.112V21H583.067ZM621.447 8.13068C621.357 7.32386 620.982 6.69886 620.322 6.25568C619.663 5.80682 618.834 5.58239 617.834 5.58239C617.118 5.58239 616.499 5.69602 615.976 5.92329C615.453 6.14489 615.047 6.4517 614.757 6.84375C614.473 7.23011 614.331 7.67045 614.331 8.16477C614.331 8.57955 614.428 8.9375 614.621 9.23864C614.82 9.53977 615.078 9.79261 615.396 9.99716C615.72 10.196 616.067 10.3636 616.436 10.5C616.805 10.6307 617.161 10.7386 617.501 10.8239L619.206 11.267C619.763 11.4034 620.334 11.5881 620.919 11.821C621.504 12.054 622.047 12.3608 622.547 12.7415C623.047 13.1222 623.45 13.5938 623.757 14.1562C624.07 14.7188 624.226 15.392 624.226 16.1761C624.226 17.1648 623.97 18.0426 623.459 18.8097C622.953 19.5767 622.217 20.1818 621.251 20.625C620.291 21.0682 619.129 21.2898 617.766 21.2898C616.459 21.2898 615.328 21.0824 614.374 20.6676C613.419 20.2528 612.672 19.6648 612.132 18.9034C611.592 18.1364 611.294 17.2273 611.237 16.1761H613.879C613.93 16.8068 614.135 17.3324 614.493 17.7528C614.857 18.1676 615.32 18.4773 615.882 18.6818C616.45 18.8807 617.072 18.9801 617.749 18.9801C618.493 18.9801 619.155 18.8636 619.734 18.6307C620.32 18.392 620.78 18.0625 621.115 17.642C621.45 17.2159 621.618 16.7187 621.618 16.1506C621.618 15.6335 621.47 15.2102 621.175 14.8807C620.885 14.5511 620.49 14.2784 619.99 14.0625C619.496 13.8466 618.936 13.6562 618.311 13.4915L616.249 12.929C614.851 12.5483 613.743 11.9886 612.925 11.25C612.112 10.5114 611.706 9.53409 611.706 8.31818C611.706 7.3125 611.979 6.43466 612.524 5.68466C613.07 4.93466 613.808 4.35227 614.74 3.9375C615.672 3.51705 616.723 3.30682 617.893 3.30682C619.075 3.30682 620.118 3.5142 621.021 3.92898C621.93 4.34375 622.646 4.91477 623.169 5.64204C623.692 6.36364 623.965 7.19318 623.987 8.13068H621.447ZM644.406 3.54545V21H641.773V3.54545H644.406ZM674.454 9.05966C674.289 8.54261 674.068 8.07955 673.789 7.67045C673.517 7.25568 673.19 6.90341 672.809 6.61364C672.429 6.31818 671.994 6.09375 671.505 5.94034C671.022 5.78693 670.491 5.71023 669.912 5.71023C668.929 5.71023 668.042 5.96307 667.252 6.46875C666.463 6.97443 665.838 7.71591 665.377 8.69318C664.923 9.66477 664.696 10.8551 664.696 12.2642C664.696 13.679 664.926 14.875 665.386 15.8523C665.846 16.8295 666.477 17.571 667.278 18.0767C668.079 18.5824 668.991 18.8352 670.014 18.8352C670.963 18.8352 671.789 18.642 672.494 18.2557C673.204 17.8693 673.752 17.3239 674.139 16.6193C674.531 15.9091 674.727 15.0739 674.727 14.1136L675.409 14.2415H670.414V12.0682H677.275V14.054C677.275 15.5199 676.963 16.7926 676.338 17.8722C675.718 18.946 674.86 19.7756 673.764 20.3608C672.673 20.946 671.423 21.2386 670.014 21.2386C668.434 21.2386 667.048 20.875 665.855 20.1477C664.667 19.4205 663.741 18.3892 663.076 17.054C662.412 15.7131 662.079 14.1222 662.079 12.2812C662.079 10.8892 662.272 9.6392 662.659 8.53125C663.045 7.4233 663.588 6.48295 664.287 5.71023C664.991 4.93182 665.818 4.33807 666.767 3.92898C667.721 3.5142 668.764 3.30682 669.894 3.30682C670.838 3.30682 671.715 3.44602 672.528 3.72443C673.346 4.00284 674.073 4.39773 674.71 4.90909C675.352 5.42045 675.883 6.02841 676.304 6.73295C676.724 7.43182 677.008 8.20739 677.156 9.05966H674.454ZM709.106 3.54545V21H706.686L697.814 8.19886H697.652V21H695.018V3.54545H697.456L706.336 16.3636H706.498V3.54545H709.106ZM727.348 21V3.54545H738.291V5.8125H729.981V11.1307H737.72V13.3892H729.981V18.733H738.393V21H727.348ZM756.209 21V3.54545H762.43C763.783 3.54545 764.905 3.77841 765.797 4.24432C766.695 4.71023 767.365 5.35511 767.808 6.17898C768.251 6.99716 768.473 7.94318 768.473 9.01705C768.473 10.0852 768.249 11.0256 767.8 11.8381C767.357 12.6449 766.686 13.2727 765.788 13.7216C764.896 14.1705 763.774 14.3949 762.422 14.3949H757.709V12.1278H762.183C763.036 12.1278 763.729 12.0057 764.263 11.7614C764.803 11.517 765.197 11.1619 765.447 10.696C765.697 10.2301 765.822 9.67045 765.822 9.01705C765.822 8.35795 765.695 7.78693 765.439 7.30398C765.189 6.82102 764.794 6.4517 764.254 6.19602C763.72 5.93466 763.018 5.80398 762.149 5.80398H758.842V21H756.209ZM764.825 13.125L769.138 21H766.138L761.911 13.125H764.825ZM795.597 8.13068C795.507 7.32386 795.132 6.69886 794.472 6.25568C793.813 5.80682 792.984 5.58239 791.984 5.58239C791.268 5.58239 790.649 5.69602 790.126 5.92329C789.603 6.14489 789.197 6.4517 788.907 6.84375C788.623 7.23011 788.481 7.67045 788.481 8.16477C788.481 8.57955 788.578 8.9375 788.771 9.23864C788.97 9.53977 789.228 9.79261 789.546 9.99716C789.87 10.196 790.217 10.3636 790.586 10.5C790.955 10.6307 791.311 10.7386 791.651 10.8239L793.356 11.267C793.913 11.4034 794.484 11.5881 795.069 11.821C795.654 12.054 796.197 12.3608 796.697 12.7415C797.197 13.1222 797.6 13.5938 797.907 14.1562C798.22 14.7188 798.376 15.392 798.376 16.1761C798.376 17.1648 798.12 18.0426 797.609 18.8097C797.103 19.5767 796.367 20.1818 795.401 20.625C794.441 21.0682 793.279 21.2898 791.916 21.2898C790.609 21.2898 789.478 21.0824 788.524 20.6676C787.569 20.2528 786.822 19.6648 786.282 18.9034C785.742 18.1364 785.444 17.2273 785.387 16.1761H788.029C788.08 16.8068 788.285 17.3324 788.643 17.7528C789.007 18.1676 789.47 18.4773 790.032 18.6818C790.6 18.8807 791.222 18.9801 791.899 18.9801C792.643 18.9801 793.305 18.8636 793.884 18.6307C794.47 18.392 794.93 18.0625 795.265 17.642C795.6 17.2159 795.768 16.7187 795.768 16.1506C795.768 15.6335 795.62 15.2102 795.325 14.8807C795.035 14.5511 794.64 14.2784 794.14 14.0625C793.646 13.8466 793.086 13.6562 792.461 13.4915L790.399 12.929C789.001 12.5483 787.893 11.9886 787.075 11.25C786.262 10.5114 785.856 9.53409 785.856 8.31818C785.856 7.3125 786.129 6.43466 786.674 5.68466C787.22 4.93466 787.958 4.35227 788.89 3.9375C789.822 3.51705 790.873 3.30682 792.043 3.30682C793.225 3.30682 794.268 3.5142 795.171 3.92898C796.08 4.34375 796.796 4.91477 797.319 5.64204C797.842 6.36364 798.115 7.19318 798.137 8.13068H795.597Z" fill="white"/>
<path fill-rule="evenodd" clip-rule="evenodd" d="M885.363 12L880.429 9.14871L884.066 2.8513L889.003 5.69765L889.006 0H896.28L896.283 5.69765L901.22 2.8513L904.857 9.14871L899.923 12L904.857 14.8513L901.22 21.1487L896.283 18.3024L896.28 24H889.006L889.003 18.3024L884.066 21.1487L880.429 14.8513L885.363 12Z" fill="#FD9A87"/>
<path d="M988.249 21H985.454L991.735 3.54545H994.778L1001.06 21H998.263L993.329 6.71591H993.192L988.249 21ZM988.718 14.1648H997.786V16.3807H988.718V14.1648ZM1017.98 21V3.54545H1024.2C1025.55 3.54545 1026.68 3.77841 1027.57 4.24432C1028.47 4.71023 1029.14 5.35511 1029.58 6.17898C1030.02 6.99716 1030.24 7.94318 1030.24 9.01705C1030.24 10.0852 1030.02 11.0256 1029.57 11.8381C1029.13 12.6449 1028.46 13.2727 1027.56 13.7216C1026.67 14.1705 1025.54 14.3949 1024.19 14.3949H1019.48V12.1278H1023.95C1024.81 12.1278 1025.5 12.0057 1026.03 11.7614C1026.57 11.517 1026.97 11.1619 1027.22 10.696C1027.47 10.2301 1027.59 9.67045 1027.59 9.01705C1027.59 8.35795 1027.47 7.78693 1027.21 7.30398C1026.96 6.82102 1026.56 6.4517 1026.02 6.19602C1025.49 5.93466 1024.79 5.80398 1023.92 5.80398H1020.61V21H1017.98ZM1026.6 13.125L1030.91 21H1027.91L1023.68 13.125H1026.6ZM1046.99 5.8125V3.54545H1060.5V5.8125H1055.05V21H1052.42V5.8125H1046.99ZM1080.51 3.54545V21H1077.88V3.54545H1080.51ZM1108.27 8.13068C1108.18 7.32386 1107.8 6.69886 1107.14 6.25568C1106.49 5.80682 1105.66 5.58239 1104.66 5.58239C1103.94 5.58239 1103.32 5.69602 1102.8 5.92329C1102.28 6.14489 1101.87 6.4517 1101.58 6.84375C1101.3 7.23011 1101.15 7.67045 1101.15 8.16477C1101.15 8.57955 1101.25 8.9375 1101.44 9.23864C1101.64 9.53977 1101.9 9.79261 1102.22 9.99716C1102.54 10.196 1102.89 10.3636 1103.26 10.5C1103.63 10.6307 1103.98 10.7386 1104.32 10.8239L1106.03 11.267C1106.59 11.4034 1107.16 11.5881 1107.74 11.821C1108.33 12.054 1108.87 12.3608 1109.37 12.7415C1109.87 13.1222 1110.27 13.5938 1110.58 14.1562C1110.89 14.7188 1111.05 15.392 1111.05 16.1761C1111.05 17.1648 1110.79 18.0426 1110.28 18.8097C1109.78 19.5767 1109.04 20.1818 1108.07 20.625C1107.11 21.0682 1105.95 21.2898 1104.59 21.2898C1103.28 21.2898 1102.15 21.0824 1101.2 20.6676C1100.24 20.2528 1099.49 19.6648 1098.95 18.9034C1098.41 18.1364 1098.12 17.2273 1098.06 16.1761H1100.7C1100.75 16.8068 1100.96 17.3324 1101.32 17.7528C1101.68 18.1676 1102.14 18.4773 1102.7 18.6818C1103.27 18.8807 1103.89 18.9801 1104.57 18.9801C1105.32 18.9801 1105.98 18.8636 1106.56 18.6307C1107.14 18.392 1107.6 18.0625 1107.94 17.642C1108.27 17.2159 1108.44 16.7187 1108.44 16.1506C1108.44 15.6335 1108.29 15.2102 1108 14.8807C1107.71 14.5511 1107.31 14.2784 1106.81 14.0625C1106.32 13.8466 1105.76 13.6562 1105.13 13.4915L1103.07 12.929C1101.67 12.5483 1100.57 11.9886 1099.75 11.25C1098.93 10.5114 1098.53 9.53409 1098.53 8.31818C1098.53 7.3125 1098.8 6.43466 1099.35 5.68466C1099.89 4.93466 1100.63 4.35227 1101.56 3.9375C1102.49 3.51705 1103.55 3.30682 1104.72 3.30682C1105.9 3.30682 1106.94 3.5142 1107.84 3.92898C1108.75 4.34375 1109.47 4.91477 1109.99 5.64204C1110.51 6.36364 1110.79 7.19318 1110.81 8.13068H1108.27ZM1127.73 5.8125V3.54545H1141.24V5.8125H1135.8V21H1133.17V5.8125H1127.73ZM1168.15 8.13068C1168.06 7.32386 1167.68 6.69886 1167.02 6.25568C1166.36 5.80682 1165.53 5.58239 1164.53 5.58239C1163.82 5.58239 1163.2 5.69602 1162.68 5.92329C1162.15 6.14489 1161.75 6.4517 1161.46 6.84375C1161.17 7.23011 1161.03 7.67045 1161.03 8.16477C1161.03 8.57955 1161.13 8.9375 1161.32 9.23864C1161.52 9.53977 1161.78 9.79261 1162.1 9.99716C1162.42 10.196 1162.77 10.3636 1163.14 10.5C1163.51 10.6307 1163.86 10.7386 1164.2 10.8239L1165.91 11.267C1166.46 11.4034 1167.03 11.5881 1167.62 11.821C1168.2 12.054 1168.75 12.3608 1169.25 12.7415C1169.75 13.1222 1170.15 13.5938 1170.46 14.1562C1170.77 14.7188 1170.93 15.392 1170.93 16.1761C1170.93 17.1648 1170.67 18.0426 1170.16 18.8097C1169.65 19.5767 1168.92 20.1818 1167.95 20.625C1166.99 21.0682 1165.83 21.2898 1164.47 21.2898C1163.16 21.2898 1162.03 21.0824 1161.07 20.6676C1160.12 20.2528 1159.37 19.6648 1158.83 18.9034C1158.29 18.1364 1157.99 17.2273 1157.94 16.1761H1160.58C1160.63 16.8068 1160.84 17.3324 1161.19 17.7528C1161.56 18.1676 1162.02 18.4773 1162.58 18.6818C1163.15 18.8807 1163.77 18.9801 1164.45 18.9801C1165.19 18.9801 1165.86 18.8636 1166.43 18.6307C1167.02 18.392 1167.48 18.0625 1167.82 17.642C1168.15 17.2159 1168.32 16.7187 1168.32 16.1506C1168.32 15.6335 1168.17 15.2102 1167.88 14.8807C1167.59 14.5511 1167.19 14.2784 1166.69 14.0625C1166.2 13.8466 1165.64 13.6562 1165.01 13.4915L1162.95 12.929C1161.55 12.5483 1160.44 11.9886 1159.63 11.25C1158.81 10.5114 1158.41 9.53409 1158.41 8.31818C1158.41 7.3125 1158.68 6.43466 1159.22 5.68466C1159.77 4.93466 1160.51 4.35227 1161.44 3.9375C1162.37 3.51705 1163.42 3.30682 1164.59 3.30682C1165.78 3.30682 1166.82 3.5142 1167.72 3.92898C1168.63 4.34375 1169.35 4.91477 1169.87 5.64204C1170.39 6.36364 1170.66 7.19318 1170.69 8.13068H1168.15Z" fill="white"/>
<path fill-rule="evenodd" clip-rule="evenodd" d="M1257.79 12L1252.86 9.14871L1256.49 2.8513L1261.43 5.69765L1261.43 0H1268.71L1268.71 5.69765L1273.65 2.8513L1277.29 9.14871L1272.35 12L1277.29 14.8513L1273.65 21.1487L1268.71 18.3024L1268.71 24H1261.43L1261.43 18.3024L1256.49 21.1487L1252.86 14.8513L1257.79 12Z" fill="#FD9A87"/>
<path d="M1362.62 21L1357.78 3.54545H1360.55L1363.95 17.0625H1364.11L1367.65 3.54545H1370.39L1373.93 17.071H1374.09L1377.48 3.54545H1380.26L1375.41 21H1372.76L1369.09 7.92614H1368.95L1365.28 21H1362.62ZM1397.06 21V3.54545H1403.29C1404.64 3.54545 1405.76 3.77841 1406.65 4.24432C1407.55 4.71023 1408.22 5.35511 1408.66 6.17898C1409.11 6.99716 1409.33 7.94318 1409.33 9.01705C1409.33 10.0852 1409.1 11.0256 1408.66 11.8381C1408.21 12.6449 1407.54 13.2727 1406.64 13.7216C1405.75 14.1705 1404.63 14.3949 1403.28 14.3949H1398.56V12.1278H1403.04C1403.89 12.1278 1404.58 12.0057 1405.12 11.7614C1405.66 11.517 1406.05 11.1619 1406.3 10.696C1406.55 10.2301 1406.68 9.67045 1406.68 9.01705C1406.68 8.35795 1406.55 7.78693 1406.29 7.30398C1406.04 6.82102 1405.65 6.4517 1405.11 6.19602C1404.58 5.93466 1403.87 5.80398 1403 5.80398H1399.7V21H1397.06ZM1405.68 13.125L1409.99 21H1406.99L1402.77 13.125H1405.68ZM1429.57 3.54545V21H1426.93V3.54545H1429.57ZM1446.94 5.8125V3.54545H1460.45V5.8125H1455V21H1452.38V5.8125H1446.94ZM1477.83 21V3.54545H1488.78V5.8125H1480.47V11.1307H1488.21V13.3892H1480.47V18.733H1488.88V21H1477.83ZM1506.7 21V3.54545H1512.92C1514.27 3.54545 1515.39 3.77841 1516.28 4.24432C1517.18 4.71023 1517.85 5.35511 1518.3 6.17898C1518.74 6.99716 1518.96 7.94318 1518.96 9.01705C1518.96 10.0852 1518.74 11.0256 1518.29 11.8381C1517.84 12.6449 1517.17 13.2727 1516.28 13.7216C1515.38 14.1705 1514.26 14.3949 1512.91 14.3949H1508.2V12.1278H1512.67C1513.52 12.1278 1514.22 12.0057 1514.75 11.7614C1515.29 11.517 1515.68 11.1619 1515.93 10.696C1516.18 10.2301 1516.31 9.67045 1516.31 9.01705C1516.31 8.35795 1516.18 7.78693 1515.93 7.30398C1515.68 6.82102 1515.28 6.4517 1514.74 6.19602C1514.21 5.93466 1513.51 5.80398 1512.64 5.80398H1509.33V21H1506.7ZM1515.31 13.125L1519.62 21H1516.62L1512.4 13.125H1515.31ZM1546.08 8.13068C1545.99 7.32386 1545.62 6.69886 1544.96 6.25568C1544.3 5.80682 1543.47 5.58239 1542.47 5.58239C1541.75 5.58239 1541.14 5.69602 1540.61 5.92329C1540.09 6.14489 1539.68 6.4517 1539.39 6.84375C1539.11 7.23011 1538.97 7.67045 1538.97 8.16477C1538.97 8.57955 1539.06 8.9375 1539.26 9.23864C1539.46 9.53977 1539.71 9.79261 1540.03 9.99716C1540.36 10.196 1540.7 10.3636 1541.07 10.5C1541.44 10.6307 1541.8 10.7386 1542.14 10.8239L1543.84 11.267C1544.4 11.4034 1544.97 11.5881 1545.56 11.821C1546.14 12.054 1546.68 12.3608 1547.18 12.7415C1547.68 13.1222 1548.09 13.5938 1548.39 14.1562C1548.71 14.7188 1548.86 15.392 1548.86 16.1761C1548.86 17.1648 1548.61 18.0426 1548.1 18.8097C1547.59 19.5767 1546.85 20.1818 1545.89 20.625C1544.93 21.0682 1543.77 21.2898 1542.4 21.2898C1541.1 21.2898 1539.96 21.0824 1539.01 20.6676C1538.06 20.2528 1537.31 19.6648 1536.77 18.9034C1536.23 18.1364 1535.93 17.2273 1535.87 16.1761H1538.52C1538.57 16.8068 1538.77 17.3324 1539.13 17.7528C1539.49 18.1676 1539.96 18.4773 1540.52 18.6818C1541.09 18.8807 1541.71 18.9801 1542.39 18.9801C1543.13 18.9801 1543.79 18.8636 1544.37 18.6307C1544.96 18.392 1545.42 18.0625 1545.75 17.642C1546.09 17.2159 1546.25 16.7187 1546.25 16.1506C1546.25 15.6335 1546.11 15.2102 1545.81 14.8807C1545.52 14.5511 1545.13 14.2784 1544.63 14.0625C1544.13 13.8466 1543.57 13.6562 1542.95 13.4915L1540.89 12.929C1539.49 12.5483 1538.38 11.9886 1537.56 11.25C1536.75 10.5114 1536.34 9.53409 1536.34 8.31818C1536.34 7.3125 1536.62 6.43466 1537.16 5.68466C1537.71 4.93466 1538.44 4.35227 1539.38 3.9375C1540.31 3.51705 1541.36 3.30682 1542.53 3.30682C1543.71 3.30682 1544.75 3.5142 1545.66 3.92898C1546.57 4.34375 1547.28 4.91477 1547.81 5.64204C1548.33 6.36364 1548.6 7.19318 1548.62 8.13068H1546.08Z" fill="white"/>
<path fill-rule="evenodd" clip-rule="evenodd" d="M1635.22 12L1630.29 9.14871L1633.92 2.8513L1638.86 5.69765L1638.86 0H1646.14L1646.14 5.69765L1651.08 2.8513L1654.71 9.14871L1649.78 12L1654.71 14.8513L1651.08 21.1487L1646.14 18.3024L1646.14 24H1638.86L1638.86 18.3024L1633.92 21.1487L1630.29 14.8513L1635.22 12Z" fill="#FD9A87"/>
<path d="M1751.13 9.22159H1748.47C1748.37 8.65341 1748.18 8.15341 1747.9 7.72159C1747.62 7.28977 1747.28 6.9233 1746.88 6.62216C1746.47 6.32102 1746.02 6.09375 1745.52 5.94034C1745.03 5.78693 1744.5 5.71023 1743.94 5.71023C1742.94 5.71023 1742.04 5.96307 1741.24 6.46875C1740.45 6.97443 1739.83 7.71591 1739.37 8.69318C1738.91 9.67045 1738.69 10.8636 1738.69 12.2727C1738.69 13.6932 1738.91 14.892 1739.37 15.8693C1739.83 16.8466 1740.46 17.5852 1741.25 18.0852C1742.05 18.5852 1742.94 18.8352 1743.94 18.8352C1744.49 18.8352 1745.01 18.7614 1745.5 18.6136C1746 18.4602 1746.46 18.2358 1746.86 17.9403C1747.26 17.6449 1747.6 17.2841 1747.88 16.858C1748.17 16.4261 1748.36 15.9318 1748.47 15.375L1751.13 15.3835C1750.99 16.2415 1750.71 17.0312 1750.3 17.7528C1749.9 18.4688 1749.38 19.0881 1748.74 19.6108C1748.11 20.1278 1747.39 20.5284 1746.58 20.8125C1745.77 21.0966 1744.88 21.2386 1743.92 21.2386C1742.41 21.2386 1741.06 20.8807 1739.88 20.1648C1738.7 19.4432 1737.77 18.4119 1737.08 17.071C1736.41 15.7301 1736.07 14.1307 1736.07 12.2727C1736.07 10.4091 1736.41 8.80966 1737.09 7.47443C1737.77 6.13352 1738.71 5.10511 1739.89 4.3892C1741.07 3.66761 1742.41 3.30682 1743.92 3.30682C1744.85 3.30682 1745.71 3.44034 1746.51 3.70739C1747.32 3.96875 1748.04 4.35511 1748.68 4.86648C1749.33 5.37216 1749.86 5.99148 1750.28 6.72443C1750.7 7.4517 1750.98 8.28409 1751.13 9.22159ZM1768.68 21V3.54545H1774.9C1776.25 3.54545 1777.38 3.77841 1778.27 4.24432C1779.17 4.71023 1779.84 5.35511 1780.28 6.17898C1780.72 6.99716 1780.94 7.94318 1780.94 9.01705C1780.94 10.0852 1780.72 11.0256 1780.27 11.8381C1779.83 12.6449 1779.16 13.2727 1778.26 13.7216C1777.37 14.1705 1776.25 14.3949 1774.89 14.3949H1770.18V12.1278H1774.65C1775.51 12.1278 1776.2 12.0057 1776.73 11.7614C1777.27 11.517 1777.67 11.1619 1777.92 10.696C1778.17 10.2301 1778.29 9.67045 1778.29 9.01705C1778.29 8.35795 1778.17 7.78693 1777.91 7.30398C1777.66 6.82102 1777.27 6.4517 1776.73 6.19602C1776.19 5.93466 1775.49 5.80398 1774.62 5.80398H1771.31V21H1768.68ZM1777.3 13.125L1781.61 21H1778.61L1774.38 13.125H1777.3ZM1798.55 21V3.54545H1809.49V5.8125H1801.18V11.1307H1808.92V13.3892H1801.18V18.733H1809.59V21H1798.55ZM1828.88 21H1826.09L1832.37 3.54545H1835.41L1841.69 21H1838.9L1833.96 6.71591H1833.83L1828.88 21ZM1829.35 14.1648H1838.42V16.3807H1829.35V14.1648ZM1855.69 5.8125V3.54545H1869.2V5.8125H1863.75V21H1861.13V5.8125H1855.69ZM1901 12.2727C1901 14.1364 1900.66 15.7386 1899.97 17.0795C1899.29 18.4148 1898.36 19.4432 1897.17 20.1648C1895.99 20.8807 1894.64 21.2386 1893.14 21.2386C1891.63 21.2386 1890.28 20.8807 1889.09 20.1648C1887.91 19.4432 1886.98 18.4119 1886.3 17.071C1885.61 15.7301 1885.27 14.1307 1885.27 12.2727C1885.27 10.4091 1885.61 8.80966 1886.3 7.47443C1886.98 6.13352 1887.91 5.10511 1889.09 4.3892C1890.28 3.66761 1891.63 3.30682 1893.14 3.30682C1894.64 3.30682 1895.99 3.66761 1897.17 4.3892C1898.36 5.10511 1899.29 6.13352 1899.97 7.47443C1900.66 8.80966 1901 10.4091 1901 12.2727ZM1898.39 12.2727C1898.39 10.8523 1898.16 9.65625 1897.7 8.68466C1897.24 7.70739 1896.62 6.96875 1895.82 6.46875C1895.03 5.96307 1894.14 5.71023 1893.14 5.71023C1892.13 5.71023 1891.24 5.96307 1890.45 6.46875C1889.66 6.96875 1889.03 7.70739 1888.57 8.68466C1888.12 9.65625 1887.89 10.8523 1887.89 12.2727C1887.89 13.6932 1888.12 14.892 1888.57 15.8693C1889.03 16.8409 1889.66 17.5795 1890.45 18.0852C1891.24 18.5852 1892.13 18.8352 1893.14 18.8352C1894.14 18.8352 1895.03 18.5852 1895.82 18.0852C1896.62 17.5795 1897.24 16.8409 1897.7 15.8693C1898.16 14.892 1898.39 13.6932 1898.39 12.2727ZM1918.68 21V3.54545H1924.9C1926.25 3.54545 1927.38 3.77841 1928.27 4.24432C1929.17 4.71023 1929.84 5.35511 1930.28 6.17898C1930.72 6.99716 1930.94 7.94318 1930.94 9.01705C1930.94 10.0852 1930.72 11.0256 1930.27 11.8381C1929.83 12.6449 1929.16 13.2727 1928.26 13.7216C1927.37 14.1705 1926.25 14.3949 1924.89 14.3949H1920.18V12.1278H1924.65C1925.51 12.1278 1926.2 12.0057 1926.73 11.7614C1927.27 11.517 1927.67 11.1619 1927.92 10.696C1928.17 10.2301 1928.29 9.67045 1928.29 9.01705C1928.29 8.35795 1928.17 7.78693 1927.91 7.30398C1927.66 6.82102 1927.27 6.4517 1926.73 6.19602C1926.19 5.93466 1925.49 5.80398 1924.62 5.80398H1921.31V21H1918.68ZM1927.3 13.125L1931.61 21H1928.61L1924.38 13.125H1927.3ZM1958.07 8.13068C1957.98 7.32386 1957.6 6.69886 1956.94 6.25568C1956.28 5.80682 1955.46 5.58239 1954.46 5.58239C1953.74 5.58239 1953.12 5.69602 1952.6 5.92329C1952.07 6.14489 1951.67 6.4517 1951.38 6.84375C1951.09 7.23011 1950.95 7.67045 1950.95 8.16477C1950.95 8.57955 1951.05 8.9375 1951.24 9.23864C1951.44 9.53977 1951.7 9.79261 1952.02 9.99716C1952.34 10.196 1952.69 10.3636 1953.06 10.5C1953.43 10.6307 1953.78 10.7386 1954.12 10.8239L1955.83 11.267C1956.38 11.4034 1956.96 11.5881 1957.54 11.821C1958.13 12.054 1958.67 12.3608 1959.17 12.7415C1959.67 13.1222 1960.07 13.5938 1960.38 14.1562C1960.69 14.7188 1960.85 15.392 1960.85 16.1761C1960.85 17.1648 1960.59 18.0426 1960.08 18.8097C1959.57 19.5767 1958.84 20.1818 1957.87 20.625C1956.91 21.0682 1955.75 21.2898 1954.39 21.2898C1953.08 21.2898 1951.95 21.0824 1951 20.6676C1950.04 20.2528 1949.29 19.6648 1948.75 18.9034C1948.21 18.1364 1947.92 17.2273 1947.86 16.1761H1950.5C1950.55 16.8068 1950.76 17.3324 1951.11 17.7528C1951.48 18.1676 1951.94 18.4773 1952.5 18.6818C1953.07 18.8807 1953.69 18.9801 1954.37 18.9801C1955.11 18.9801 1955.78 18.8636 1956.36 18.6307C1956.94 18.392 1957.4 18.0625 1957.74 17.642C1958.07 17.2159 1958.24 16.7187 1958.24 16.1506C1958.24 15.6335 1958.09 15.2102 1957.8 14.8807C1957.51 14.5511 1957.11 14.2784 1956.61 14.0625C1956.12 13.8466 1955.56 13.6562 1954.93 13.4915L1952.87 12.929C1951.47 12.5483 1950.36 11.9886 1949.55 11.25C1948.73 10.5114 1948.33 9.53409 1948.33 8.31818C1948.33 7.3125 1948.6 6.43466 1949.15 5.68466C1949.69 4.93466 1950.43 4.35227 1951.36 3.9375C1952.29 3.51705 1953.34 3.30682 1954.52 3.30682C1955.7 3.30682 1956.74 3.5142 1957.64 3.92898C1958.55 4.34375 1959.27 4.91477 1959.79 5.64204C1960.31 6.36364 1960.59 7.19318 1960.61 8.13068H1958.07Z" fill="white"/>
<path fill-rule="evenodd" clip-rule="evenodd" d="M2047.65 12L2042.71 9.14871L2046.35 2.8513L2051.29 5.69765L2051.29 0H2058.57L2058.57 5.69765L2063.51 2.8513L2067.14 9.14871L2062.21 12L2067.14 14.8513L2063.51 21.1487L2058.57 18.3024L2058.57 24H2051.29L2051.29 18.3024L2046.35 21.1487L2042.71 14.8513L2047.65 12Z" fill="#FD9A87"/>
<path d="M2149.06 21V3.54545H2155.45C2156.69 3.54545 2157.72 3.75 2158.53 4.15909C2159.34 4.5625 2159.95 5.1108 2160.35 5.80398C2160.76 6.49148 2160.96 7.26705 2160.96 8.13068C2160.96 8.85795 2160.82 9.47159 2160.56 9.97159C2160.29 10.4659 2159.93 10.8636 2159.48 11.1648C2159.04 11.4602 2158.55 11.6761 2158.02 11.8125V11.983C2158.6 12.0114 2159.16 12.1989 2159.71 12.5455C2160.27 12.8864 2160.73 13.3722 2161.09 14.0028C2161.46 14.6335 2161.64 15.4006 2161.64 16.304C2161.64 17.196 2161.43 17.9972 2161.01 18.7074C2160.59 19.4119 2159.95 19.9716 2159.08 20.3864C2158.21 20.7955 2157.1 21 2155.75 21H2149.06ZM2151.69 18.7415H2155.5C2156.76 18.7415 2157.66 18.4972 2158.21 18.0085C2158.75 17.5199 2159.02 16.9091 2159.02 16.1761C2159.02 15.625 2158.88 15.1193 2158.61 14.6591C2158.33 14.1989 2157.93 13.8324 2157.41 13.5597C2156.9 13.2869 2156.29 13.1506 2155.59 13.1506H2151.69V18.7415ZM2151.69 11.0966H2155.22C2155.81 11.0966 2156.34 10.983 2156.82 10.7557C2157.29 10.5284 2157.67 10.2102 2157.95 9.80114C2158.23 9.38636 2158.38 8.89773 2158.38 8.33523C2158.38 7.61364 2158.12 7.00852 2157.62 6.51989C2157.11 6.03125 2156.34 5.78693 2155.29 5.78693H2151.69V11.0966ZM2190.39 3.54545H2193.03V15.0256C2193.03 16.2472 2192.74 17.3295 2192.17 18.2727C2191.6 19.2102 2190.79 19.9489 2189.75 20.4886C2188.71 21.0227 2187.49 21.2898 2186.09 21.2898C2184.7 21.2898 2183.48 21.0227 2182.44 20.4886C2181.41 19.9489 2180.6 19.2102 2180.02 18.2727C2179.45 17.3295 2179.16 16.2472 2179.16 15.0256V3.54545H2181.8V14.8125C2181.8 15.6023 2181.97 16.304 2182.32 16.9176C2182.67 17.5312 2183.17 18.0142 2183.81 18.3665C2184.45 18.7131 2185.21 18.8864 2186.09 18.8864C2186.98 18.8864 2187.74 18.7131 2188.39 18.3665C2189.03 18.0142 2189.53 17.5312 2189.87 16.9176C2190.21 16.304 2190.39 15.6023 2190.39 14.8125V3.54545ZM2213.89 3.54545V21H2211.26V3.54545H2213.89ZM2232.13 21V3.54545H2234.76V18.733H2242.67V21H2232.13ZM2265.73 21H2260.07V3.54545H2265.9C2267.61 3.54545 2269.08 3.89489 2270.31 4.59375C2271.54 5.28693 2272.48 6.28409 2273.13 7.58523C2273.79 8.88068 2274.12 10.4347 2274.12 12.2472C2274.12 14.0653 2273.79 15.6278 2273.12 16.9347C2272.46 18.2415 2271.51 19.2472 2270.26 19.9517C2269.01 20.6506 2267.5 21 2265.73 21ZM2262.71 18.6989H2265.58C2266.91 18.6989 2268.01 18.4489 2268.9 17.9489C2269.78 17.4432 2270.44 16.7131 2270.87 15.7585C2271.31 14.7983 2271.53 13.6278 2271.53 12.2472C2271.53 10.8778 2271.31 9.71591 2270.87 8.76136C2270.44 7.80682 2269.8 7.08239 2268.94 6.58807C2268.08 6.09375 2267.01 5.84659 2265.74 5.84659H2262.71V18.6989ZM2291.79 21V3.54545H2302.74V5.8125H2294.43V11.1307H2302.17V13.3892H2294.43V18.733H2302.84V21H2291.79ZM2320.66 21V3.54545H2326.88C2328.23 3.54545 2329.35 3.77841 2330.24 4.24432C2331.14 4.71023 2331.81 5.35511 2332.26 6.17898C2332.7 6.99716 2332.92 7.94318 2332.92 9.01705C2332.92 10.0852 2332.7 11.0256 2332.25 11.8381C2331.8 12.6449 2331.13 13.2727 2330.24 13.7216C2329.34 14.1705 2328.22 14.3949 2326.87 14.3949H2322.16V12.1278H2326.63C2327.48 12.1278 2328.18 12.0057 2328.71 11.7614C2329.25 11.517 2329.64 11.1619 2329.89 10.696C2330.14 10.2301 2330.27 9.67045 2330.27 9.01705C2330.27 8.35795 2330.14 7.78693 2329.89 7.30398C2329.64 6.82102 2329.24 6.4517 2328.7 6.19602C2328.17 5.93466 2327.47 5.80398 2326.6 5.80398H2323.29V21H2320.66ZM2329.27 13.125L2333.58 21H2330.58L2326.36 13.125H2329.27ZM2360.04 8.13068C2359.95 7.32386 2359.58 6.69886 2358.92 6.25568C2358.26 5.80682 2357.43 5.58239 2356.43 5.58239C2355.71 5.58239 2355.1 5.69602 2354.57 5.92329C2354.05 6.14489 2353.64 6.4517 2353.35 6.84375C2353.07 7.23011 2352.93 7.67045 2352.93 8.16477C2352.93 8.57955 2353.02 8.9375 2353.22 9.23864C2353.42 9.53977 2353.68 9.79261 2353.99 9.99716C2354.32 10.196 2354.66 10.3636 2355.03 10.5C2355.4 10.6307 2355.76 10.7386 2356.1 10.8239L2357.8 11.267C2358.36 11.4034 2358.93 11.5881 2359.52 11.821C2360.1 12.054 2360.64 12.3608 2361.14 12.7415C2361.64 13.1222 2362.05 13.5938 2362.35 14.1562C2362.67 14.7188 2362.82 15.392 2362.82 16.1761C2362.82 17.1648 2362.57 18.0426 2362.06 18.8097C2361.55 19.5767 2360.81 20.1818 2359.85 20.625C2358.89 21.0682 2357.73 21.2898 2356.36 21.2898C2355.06 21.2898 2353.93 21.0824 2352.97 20.6676C2352.02 20.2528 2351.27 19.6648 2350.73 18.9034C2350.19 18.1364 2349.89 17.2273 2349.83 16.1761H2352.48C2352.53 16.8068 2352.73 17.3324 2353.09 17.7528C2353.45 18.1676 2353.92 18.4773 2354.48 18.6818C2355.05 18.8807 2355.67 18.9801 2356.35 18.9801C2357.09 18.9801 2357.75 18.8636 2358.33 18.6307C2358.92 18.392 2359.38 18.0625 2359.71 17.642C2360.05 17.2159 2360.21 16.7187 2360.21 16.1506C2360.21 15.6335 2360.07 15.2102 2359.77 14.8807C2359.48 14.5511 2359.09 14.2784 2358.59 14.0625C2358.09 13.8466 2357.53 13.6562 2356.91 13.4915L2354.85 12.929C2353.45 12.5483 2352.34 11.9886 2351.52 11.25C2350.71 10.5114 2350.3 9.53409 2350.3 8.31818C2350.3 7.3125 2350.58 6.43466 2351.12 5.68466C2351.67 4.93466 2352.41 4.35227 2353.34 3.9375C2354.27 3.51705 2355.32 3.30682 2356.49 3.30682C2357.67 3.30682 2358.71 3.5142 2359.62 3.92898C2360.53 4.34375 2361.24 4.91477 2361.77 5.64204C2362.29 6.36364 2362.56 7.19318 2362.58 8.13068H2360.04Z" fill="white"/>
<path fill-rule="evenodd" clip-rule="evenodd" d="M2449.08 12L2444.14 9.14871L2447.78 2.8513L2452.72 5.69765L2452.72 0H2459.99L2460 5.69765L2464.93 2.8513L2468.57 9.14871L2463.64 12L2468.57 14.8513L2464.93 21.1487L2460 18.3024L2459.99 24H2452.72L2452.72 18.3024L2447.78 21.1487L2444.14 14.8513L2449.08 12Z" fill="#FD9A87"/>
<path d="M2553.12 3.54545V21H2550.49V3.54545H2553.12ZM2585.45 3.54545V21H2583.03L2574.15 8.19886H2573.99V21H2571.36V3.54545H2573.8L2582.68 16.3636H2582.84V3.54545H2585.45ZM2605.21 3.54545L2610.07 17.7614H2610.27L2615.12 3.54545H2617.97L2611.69 21H2608.65L2602.37 3.54545H2605.21ZM2634.89 21V3.54545H2645.84V5.8125H2637.53V11.1307H2645.26V13.3892H2637.53V18.733H2645.94V21H2634.89ZM2673.27 8.13068C2673.18 7.32386 2672.81 6.69886 2672.15 6.25568C2671.49 5.80682 2670.66 5.58239 2669.66 5.58239C2668.94 5.58239 2668.32 5.69602 2667.8 5.92329C2667.28 6.14489 2666.87 6.4517 2666.58 6.84375C2666.3 7.23011 2666.16 7.67045 2666.16 8.16477C2666.16 8.57955 2666.25 8.9375 2666.45 9.23864C2666.65 9.53977 2666.9 9.79261 2667.22 9.99716C2667.55 10.196 2667.89 10.3636 2668.26 10.5C2668.63 10.6307 2668.99 10.7386 2669.33 10.8239L2671.03 11.267C2671.59 11.4034 2672.16 11.5881 2672.74 11.821C2673.33 12.054 2673.87 12.3608 2674.37 12.7415C2674.87 13.1222 2675.28 13.5938 2675.58 14.1562C2675.9 14.7188 2676.05 15.392 2676.05 16.1761C2676.05 17.1648 2675.8 18.0426 2675.28 18.8097C2674.78 19.5767 2674.04 20.1818 2673.08 20.625C2672.12 21.0682 2670.95 21.2898 2669.59 21.2898C2668.28 21.2898 2667.15 21.0824 2666.2 20.6676C2665.24 20.2528 2664.5 19.6648 2663.96 18.9034C2663.42 18.1364 2663.12 17.2273 2663.06 16.1761H2665.7C2665.76 16.8068 2665.96 17.3324 2666.32 17.7528C2666.68 18.1676 2667.15 18.4773 2667.71 18.6818C2668.28 18.8807 2668.9 18.9801 2669.57 18.9801C2670.32 18.9801 2670.98 18.8636 2671.56 18.6307C2672.15 18.392 2672.61 18.0625 2672.94 17.642C2673.28 17.2159 2673.44 16.7187 2673.44 16.1506C2673.44 15.6335 2673.3 15.2102 2673 14.8807C2672.71 14.5511 2672.32 14.2784 2671.82 14.0625C2671.32 13.8466 2670.76 13.6562 2670.14 13.4915L2668.07 12.929C2666.68 12.5483 2665.57 11.9886 2664.75 11.25C2663.94 10.5114 2663.53 9.53409 2663.53 8.31818C2663.53 7.3125 2663.8 6.43466 2664.35 5.68466C2664.9 4.93466 2665.63 4.35227 2666.57 3.9375C2667.5 3.51705 2668.55 3.30682 2669.72 3.30682C2670.9 3.30682 2671.94 3.5142 2672.85 3.92898C2673.76 4.34375 2674.47 4.91477 2674.99 5.64204C2675.52 6.36364 2675.79 7.19318 2675.81 8.13068H2673.27ZM2692.74 5.8125V3.54545H2706.25V5.8125H2700.8V21H2698.17V5.8125H2692.74ZM2738.04 12.2727C2738.04 14.1364 2737.7 15.7386 2737.02 17.0795C2736.34 18.4148 2735.4 19.4432 2734.22 20.1648C2733.03 20.8807 2731.69 21.2386 2730.19 21.2386C2728.67 21.2386 2727.32 20.8807 2726.14 20.1648C2724.95 19.4432 2724.02 18.4119 2723.34 17.071C2722.66 15.7301 2722.32 14.1307 2722.32 12.2727C2722.32 10.4091 2722.66 8.80966 2723.34 7.47443C2724.02 6.13352 2724.95 5.10511 2726.14 4.3892C2727.32 3.66761 2728.67 3.30682 2730.19 3.30682C2731.69 3.30682 2733.03 3.66761 2734.22 4.3892C2735.4 5.10511 2736.34 6.13352 2737.02 7.47443C2737.7 8.80966 2738.04 10.4091 2738.04 12.2727ZM2735.44 12.2727C2735.44 10.8523 2735.2 9.65625 2734.74 8.68466C2734.29 7.70739 2733.67 6.96875 2732.87 6.46875C2732.08 5.96307 2731.19 5.71023 2730.19 5.71023C2729.18 5.71023 2728.28 5.96307 2727.49 6.46875C2726.7 6.96875 2726.08 7.70739 2725.62 8.68466C2725.16 9.65625 2724.94 10.8523 2724.94 12.2727C2724.94 13.6932 2725.16 14.892 2725.62 15.8693C2726.08 16.8409 2726.7 17.5795 2727.49 18.0852C2728.28 18.5852 2729.18 18.8352 2730.19 18.8352C2731.19 18.8352 2732.08 18.5852 2732.87 18.0852C2733.67 17.5795 2734.29 16.8409 2734.74 15.8693C2735.2 14.892 2735.44 13.6932 2735.44 12.2727ZM2755.73 21V3.54545H2761.95C2763.3 3.54545 2764.42 3.77841 2765.31 4.24432C2766.21 4.71023 2766.88 5.35511 2767.33 6.17898C2767.77 6.99716 2767.99 7.94318 2767.99 9.01705C2767.99 10.0852 2767.77 11.0256 2767.32 11.8381C2766.87 12.6449 2766.2 13.2727 2765.31 13.7216C2764.41 14.1705 2763.29 14.3949 2761.94 14.3949H2757.23V12.1278H2761.7C2762.55 12.1278 2763.25 12.0057 2763.78 11.7614C2764.32 11.517 2764.72 11.1619 2764.97 10.696C2765.22 10.2301 2765.34 9.67045 2765.34 9.01705C2765.34 8.35795 2765.21 7.78693 2764.96 7.30398C2764.71 6.82102 2764.31 6.4517 2763.77 6.19602C2763.24 5.93466 2762.54 5.80398 2761.67 5.80398H2758.36V21H2755.73ZM2764.34 13.125L2768.66 21H2765.66L2761.43 13.125H2764.34ZM2795.12 8.13068C2795.02 7.32386 2794.65 6.69886 2793.99 6.25568C2793.33 5.80682 2792.5 5.58239 2791.5 5.58239C2790.79 5.58239 2790.17 5.69602 2789.64 5.92329C2789.12 6.14489 2788.71 6.4517 2788.42 6.84375C2788.14 7.23011 2788 7.67045 2788 8.16477C2788 8.57955 2788.1 8.9375 2788.29 9.23864C2788.49 9.53977 2788.75 9.79261 2789.06 9.99716C2789.39 10.196 2789.73 10.3636 2790.1 10.5C2790.47 10.6307 2790.83 10.7386 2791.17 10.8239L2792.87 11.267C2793.43 11.4034 2794 11.5881 2794.59 11.821C2795.17 12.054 2795.71 12.3608 2796.21 12.7415C2796.71 13.1222 2797.12 13.5938 2797.42 14.1562C2797.74 14.7188 2797.89 15.392 2797.89 16.1761C2797.89 17.1648 2797.64 18.0426 2797.13 18.8097C2796.62 19.5767 2795.88 20.1818 2794.92 20.625C2793.96 21.0682 2792.8 21.2898 2791.43 21.2898C2790.13 21.2898 2789 21.0824 2788.04 20.6676C2787.09 20.2528 2786.34 19.6648 2785.8 18.9034C2785.26 18.1364 2784.96 17.2273 2784.9 16.1761H2787.55C2787.6 16.8068 2787.8 17.3324 2788.16 17.7528C2788.52 18.1676 2788.99 18.4773 2789.55 18.6818C2790.12 18.8807 2790.74 18.9801 2791.42 18.9801C2792.16 18.9801 2792.82 18.8636 2793.4 18.6307C2793.99 18.392 2794.45 18.0625 2794.78 17.642C2795.12 17.2159 2795.29 16.7187 2795.29 16.1506C2795.29 15.6335 2795.14 15.2102 2794.84 14.8807C2794.55 14.5511 2794.16 14.2784 2793.66 14.0625C2793.16 13.8466 2792.6 13.6562 2791.98 13.4915L2789.92 12.929C2788.52 12.5483 2787.41 11.9886 2786.59 11.25C2785.78 10.5114 2785.37 9.53409 2785.37 8.31818C2785.37 7.3125 2785.65 6.43466 2786.19 5.68466C2786.74 4.93466 2787.48 4.35227 2788.41 3.9375C2789.34 3.51705 2790.39 3.30682 2791.56 3.30682C2792.74 3.30682 2793.79 3.5142 2794.69 3.92898C2795.6 4.34375 2796.31 4.91477 2796.84 5.64204C2797.36 6.36364 2797.63 7.19318 2797.65 8.13068H2795.12Z" fill="white"/>
<path fill-rule="evenodd" clip-rule="evenodd" d="M2884.51 12L2879.57 9.14871L2883.21 2.8513L2888.15 5.69765L2888.15 0H2895.42L2895.43 5.69765L2900.36 2.8513L2904 9.14871L2899.07 12L2904 14.8513L2900.36 21.1487L2895.43 18.3024L2895.42 24H2888.15L2888.15 18.3024L2883.21 21.1487L2879.57 14.8513L2884.51 12Z" fill="#FD9A87"/>
<path d="M2985.92 21V3.54545H2996.74V5.8125H2988.55V11.1307H2995.97V13.3892H2988.55V21H2985.92ZM3029.54 12.2727C3029.54 14.1364 3029.2 15.7386 3028.52 17.0795C3027.84 18.4148 3026.9 19.4432 3025.72 20.1648C3024.53 20.8807 3023.19 21.2386 3021.68 21.2386C3020.17 21.2386 3018.82 20.8807 3017.64 20.1648C3016.45 19.4432 3015.52 18.4119 3014.84 17.071C3014.16 15.7301 3013.82 14.1307 3013.82 12.2727C3013.82 10.4091 3014.16 8.80966 3014.84 7.47443C3015.52 6.13352 3016.45 5.10511 3017.64 4.3892C3018.82 3.66761 3020.17 3.30682 3021.68 3.30682C3023.19 3.30682 3024.53 3.66761 3025.72 4.3892C3026.9 5.10511 3027.84 6.13352 3028.52 7.47443C3029.2 8.80966 3029.54 10.4091 3029.54 12.2727ZM3026.93 12.2727C3026.93 10.8523 3026.7 9.65625 3026.24 8.68466C3025.79 7.70739 3025.16 6.96875 3024.37 6.46875C3023.58 5.96307 3022.68 5.71023 3021.68 5.71023C3020.68 5.71023 3019.78 5.96307 3018.99 6.46875C3018.2 6.96875 3017.58 7.70739 3017.12 8.68466C3016.66 9.65625 3016.43 10.8523 3016.43 12.2727C3016.43 13.6932 3016.66 14.892 3017.12 15.8693C3017.58 16.8409 3018.2 17.5795 3018.99 18.0852C3019.78 18.5852 3020.68 18.8352 3021.68 18.8352C3022.68 18.8352 3023.58 18.5852 3024.37 18.0852C3025.16 17.5795 3025.79 16.8409 3026.24 15.8693C3026.7 14.892 3026.93 13.6932 3026.93 12.2727ZM3058.45 3.54545H3061.09V15.0256C3061.09 16.2472 3060.8 17.3295 3060.23 18.2727C3059.66 19.2102 3058.85 19.9489 3057.81 20.4886C3056.77 21.0227 3055.55 21.2898 3054.15 21.2898C3052.76 21.2898 3051.55 21.0227 3050.51 20.4886C3049.47 19.9489 3048.66 19.2102 3048.09 18.2727C3047.51 17.3295 3047.23 16.2472 3047.23 15.0256V3.54545H3049.86V14.8125C3049.86 15.6023 3050.03 16.304 3050.38 16.9176C3050.73 17.5312 3051.23 18.0142 3051.87 18.3665C3052.51 18.7131 3053.27 18.8864 3054.15 18.8864C3055.04 18.8864 3055.8 18.7131 3056.45 18.3665C3057.09 18.0142 3057.59 17.5312 3057.93 16.9176C3058.28 16.304 3058.45 15.6023 3058.45 14.8125V3.54545ZM3093.41 3.54545V21H3090.99L3082.12 8.19886H3081.95V21H3079.32V3.54545H3081.76L3090.64 16.3636H3090.8V3.54545H3093.41ZM3117.3 21H3111.65V3.54545H3117.48C3119.19 3.54545 3120.66 3.89489 3121.89 4.59375C3123.11 5.28693 3124.05 6.28409 3124.71 7.58523C3125.37 8.88068 3125.7 10.4347 3125.7 12.2472C3125.7 14.0653 3125.36 15.6278 3124.7 16.9347C3124.04 18.2415 3123.08 19.2472 3121.83 19.9517C3120.58 20.6506 3119.07 21 3117.3 21ZM3114.28 18.6989H3117.16C3118.49 18.6989 3119.59 18.4489 3120.47 17.9489C3121.35 17.4432 3122.01 16.7131 3122.45 15.7585C3122.89 14.7983 3123.1 13.6278 3123.1 12.2472C3123.1 10.8778 3122.89 9.71591 3122.45 8.76136C3122.02 7.80682 3121.37 7.08239 3120.51 6.58807C3119.66 6.09375 3118.59 5.84659 3117.32 5.84659H3114.28V18.6989ZM3143.37 21V3.54545H3154.31V5.8125H3146V11.1307H3153.74V13.3892H3146V18.733H3154.42V21H3143.37ZM3172.23 21V3.54545H3178.45C3179.81 3.54545 3180.93 3.77841 3181.82 4.24432C3182.72 4.71023 3183.39 5.35511 3183.83 6.17898C3184.27 6.99716 3184.5 7.94318 3184.5 9.01705C3184.5 10.0852 3184.27 11.0256 3183.82 11.8381C3183.38 12.6449 3182.71 13.2727 3181.81 13.7216C3180.92 14.1705 3179.8 14.3949 3178.44 14.3949H3173.73V12.1278H3178.21C3179.06 12.1278 3179.75 12.0057 3180.29 11.7614C3180.83 11.517 3181.22 11.1619 3181.47 10.696C3181.72 10.2301 3181.85 9.67045 3181.85 9.01705C3181.85 8.35795 3181.72 7.78693 3181.46 7.30398C3181.21 6.82102 3180.82 6.4517 3180.28 6.19602C3179.74 5.93466 3179.04 5.80398 3178.17 5.80398H3174.86V21H3172.23ZM3180.85 13.125L3185.16 21H3182.16L3177.93 13.125H3180.85ZM3211.62 8.13068C3211.53 7.32386 3211.15 6.69886 3210.5 6.25568C3209.84 5.80682 3209.01 5.58239 3208.01 5.58239C3207.29 5.58239 3206.67 5.69602 3206.15 5.92329C3205.63 6.14489 3205.22 6.4517 3204.93 6.84375C3204.65 7.23011 3204.5 7.67045 3204.5 8.16477C3204.5 8.57955 3204.6 8.9375 3204.79 9.23864C3204.99 9.53977 3205.25 9.79261 3205.57 9.99716C3205.89 10.196 3206.24 10.3636 3206.61 10.5C3206.98 10.6307 3207.33 10.7386 3207.67 10.8239L3209.38 11.267C3209.94 11.4034 3210.51 11.5881 3211.09 11.821C3211.68 12.054 3212.22 12.3608 3212.72 12.7415C3213.22 13.1222 3213.62 13.5938 3213.93 14.1562C3214.24 14.7188 3214.4 15.392 3214.4 16.1761C3214.4 17.1648 3214.14 18.0426 3213.63 18.8097C3213.13 19.5767 3212.39 20.1818 3211.42 20.625C3210.46 21.0682 3209.3 21.2898 3207.94 21.2898C3206.63 21.2898 3205.5 21.0824 3204.55 20.6676C3203.59 20.2528 3202.84 19.6648 3202.3 18.9034C3201.76 18.1364 3201.47 17.2273 3201.41 16.1761H3204.05C3204.1 16.8068 3204.31 17.3324 3204.67 17.7528C3205.03 18.1676 3205.49 18.4773 3206.05 18.6818C3206.62 18.8807 3207.25 18.9801 3207.92 18.9801C3208.67 18.9801 3209.33 18.8636 3209.91 18.6307C3210.49 18.392 3210.95 18.0625 3211.29 17.642C3211.62 17.2159 3211.79 16.7187 3211.79 16.1506C3211.79 15.6335 3211.64 15.2102 3211.35 14.8807C3211.06 14.5511 3210.66 14.2784 3210.16 14.0625C3209.67 13.8466 3209.11 13.6562 3208.48 13.4915L3206.42 12.929C3205.02 12.5483 3203.92 11.9886 3203.1 11.25C3202.28 10.5114 3201.88 9.53409 3201.88 8.31818C3201.88 7.3125 3202.15 6.43466 3202.7 5.68466C3203.24 4.93466 3203.98 4.35227 3204.91 3.9375C3205.84 3.51705 3206.9 3.30682 3208.07 3.30682C3209.25 3.30682 3210.29 3.5142 3211.19 3.92898C3212.1 4.34375 3212.82 4.91477 3213.34 5.64204C3213.86 6.36364 3214.14 7.19318 3214.16 8.13068H3211.62Z" fill="white"/>
<path fill-rule="evenodd" clip-rule="evenodd" d="M3300.93 12L3296 9.14871L3299.64 2.8513L3304.57 5.69765L3304.58 0H3311.85L3311.85 5.69765L3316.79 2.8513L3320.43 9.14871L3315.49 12L3320.43 14.8513L3316.79 21.1487L3311.85 18.3024L3311.85 24H3304.58L3304.57 18.3024L3299.64 21.1487L3296 14.8513L3300.93 12Z" fill="#FD9A87"/>
</svg>
