<svg width="2653" height="2450" viewBox="0 0 2653 2450" fill="none" xmlns="http://www.w3.org/2000/svg">
<path fill-rule="evenodd" clip-rule="evenodd" d="M1.87732 1895.44C1.87732 1573.27 1.87732 1252.59 1.87732 930.268C165.237 930.268 327.628 930.268 490.02 930.268C490.201 929.055 490.384 927.828 490.567 926.615C484.344 925.335 478.139 923.961 471.896 922.775C397.756 908.748 325.62 888.308 257.677 854.841C182.155 817.641 117.905 767.162 71.7333 695.602C40.964 647.908 21.1839 595.882 11.0733 540.215C-3.96272 457.455 -3.45067 374.548 13.3547 292.228C36.196 180.308 102.575 103.442 206.548 57.935C263.699 32.9217 323.793 19.1749 385.309 10.8415C442.479 3.08152 499.953 0.54829 557.609 0.614957C714.92 0.761623 872.227 0.6548 1029.52 0.6548C1035.88 0.6548 1042.24 0.6548 1048.25 0.6548C1051.97 12.9348 1052.77 946.095 1048.99 965.682C905.373 965.682 761.32 965.682 617.267 965.682C617.093 966.855 616.933 968.015 616.773 969.175C622.013 970.868 627.213 972.668 632.493 974.228C719.227 999.722 800.253 1036.72 871.267 1093.56C965.427 1168.91 1025.55 1265.15 1044.52 1384.83C1057.59 1467.32 1054.21 1549.81 1031.93 1630.63C1007.47 1719.35 952.2 1783.48 870.827 1825.65C811.88 1856.2 748.627 1872.47 683.48 1882.51C620.08 1892.28 556.232 1895.44 492.171 1895.44C334.865 1895.43 177.561 1895.44 20.2547 1895.44C14.4827 1895.44 8.70932 1895.44 1.87732 1895.44Z" fill="white"/>
<path fill-rule="evenodd" clip-rule="evenodd" d="M1952.08 2.02759C1952.08 98.0676 1952.08 193.321 1952.08 290.801C1977.65 291.894 2001.95 291.228 2026.23 291.334C2051.28 291.454 2076.35 291.361 2101.4 291.361C2125.93 291.361 2150.45 291.361 2174.99 291.361C2200.04 291.361 2225.11 291.361 2250.16 291.361C2274.69 291.361 2299.21 291.361 2323.75 291.361C2348.8 291.361 2373.87 291.361 2398.92 291.361C2423.39 291.361 2447.85 291.361 2472.84 291.361C2473.71 294.854 2474.85 297.294 2474.85 299.734C2474.57 373.841 2476.75 448.068 2473.21 522.028C2467.76 636.401 2424.36 736.561 2346.76 820.654C2248.29 927.387 2125.2 980.201 1980.15 982.174C1972.68 982.267 1965.21 982.361 1957.76 982.561C1956.76 982.588 1955.77 983.254 1954.79 983.628C1954.44 984.014 1954.07 984.374 1953.76 984.788C1953.43 985.201 1953.03 985.628 1952.89 986.121C1952.63 987.134 1952.43 988.201 1952.35 989.254C1952.24 990.841 1952.21 992.441 1952.21 994.041C1952.07 1114 1951.92 1233.96 1951.76 1353.93C1951.76 1354.43 1951.43 1354.92 1950.75 1356.85C1947.31 1358.05 1943.03 1359.87 1938.59 1361.04C1831.12 1389.28 1740.05 1444.95 1664.2 1525.69C1615.84 1577.19 1573.56 1633.41 1540.45 1695.85C1524.05 1726.77 1511.45 1759.69 1497.15 1791.72C1495.64 1795.09 1494.19 1798.49 1492.03 1803.49C1485.19 1799.32 1478.87 1795.65 1472.75 1791.69C1382.96 1733.49 1320.83 1652.73 1280.03 1554.75C1250.29 1483.33 1234.12 1408.56 1225.04 1331.97C1215.4 1250.72 1217.04 1169.09 1216.41 1087.56C1214.31 812.454 1212.69 537.347 1210.84 262.254C1210.28 180.147 1209.57 98.041 1208.93 15.9343C1208.91 11.7343 1208.93 7.53423 1208.93 3.62756C1221.27 -0.0257695 1918.84 -1.50575 1952.08 2.02759Z" fill="white"/>
<path fill-rule="evenodd" clip-rule="evenodd" d="M157.548 2054.29C127.687 2054.56 102.891 2080.17 103.405 2110.24C103.817 2134.23 131.817 2158.93 158.251 2158.63C185.621 2158.31 212.119 2130.88 211.851 2103.13C211.615 2078.89 184.024 2054.07 157.548 2054.29ZM214.572 2292.17C214.267 2258.87 189.749 2232.92 158.364 2232.68C132.044 2232.49 104.06 2265.65 104.299 2295.92C104.484 2319.49 128.452 2341.64 166.931 2342.4C192.071 2342.89 214.808 2318.08 214.572 2292.17ZM250.619 2200.37C257.581 2205 262.312 2208.33 267.227 2211.36C285.172 2222.44 297.659 2238.03 304.437 2257.84C315.565 2290.36 313.069 2322.17 295.945 2351.95C276.74 2385.33 244.777 2401.47 208.503 2403.03C144.148 2405.81 79.6068 2404.23 15.1414 2404.4C13.0788 2404.4 11.0121 2403.68 7.2081 2402.96C4.52543 2369.8 6.32409 2336.43 6.00009 2303.13C5.67476 2269.56 5.92945 2236 5.92945 2202.43C5.92945 2168.85 5.92945 2135.29 5.92945 2101.72C5.92945 2068.33 5.92809 2034.95 5.92809 2001.15C11.7694 2000.32 15.3614 1999.36 18.9494 1999.37C70.6228 1999.53 122.297 1999.63 173.968 2000.16C195.933 2000.39 217.496 2003.97 238.233 2011.44C275.917 2025.03 297.292 2052.05 302.649 2091.53C308.061 2131.4 298.139 2165.53 263.993 2190.03C260.196 2192.76 256.589 2195.75 250.619 2200.37Z" fill="white"/>
<path fill-rule="evenodd" clip-rule="evenodd" d="M1151.84 2018.93C1171.17 2018.93 1189.77 2018.83 1208.36 2018.97C1218.21 2019.05 1223.31 2026.25 1228.21 2033.32C1244.61 2056.99 1260.87 2080.76 1277.27 2104.43C1293.79 2128.27 1313.15 2149.51 1336.53 2166.72C1344.61 2172.67 1353.44 2178.12 1362.72 2181.79C1386.96 2191.35 1408.2 2181.19 1415.51 2156.27C1419.24 2143.59 1421.91 2130.19 1422.31 2117.03C1423.03 2092.56 1421.83 2068.04 1421.21 2043.55C1421.04 2036.69 1420.11 2029.85 1419.33 2020.91C1430.39 2020.59 1440.23 2020.19 1450.09 2020.05C1460.17 2019.91 1470.25 2020.01 1479.04 2020.01C1480.69 2021.6 1481.09 2021.93 1481.44 2022.32C1481.79 2022.71 1482.31 2023.11 1482.4 2023.57C1482.81 2025.65 1483.39 2027.76 1483.39 2029.85C1483.45 2157.29 1483.47 2284.73 1483.45 2412.17C1483.45 2414.81 1483.13 2417.48 1482.73 2420.11C1482.59 2421.07 1481.77 2421.92 1480.11 2424.88C1461.25 2425.61 1440.99 2427.43 1421.24 2423.51C1414.01 2422.07 1406.92 2414.64 1401.88 2408.27C1377.36 2377.36 1353.84 2345.67 1329.4 2314.69C1318.19 2300.49 1306.43 2286.56 1293.63 2273.81C1267.33 2247.65 1232.29 2256.53 1221.2 2292.08C1217.92 2302.61 1216.32 2314 1215.99 2325.05C1215.17 2351.16 1215.59 2377.31 1215.51 2403.43C1215.48 2409.2 1215.49 2414.97 1215.49 2420.17C1202.87 2424.49 1172.89 2425.29 1152.63 2422.36C1152.25 2422.01 1151.84 2421.69 1151.49 2421.31C1151.15 2420.91 1150.65 2420.47 1150.61 2420C1150.15 2415.8 1149.43 2411.59 1149.43 2407.37C1149.47 2279.93 1149.57 2152.49 1149.75 2025.05C1149.75 2023.59 1150.72 2022.12 1151.84 2018.93Z" fill="white"/>
<path fill-rule="evenodd" clip-rule="evenodd" d="M779.733 2018.01C779.733 2042.51 779.84 2066.44 779.707 2090.39C779.493 2127.52 803.907 2142.52 836.427 2124.07C880.2 2099.23 921.467 2070.84 952.693 2030.41C962.853 2017.27 975.333 2012.28 991.533 2013.05C1008.55 2013.87 1025.63 2013.33 1042.68 2013.56C1045.69 2013.59 1048.71 2014.45 1052.08 2015C1053.19 2022.95 1047.49 2026.19 1043.76 2030.13C1000.2 2076.21 956.493 2122.16 912.867 2168.17C908.56 2172.71 904.52 2177.47 899.827 2182.71C904.12 2189.03 907.56 2194.31 911.213 2199.45C957.093 2264.25 1003.03 2329.01 1048.87 2393.84C1053.4 2400.24 1060.96 2406.85 1057.12 2415.09C1052.97 2424.01 1042.93 2419.89 1035.4 2420.21C1021.57 2420.8 1007.67 2419.85 993.853 2420.67C976.96 2421.68 962.52 2416.67 949.333 2406.43C927.867 2389.75 906.52 2372.91 884.413 2357.12C873.68 2349.47 861.933 2342.45 849.627 2337.93C814.347 2324.95 782.067 2347 779.88 2384.6C779.267 2395.08 779.2 2405.6 778.853 2417.28C756.853 2417.28 736.387 2417.28 716.133 2417.28C709.12 2396.44 706.6 2048.77 713.027 2018.13C724.747 2014.28 762.067 2013.88 779.733 2018.01Z" fill="white"/>
<path fill-rule="evenodd" clip-rule="evenodd" d="M462.59 2014.36C463.369 2025.53 464.252 2034.41 464.565 2043.32C466.152 2088.61 467.235 2133.91 469.216 2179.17C470.409 2206.41 475.38 2233.13 483.336 2259.29C496.254 2301.75 524.675 2327.09 568.227 2333.99C591.32 2337.65 614.88 2338.39 638.24 2340.29C651.026 2341.33 652.546 2341.69 652.973 2353.96C653.706 2375.17 653.173 2396.44 653.173 2419.31C646.533 2419.79 641.4 2420.71 636.333 2420.45C600.666 2418.64 564.904 2417.83 529.408 2414.32C479.078 2409.35 440.341 2384.19 412.946 2341.63C391.026 2307.56 379.777 2269.79 378.316 2229.83C375.883 2163.25 375.344 2096.61 374.361 2029.99C374.145 2015.4 375.489 2014.52 389.825 2014.41C413.221 2014.24 436.617 2014.36 462.59 2014.36Z" fill="white"/>
<path fill-rule="evenodd" clip-rule="evenodd" d="M2106.8 1587C2099.76 1587 2090.68 1587.39 2081.64 1586.92C2057.36 1585.65 2034.05 1589.91 2010.87 1597.03C1978.11 1607.08 1946.83 1620.32 1916.72 1636.52C1878.96 1656.83 1847.17 1683.8 1824.17 1720.39C1814.83 1735.25 1806.44 1750.77 1796.52 1765.24C1773.97 1798.08 1766.21 1835.56 1762.93 1873.95C1758.96 1920.44 1763.53 1966.76 1774.63 2012.01C1793.03 2087.09 1837.51 2146.28 1892.35 2198.6C1898.84 2204.79 1906.56 2209.96 1914.36 2214.45C1974.88 2249.36 2039.41 2271.35 2109.89 2272.39C2188.05 2273.52 2258.43 2247.99 2324.24 2207.77C2328.31 2205.29 2332.13 2202.25 2335.6 2198.97C2374.2 2162.47 2407.73 2122.12 2431.27 2074C2461.67 2011.85 2468.67 1945.64 2465.43 1877.79C2464.09 1850.08 2459.89 1822.68 2447.95 1797.04C2430.32 1759.16 2408.75 1723.68 2382.15 1691.49C2372.73 1680.11 2362.12 1668.83 2349.91 1660.75C2276.95 1612.45 2199.17 1578.81 2106.8 1587ZM2005.33 2303.08C1994.73 2299.84 1984.85 2296.81 1973.81 2293.43C1970.85 2300.57 1968.72 2305.89 1966.47 2311.17C1955.17 2337.63 1943.65 2363.99 1932.63 2390.56C1927.84 2402.07 1919.17 2408.19 1907.57 2410.57C1896.2 2412.92 1887.93 2407.32 1887.97 2395.8C1888 2386.43 1889.49 2376.51 1892.85 2367.79C1902.64 2342.45 1913.71 2317.61 1924.19 2292.55C1926.4 2287.28 1928.29 2281.88 1930.88 2275.12C1921.11 2270.63 1912.59 2266.71 1902.37 2262.01C1898.43 2267.41 1894.6 2272.28 1891.19 2277.4C1878.2 2296.93 1865.56 2316.71 1852.31 2336.05C1847.53 2343.04 1841.71 2349.41 1835.69 2355.4C1832.43 2358.65 1828.05 2361.36 1823.67 2362.76C1815.87 2365.28 1807.63 2365.64 1801.17 2359.28C1794.55 2352.76 1795.48 2344.56 1798.31 2336.84C1800.28 2331.4 1803.32 2326.24 1806.55 2321.4C1822.25 2297.92 1838.21 2274.6 1854.03 2251.17C1856.95 2246.84 1859.64 2242.33 1863.59 2236.09C1855.68 2229.87 1848.24 2223.99 1839.45 2217.05C1836.76 2219.57 1832.59 2223.39 1828.51 2227.31C1806.56 2248.33 1784.63 2269.39 1762.75 2290.47C1754.19 2298.72 1744.31 2303.11 1732.28 2301.09C1717.83 2298.67 1712.09 2288.49 1718.93 2275.64C1723.12 2267.77 1728.61 2260.23 1734.93 2253.95C1755.37 2233.67 1776.4 2213.99 1797.33 2194.21C1801.59 2190.21 1806.45 2186.85 1812.03 2182.39C1804.72 2172.93 1798.99 2165.53 1792.23 2156.8C1787.15 2159.89 1782.68 2162.45 1778.41 2165.27C1751.71 2182.88 1724.92 2200.37 1698.43 2218.31C1688 2225.36 1677.01 2227.71 1665.03 2224.71C1650.2 2221 1645.55 2208.21 1655.71 2196.96C1663.13 2188.75 1671.88 2181.4 1681.07 2175.17C1704.01 2159.64 1727.59 2145.01 1750.84 2129.93C1755.67 2126.8 1760.24 2123.25 1765.49 2119.51C1763.16 2114.21 1761.48 2109.84 1759.32 2105.71C1757.17 2101.59 1754.53 2097.71 1751.65 2092.96C1744.39 2095.92 1738.05 2098.47 1731.75 2101.08C1702.21 2113.31 1672.65 2125.47 1643.19 2137.84C1631.35 2142.81 1620.2 2141.64 1609.65 2134.88C1600.59 2129.08 1598.48 2119.32 1606.16 2111.95C1613.67 2104.72 1622.52 2098.01 1632.01 2093.88C1658.37 2082.4 1685.4 2072.44 1712.09 2061.71C1719.43 2058.76 1726.52 2055.23 1735.04 2051.36C1732.11 2042.12 1729.44 2033.8 1726.27 2023.85C1708.53 2027.53 1692 2030.92 1675.49 2034.39C1654.64 2038.77 1633.92 2043.95 1612.89 2047.29C1604.36 2048.67 1594.92 2047.24 1586.39 2045.08C1578.24 2043.01 1572.76 2036.63 1572.59 2027.47C1572.44 2018.93 1577.39 2013.33 1584.87 2010.48C1594.28 2006.88 1603.83 2003.17 1613.65 2001.17C1643.4 1995.12 1673.31 1989.91 1703.15 1984.28C1707.29 1983.49 1711.35 1982.25 1717.43 1980.72C1716.64 1971.24 1715.88 1961.97 1714.95 1950.77C1708.27 1950.77 1702.61 1950.67 1696.97 1950.79C1663.92 1951.48 1630.87 1952.13 1597.81 1953C1587.8 1953.25 1578.72 1951 1571.04 1944.49C1565.16 1939.51 1560.41 1933.56 1562.28 1925.2C1564.15 1916.91 1570.39 1912.73 1578.29 1911.59C1592.49 1909.53 1606.75 1906.97 1621.04 1906.55C1646.08 1905.79 1671.16 1906.55 1696.23 1906.51C1701.43 1906.51 1706.64 1905.84 1713.07 1905.4C1713.07 1899.69 1713.07 1895.13 1713.07 1890.56C1713.07 1886.45 1713.07 1882.36 1713.07 1877.27C1692.01 1873.65 1672.13 1870.39 1652.33 1866.79C1633.99 1863.44 1615.71 1859.75 1597.41 1856.15C1589.36 1854.56 1582.15 1851.55 1577.37 1844.25C1573.03 1837.6 1571.09 1830.57 1574.67 1823.12C1578.11 1815.95 1584.93 1813.63 1592.11 1814.19C1611.73 1815.71 1631.43 1817.2 1650.89 1820.04C1669.31 1822.73 1687.48 1827.19 1705.77 1830.71C1709.35 1831.4 1713.04 1831.4 1718.08 1831.84C1720.39 1822.23 1722.56 1813.19 1725.04 1802.83C1718.76 1800.2 1713.56 1797.87 1708.24 1795.84C1680.37 1785.19 1652.52 1774.48 1624.56 1764.09C1614.32 1760.28 1607.28 1753.84 1604.13 1743.32C1600.32 1730.57 1608.28 1719.31 1621.55 1719.24C1625.71 1719.23 1630.08 1720.09 1634.04 1721.48C1663.15 1731.75 1692.2 1742.23 1721.23 1752.72C1727.71 1755.05 1734.05 1757.73 1742.2 1760.93C1747.48 1752.16 1752.53 1743.77 1758.15 1734.43C1751.47 1729.88 1746.37 1726.15 1741.01 1722.81C1717.47 1708.19 1693.97 1693.47 1670.21 1679.2C1660.95 1673.65 1654.88 1666.29 1652.39 1655.81C1649.01 1641.57 1658.17 1630.75 1672.52 1633.89C1682.77 1636.13 1693.07 1640.04 1702.16 1645.28C1722.48 1656.96 1742.07 1669.91 1761.92 1682.4C1767.77 1686.07 1773.53 1689.91 1781.13 1694.83C1787.59 1686.44 1793.87 1678.29 1800.92 1669.12C1795.53 1663.39 1791.16 1658.16 1786.2 1653.55C1767.84 1636.49 1749.44 1619.47 1730.73 1602.79C1722.12 1595.11 1717.92 1585.84 1718.35 1574.56C1718.87 1560.53 1729.57 1553.07 1742.49 1558.47C1750.24 1561.69 1757.83 1566.23 1764.19 1571.69C1782.77 1587.68 1800.71 1604.41 1818.88 1620.88C1823.57 1625.12 1828.21 1629.41 1834 1634.72C1842.37 1628.13 1850.13 1622.03 1859.21 1614.88C1855.57 1609.28 1852.69 1604.41 1849.39 1599.84C1835.01 1579.96 1820.56 1560.15 1806.05 1540.37C1799.84 1531.91 1795.95 1522.84 1797.73 1512.07C1800.44 1495.81 1815.99 1489.21 1828.71 1499.64C1836.05 1505.67 1842.64 1512.93 1848.37 1520.55C1863.44 1540.56 1877.83 1561.07 1892.52 1581.36C1894.68 1584.35 1897 1587.21 1900.16 1591.33C1909.68 1586.45 1918.95 1581.69 1929.89 1576.09C1927.29 1570.17 1925.03 1565.03 1922.77 1559.88C1911.87 1535.01 1900.93 1510.15 1890.07 1485.25C1885.39 1474.55 1886.31 1464.45 1893.92 1455.32C1902.03 1445.6 1911.12 1444.52 1919.79 1453.68C1925.92 1460.15 1931.41 1467.72 1935.29 1475.73C1946.47 1498.73 1956.67 1522.2 1967.25 1545.47C1969.19 1549.71 1971.16 1553.92 1973.55 1559.07C1984.49 1555.41 1994.41 1552.09 2005.75 1548.31C2004.23 1541.76 2002.88 1536.24 2001.67 1530.69C1996.05 1505.21 1990.59 1479.69 1984.85 1454.24C1982.37 1443.29 1986 1434.27 1992.87 1426.2C2001.19 1416.4 2012.11 1415.93 2019.85 1426.33C2025.13 1433.41 2029.44 1441.92 2031.64 1450.45C2037.64 1473.64 2042.27 1497.19 2047.45 1520.59C2048.72 1526.28 2050.01 1531.95 2051.77 1539.77C2062.01 1539.04 2071.81 1538.35 2083.16 1537.53C2083.47 1530.93 2083.95 1525.24 2083.96 1519.55C2084 1495.01 2083.84 1470.48 2083.89 1445.95C2083.89 1440.63 2083.91 1435.21 2084.87 1430.03C2087.01 1418.43 2094.96 1411.77 2105.71 1411.79C2116.4 1411.8 2125.07 1418.35 2127.21 1429.52C2129.03 1438.89 2129.89 1448.52 2130.39 1458.08C2131.52 1479.91 2132.13 1501.77 2133.01 1523.61C2133.19 1527.79 2133.65 1531.95 2134.07 1537.09C2144.65 1537.09 2154.45 1537.09 2165.35 1537.09C2169.77 1515.64 2174 1494.87 2178.37 1474.12C2180.56 1463.69 2182.92 1453.29 2185.4 1442.93C2186.27 1439.33 2187.25 1435.61 2188.99 1432.37C2193.39 1424.11 2200.75 1420.09 2209.97 1420.31C2218.23 1420.49 2225.48 1426.6 2227.41 1436.43C2228.93 1444.11 2229.48 1452.44 2228.23 1460.11C2224.11 1485.32 2218.93 1510.37 2214.27 1535.49C2213.71 1538.53 2213.83 1541.69 2213.53 1546.24C2223.89 1549.35 2233.87 1552.35 2245.08 1555.71C2247.72 1550.29 2250.16 1545.73 2252.21 1540.99C2261.49 1519.45 2270.45 1497.77 2279.99 1476.36C2283.21 1469.12 2287.12 1461.95 2291.95 1455.69C2298.63 1447.04 2307.35 1445.64 2316.05 1450.33C2325.27 1455.29 2330.33 1464.64 2327.52 1474.17C2323.61 1487.44 2319.07 1500.55 2314.07 1513.44C2306.59 1532.68 2298.47 1551.68 2290.05 1572.15C2300.47 1577.27 2309.76 1581.84 2320 1586.87C2324.32 1581.04 2327.85 1576.51 2331.16 1571.8C2345.53 1551.28 2359.79 1530.67 2374.21 1510.19C2376.96 1506.28 2379.95 1502.39 2383.51 1499.25C2391.04 1492.6 2400.81 1492 2408.67 1497.03C2416.84 1502.27 2420.76 1512.76 2417.24 1522.28C2415.23 1527.72 2412.12 1532.83 2408.99 1537.77C2394.19 1561.15 2379.21 1584.41 2363.13 1609.55C2371.35 1616.33 2379.69 1623.23 2388.65 1630.64C2393.51 1626.21 2397.44 1622.75 2401.24 1619.13C2419.01 1602.24 2436.72 1585.27 2454.56 1568.43C2458.04 1565.15 2461.71 1561.91 2465.77 1559.48C2475.36 1553.76 2486.25 1555.32 2493.61 1562.89C2500.16 1569.65 2500.87 1577.43 2494.57 1587.73C2490.72 1594.04 2486 1599.99 2480.84 1605.28C2465.61 1620.96 2449.97 1636.25 2434.48 1651.68C2422.51 1663.6 2422.43 1663.73 2432.67 1676.44C2435.93 1680.49 2439.53 1684.31 2443.63 1688.96C2448.92 1685.89 2453.53 1683.44 2457.91 1680.64C2478.13 1667.71 2498.24 1654.64 2518.48 1641.75C2523.41 1638.61 2528.43 1635.45 2533.79 1633.17C2544.72 1628.52 2554.87 1631.49 2560.44 1640.31C2565.79 1648.75 2564.97 1658.81 2557.05 1666.49C2550.2 1673.13 2542.67 1679.23 2534.81 1684.68C2517.76 1696.56 2500.27 1707.81 2483.07 1719.51C2478.35 1722.71 2474.03 1726.52 2470.17 1729.55C2470.53 1732.23 2470.43 1733.39 2470.84 1734.29C2481.91 1758.12 2482.21 1757.96 2506.37 1748.55C2532.67 1738.29 2559.23 1728.73 2585.68 1718.88C2593.97 1715.8 2601.43 1716.81 2607.51 1723.67C2616.21 1733.47 2614.99 1746.39 2603.97 1754.27C2597.95 1758.57 2591.2 1762.05 2584.41 1765.05C2562.49 1774.75 2540.39 1784.03 2518.36 1793.51C2513.56 1795.57 2508.81 1797.76 2502.81 1800.45C2505.01 1810.35 2507.03 1819.44 2509.43 1830.25C2517.43 1828.97 2524.12 1828.07 2530.76 1826.83C2555.89 1822.15 2581 1817.28 2606.16 1812.69C2611.91 1811.64 2617.81 1810.88 2623.64 1810.97C2632.81 1811.12 2639.57 1816.24 2642.01 1823.81C2644.79 1832.45 2642.71 1841.28 2634.47 1846.31C2626.88 1850.93 2618.32 1854.77 2609.69 1856.79C2584.27 1862.68 2558.59 1867.45 2533.04 1872.75C2527.88 1873.83 2522.8 1875.27 2516.68 1876.77C2516.68 1886.17 2516.68 1895 2516.68 1905.03C2519.68 1905.48 2523.17 1906.44 2526.68 1906.44C2558.67 1906.47 2590.67 1906.23 2622.65 1906.32C2627.91 1906.33 2633.41 1906.87 2638.36 1908.49C2647.44 1911.51 2652.88 1920.24 2652.6 1929.49C2652.32 1938.77 2647.99 1944.76 2637.45 1947.48C2629.81 1949.47 2621.73 1950.25 2613.8 1950.55C2581.33 1951.76 2548.84 1952.56 2515.76 1953.53C2510.17 1962.24 2511.27 1971.67 2511.75 1982.77C2527.43 1985.63 2543.01 1988.33 2558.56 1991.32C2579.48 1995.36 2600.36 1999.55 2621.24 2003.83C2624.85 2004.56 2628.51 2005.67 2631.8 2007.29C2640.92 2011.81 2645.55 2019.55 2644.03 2027.64C2642.27 2036.95 2636.53 2043.65 2627.35 2044.81C2618.52 2045.93 2609.24 2045.41 2600.4 2044.07C2570.37 2039.48 2540.47 2034.19 2510.51 2029.21C2507.93 2028.79 2505.32 2028.65 2500.76 2028.17C2497.73 2037.15 2494.77 2045.91 2491.35 2056.07C2497.17 2058.52 2501.88 2060.63 2506.68 2062.52C2535.44 2073.81 2564.21 2085.07 2592.99 2096.35C2595.96 2097.51 2598.99 2098.6 2601.83 2100.07C2612.12 2105.4 2616.39 2113.77 2613.92 2123.48C2611.53 2132.88 2603.56 2138.95 2592.15 2138.44C2585.36 2138.13 2578.4 2136.63 2571.96 2134.36C2544.81 2124.84 2517.84 2114.83 2490.81 2105C2485.4 2103.04 2479.96 2101.13 2473.07 2098.67C2468.41 2107.28 2464.21 2115.04 2459.16 2124.36C2464.23 2127.99 2468.67 2131.47 2473.4 2134.51C2498.55 2150.6 2523.81 2166.51 2548.91 2182.67C2553.35 2185.52 2557.77 2188.75 2561.27 2192.64C2567.16 2199.21 2567.89 2207.21 2563.96 2215C2560.28 2222.31 2553.53 2226.56 2545.56 2225.05C2536.84 2223.39 2527.81 2220.88 2520.16 2216.53C2495.59 2202.61 2471.6 2187.67 2447.37 2173.12C2442.44 2170.16 2437.47 2167.24 2431.51 2163.72C2425.23 2171.03 2419.44 2177.76 2412.67 2185.64C2417.39 2190.41 2421.28 2194.57 2425.41 2198.49C2445.89 2217.97 2466.44 2237.37 2486.91 2256.87C2490.39 2260.17 2493.96 2263.48 2496.77 2267.31C2501.77 2274.09 2504.19 2281.72 2499.8 2289.72C2495.13 2298.23 2487.01 2300.69 2477.99 2300.03C2467.32 2299.23 2459.16 2293.13 2451.59 2286.19C2432.73 2268.87 2413.89 2251.53 2395.03 2234.24C2391.13 2230.68 2387.11 2227.25 2382.03 2222.79C2377.51 2225.97 2373.19 2228.75 2369.19 2231.93C2365.47 2234.91 2362.11 2238.31 2357.67 2242.36C2360.23 2246.49 2362.45 2250.52 2365.11 2254.25C2380.84 2276.43 2396.71 2298.51 2412.43 2320.68C2415.2 2324.59 2417.91 2328.63 2419.95 2332.93C2424.89 2343.4 2422.31 2354.07 2413.83 2360.03C2405.81 2365.67 2395.16 2365.4 2387.44 2357.92C2379.43 2350.16 2371.93 2341.72 2365.15 2332.87C2351.84 2315.53 2339.19 2297.68 2326.23 2280.08C2323.11 2275.84 2319.83 2271.73 2315.87 2266.57C2306.36 2271.12 2297.44 2275.36 2287.8 2279.97C2290.36 2286.52 2292.28 2291.95 2294.56 2297.2C2305.59 2322.61 2316.91 2347.92 2327.75 2373.41C2334.87 2390.13 2331.97 2402.24 2320.21 2408.25C2309.39 2413.8 2295.83 2408.33 2287.51 2393.03C2278.09 2375.72 2270.17 2357.61 2261.73 2339.8C2255.37 2326.36 2249.2 2312.81 2242.29 2297.92C2232.67 2300.59 2223.68 2303.09 2213 2306.05C2213.83 2312.68 2214.12 2318.88 2215.4 2324.85C2220.55 2348.8 2226.16 2372.65 2231.25 2396.63C2232.69 2403.36 2233.44 2410.33 2233.72 2417.23C2234.17 2428.88 2229.89 2435.03 2220.25 2437.99C2209.97 2441.13 2199.45 2437.27 2194.32 2427.64C2191.6 2422.52 2189.6 2416.87 2188.2 2411.23C2181.55 2384.33 2175.21 2357.37 2168.73 2330.45C2167.73 2326.33 2166.51 2322.27 2165.08 2317.04C2154.04 2317.04 2143.2 2317.04 2131.27 2317.04C2131.27 2324.28 2131.13 2330.53 2131.28 2336.77C2131.88 2362.35 2132.51 2387.93 2133.24 2413.51C2133.57 2425.55 2129.01 2435.23 2119.95 2443C2106.52 2454.55 2092 2450.64 2089.13 2433.35C2086 2414.51 2084.64 2395.28 2083.76 2376.16C2082.88 2357.07 2083.56 2337.91 2083.56 2316.64C2072.8 2315.72 2063.08 2314.89 2051.6 2313.92C2049.05 2326.23 2046.64 2337.51 2044.4 2348.8C2040.16 2370.23 2035.99 2391.68 2031.84 2413.12C2029.91 2423.16 2024.41 2430.75 2015.79 2435.95C2001.56 2444.52 1988.45 2438.73 1986.84 2422.23C1985.81 2411.77 1986.45 2400.85 1988.25 2390.48C1992.51 2365.81 1997.91 2341.36 2002.83 2316.81C2003.64 2312.75 2004.32 2308.65 2005.33 2303.08Z" fill="white"/>
<path fill-rule="evenodd" clip-rule="evenodd" d="M2337.59 2020.51C2345.91 2026.24 2352.71 2030.42 2358.93 2035.35C2367.48 2042.11 2369.17 2048.47 2365.79 2057.8C2362.59 2066.63 2356.61 2072.82 2346.88 2072.08C2338.05 2071.43 2329.36 2068.83 2319.45 2066.86C2320.03 2074.23 2320.8 2082.08 2321.23 2089.95C2321.77 2099.91 2319.92 2109.13 2311.64 2115.87C2306.12 2120.35 2300.33 2124.34 2292.77 2120.79C2284.83 2117.04 2277.03 2112.44 2277.76 2102.22C2279.33 2079.95 2269.61 2061.71 2257.32 2044.71C2251.52 2036.68 2244.39 2028.66 2236.04 2023.62C2205.97 2005.39 2175.13 1988.43 2144.55 1971.08C2143.33 1970.39 2141.68 1970.51 2139 1970.04C2138.52 1975.13 2137.84 1979.71 2137.72 1984.31C2137.03 2010.95 2136.72 2037.62 2135.76 2064.26C2135.31 2076.72 2138.17 2087.75 2147.56 2096.06C2157.87 2105.18 2168.72 2113.68 2179.6 2122.12C2185.47 2126.68 2192.2 2130.15 2197.96 2134.83C2204.97 2140.5 2206.16 2148.44 2203.48 2156.64C2200.96 2164.36 2195 2168.81 2187.08 2170.2C2178.33 2171.73 2170.28 2169.69 2162.55 2165.28C2154.8 2160.84 2146.67 2157.05 2137.41 2152.33C2136.55 2160.89 2136.23 2167.71 2135.09 2174.38C2132.68 2188.66 2125.39 2196.14 2114.08 2196.64C2102.67 2197.15 2094.45 2190.32 2090.71 2176.71C2089.44 2172.12 2088.96 2167.32 2087.79 2160.72C2084.03 2163.58 2080.93 2165.82 2077.95 2168.19C2068.07 2176.1 2057.04 2180.94 2044.17 2180.59C2034.07 2180.31 2026.67 2174.43 2024.33 2165.22C2021.93 2155.67 2025.55 2148.6 2035.63 2143.18C2064.85 2127.47 2084.67 2092.23 2084.25 2059.18C2083.93 2033.62 2085.15 2008.03 2085.63 1982.44C2085.73 1976.79 2085.64 1971.14 2085.64 1963.27C2078.85 1966.44 2074.11 1968.44 2069.55 1970.83C2045.48 1983.47 2021.72 1996.68 1997.35 2008.68C1984.96 2014.78 1976.13 2023.44 1972.73 2036.36C1969.37 2049.06 1967.72 2062.23 1965.75 2075.26C1964.88 2081 1965.75 2087.06 1964.61 2092.72C1962.21 2104.63 1953.05 2111.9 1942.17 2111.48C1930.24 2111.04 1921.07 2103.06 1919.72 2090.63C1918.69 2081.12 1919.07 2071.45 1918.69 2061.87C1918.61 2059.91 1917.99 2057.95 1917.39 2054.75C1913.72 2055.96 1910.8 2056.72 1908.05 2057.88C1903.65 2059.76 1899.49 2062.28 1895 2063.9C1882 2068.58 1870.95 2065.16 1865.77 2055.22C1860.48 2045.03 1863.37 2033.4 1873.4 2025.39C1876.65 2022.79 1880.23 2020.59 1885.83 2016.68C1879.27 2014.28 1874.65 2012.44 1869.95 2010.91C1860 2007.68 1851.57 2002.39 1845.92 1993.39C1841.03 1985.59 1841.4 1976.14 1846.8 1969.47C1852.53 1962.4 1860.19 1961.39 1868.53 1963.17C1869.56 1963.4 1870.59 1963.84 1871.48 1964.39C1895.32 1979.32 1921.88 1975.36 1947.81 1974.97C1953.4 1974.89 1959.39 1972.68 1964.45 1970.04C1993.28 1955 2021.88 1939.58 2050.52 1924.2C2052.32 1923.23 2053.79 1921.64 2057.31 1918.82C2037.72 1907.92 2020.01 1895.99 2000.69 1887.91C1980.21 1879.36 1958.57 1884.9 1937.88 1890.42C1928.68 1892.88 1920 1897.28 1911 1900.56C1906.04 1902.38 1900.97 1904.46 1895.8 1905.07C1885.56 1906.28 1877.71 1901.39 1873.91 1892.6C1870.36 1884.4 1871.63 1876.3 1880.39 1870.02C1893.28 1860.79 1907.29 1853.14 1922.13 1844C1917.99 1841.56 1913.2 1838.82 1908.48 1835.95C1897.12 1829.06 1885.23 1822.87 1874.64 1814.94C1864.45 1807.3 1863 1798.19 1867.79 1788.11C1872.07 1779.12 1879.61 1775.12 1891.96 1777.37C1899.68 1778.79 1907.11 1782.18 1914.41 1785.26C1921.76 1788.35 1928.79 1792.22 1936.01 1795.62C1936.84 1796 1938.05 1795.56 1938.32 1795.55C1938.32 1781.9 1937.87 1768.27 1938.53 1754.71C1938.81 1749.15 1940.13 1742.71 1943.32 1738.37C1953.91 1723.99 1973.97 1726.67 1980.16 1743.44C1983.61 1752.81 1985.19 1763.05 1986.29 1773.04C1988.25 1790.83 1993.71 1807.4 2001.93 1823.07C2004.31 1827.58 2007.85 1832.27 2012.09 1834.83C2034.44 1848.34 2057.15 1861.23 2079.81 1874.2C2081.92 1875.4 2084.6 1875.59 2088.48 1876.64C2089.53 1854.77 2091.33 1834.18 2091.08 1813.6C2091 1806.15 2086.93 1798.23 2083.07 1791.43C2072.89 1773.56 2058.41 1759.46 2041.67 1747.6C2036.01 1743.62 2030.27 1739.64 2025.2 1734.97C2017.04 1727.43 2015.27 1718.65 2019.4 1710.57C2023.29 1702.99 2032.89 1697.83 2042.73 1701.14C2055.2 1705.32 2066.89 1711.87 2078.77 1717.67C2082.33 1719.4 2085.45 1722.04 2091.33 1725.99C2091.33 1713.39 2091 1703.47 2091.43 1693.59C2091.81 1684.58 2092.04 1675.38 2094.13 1666.7C2097.04 1654.62 2103.87 1649.55 2114.05 1649.36C2125.05 1649.18 2134.79 1655.99 2137.28 1667.52C2139.28 1676.82 2139.35 1686.54 2140.19 1696.07C2140.65 1701.26 2140.95 1706.44 2141.49 1713.96C2146.92 1710.98 2150.92 1708.99 2154.71 1706.66C2163.77 1701.06 2172.45 1694.76 2181.83 1689.75C2194.2 1683.14 2205.73 1686.3 2212.48 1697.07C2219.19 1707.78 2217.4 1717.48 2206.36 1726.48C2199.76 1731.86 2192.41 1736.31 2185.67 1741.52C2178.93 1746.71 2172.19 1751.98 2166.04 1757.83C2149.96 1773.11 2140.09 1790.33 2142.84 1814.31C2144.75 1831.04 2141.87 1848.31 2141.23 1865.34C2141.11 1868.44 2141.47 1871.58 2141.67 1875.96C2145.89 1874.55 2149.41 1873.8 2152.55 1872.26C2166.88 1865.15 2181 1857.66 2195.36 1850.66C2206.84 1845.06 2214.95 1836.47 2221.2 1825.43C2231.13 1807.96 2236.76 1789.32 2238.69 1769.43C2239.2 1764.14 2239.67 1758.75 2241.04 1753.66C2244.35 1741.39 2252.45 1734.77 2262.2 1735.64C2272.73 1736.57 2282.93 1746.68 2283.76 1758.07C2284.33 1766.02 2283.65 1774.04 2283.59 1782.04C2283.53 1787.31 2283.57 1792.59 2283.57 1800.76C2290.04 1797.5 2294.85 1794.9 2299.81 1792.6C2312.33 1786.82 2324.57 1780.11 2337.59 1775.74C2350.97 1771.24 2359.83 1775.42 2364.69 1785.5C2369.72 1795.88 2367.73 1804.66 2356.87 1813.59C2349.92 1819.31 2341.89 1823.71 2334.32 1828.67C2329.56 1831.78 2324.76 1834.83 2318.12 1839.11C2332.47 1845.63 2344.45 1851.22 2356.55 1856.54C2364.99 1860.24 2370.63 1865.88 2371.59 1875.47C2373.05 1889.94 2363.36 1900.93 2348.88 1899.51C2341.67 1898.81 2334.75 1895.23 2327.65 1893.07C2310.39 1887.82 2293.23 1882.18 2275.79 1877.6C2264.09 1874.55 2252.83 1876.87 2241.92 1882.79C2217.13 1896.26 2191.97 1909.02 2165.75 1922.7C2168.56 1925.28 2170.43 1927.69 2172.87 1929.11C2201.91 1945.95 2231.04 1962.63 2260.13 1979.36C2270.39 1985.27 2281.61 1986.68 2292.63 1983.7C2305.39 1980.22 2317.76 1975.19 2330.12 1970.39C2337.05 1967.71 2343.43 1963.47 2350.44 1961.11C2361.33 1957.47 2372.09 1962.5 2377.33 1972.62C2382.17 1981.95 2380.64 1990.37 2370.92 1997.91C2360.91 2005.65 2349.96 2012.2 2337.59 2020.51Z" fill="white"/>
<path fill-rule="evenodd" clip-rule="evenodd" d="M2014.89 2041.52C2014.67 2029.12 2025.53 2017.99 2037.87 2017.95C2049.27 2017.92 2058.73 2027.4 2059.15 2039.27C2059.59 2051.65 2050.07 2063.39 2039.13 2063.96C2027.16 2064.59 2015.12 2053.44 2014.89 2041.52Z" fill="white"/>
<path fill-rule="evenodd" clip-rule="evenodd" d="M2042.95 1825.52C2030.19 1825.53 2021.11 1817.29 2020.92 1805.51C2020.72 1793.2 2030.83 1783 2042.95 1783.27C2054.41 1783.53 2063.72 1793.09 2064 1804.91C2064.31 1817.21 2055.84 1825.49 2042.95 1825.52Z" fill="white"/>
<path fill-rule="evenodd" clip-rule="evenodd" d="M1959.49 1945.59C1947.04 1945.48 1938.2 1936.93 1938.13 1924.93C1938.07 1912.25 1947.19 1903.93 1960.8 1904.27C1973.85 1904.59 1981.25 1912.29 1981.04 1925.35C1980.84 1937.51 1972.12 1945.69 1959.49 1945.59Z" fill="white"/>
<path fill-rule="evenodd" clip-rule="evenodd" d="M2189.23 1777.08C2200.17 1777.23 2207.37 1785.12 2207.27 1796.85C2207.16 1809.35 2198.63 1818.12 2186.52 1818.23C2174.4 1818.33 2165.71 1810.05 2166.13 1798.81C2166.6 1787 2177.32 1776.91 2189.23 1777.08Z" fill="white"/>
<path fill-rule="evenodd" clip-rule="evenodd" d="M2207.28 2040.31C2207.4 2052 2197.79 2061.44 2186.05 2061.16C2175.28 2060.91 2166.85 2052.84 2166.37 2042.31C2165.83 2030.71 2175.23 2020.75 2186.83 2020.63C2198.27 2020.51 2207.17 2029.08 2207.28 2040.31Z" fill="white"/>
<path fill-rule="evenodd" clip-rule="evenodd" d="M2279.56 1927.37C2279.24 1938.79 2270.21 1946.57 2258.08 1945.89C2246.52 1945.25 2238.63 1937.17 2239.17 1926.51C2239.72 1915.59 2249.44 1906.17 2260.07 1906.27C2271.05 1906.37 2279.89 1915.93 2279.56 1927.37Z" fill="white"/>
</svg>
