<svg width="372" height="61" viewBox="0 0 372 61" fill="none" xmlns="http://www.w3.org/2000/svg">
<path d="M115.85 5.93641H95.7869V10.9523H110.517C113.484 10.9523 115.85 13.3543 115.85 16.2861V20.6662C115.85 23.6333 113.484 25.9999 110.517 25.9999H90.771V20.9841H110.835V15.9682H96.1048C93.1376 15.9682 90.771 13.5662 90.771 10.6344V6.25432C90.771 3.28718 93.1376 0.920532 96.1048 0.920532H115.85V5.93641Z" fill="white"/>
<path d="M140.172 0.920532C143.139 0.920532 145.541 3.28718 145.541 6.25432V20.6662C145.541 23.6333 143.139 25.9999 140.172 25.9999H124.736C121.769 25.9999 119.402 23.6333 119.402 20.6662V6.25432C119.402 3.28718 121.769 0.920532 124.736 0.920532H140.172ZM140.49 5.93641H124.418V20.9841H140.49V5.93641Z" fill="white"/>
<path d="M154.472 20.8074H174.041V26.2119H152.53C150.622 26.2119 149.068 24.6577 149.068 22.7502V0.708618H154.472V20.8074Z" fill="white"/>
<path d="M199.355 0.920532C201.757 0.920532 203.7 2.82798 203.7 5.22995V25.9999H198.649V17.7697H182.577V25.9999H177.561V5.22995C177.561 2.82798 179.468 0.920532 181.87 0.920532H199.355ZM198.649 5.93641H182.577V12.7538H198.649V5.93641Z" fill="white"/>
<path d="M228.315 0.920532H233.366V22.7502C233.366 24.5517 231.882 25.9999 230.081 25.9999H226.195C224.959 26.0353 223.864 25.3641 223.299 24.2691L213.55 5.93641H212.243V25.9999H207.227V4.20558C207.227 2.36878 208.675 0.920532 210.476 0.920532H214.574C215.775 0.920532 216.905 1.55635 217.47 2.65137L227.22 20.9841H228.315V0.920532Z" fill="white"/>
<path d="M258.687 0.920532C261.089 0.920532 263.032 2.82798 263.032 5.22995V25.9999H257.98V17.7697H241.908V25.9999H236.893V5.22995C236.893 2.82798 238.8 0.920532 241.202 0.920532H258.687ZM257.98 5.93641H241.908V12.7538H257.98V5.93641Z" fill="white"/>
<path d="M115.356 38.9365H95.7869V43.9524H115.356V48.9683H95.7869V59H90.771V33.9207H115.356V38.9365Z" fill="white"/>
<path d="M139.655 33.9207C142.622 33.9207 145.024 36.2873 145.024 39.2544V53.6663C145.024 56.6334 142.622 59 139.655 59H124.218C121.251 59 118.885 56.6334 118.885 53.6663V39.2544C118.885 36.2873 121.251 33.9207 124.218 33.9207H139.655ZM139.972 38.9365H123.9V53.9842H139.972V38.9365Z" fill="white"/>
<path d="M169.638 33.9207H174.69V50.5931C174.654 55.2558 170.91 59 166.247 59H156.957C152.295 59 148.55 55.2558 148.55 50.5931V33.9207H153.566V49.5688C153.566 52.0061 155.544 53.9842 157.982 53.9842H165.223C167.66 53.9842 169.638 52.0061 169.638 49.5688V33.9207Z" fill="white"/>
<path d="M199.304 33.9207H204.355V55.7503C204.355 57.5518 202.872 59 201.07 59H197.185C195.948 59.0354 194.853 58.3642 194.288 57.2692L184.539 38.9365H183.232V59H178.216V37.2057C178.216 35.3689 179.665 33.9207 181.466 33.9207H185.564C186.764 33.9207 187.895 34.5565 188.46 35.6515L198.209 53.9842H199.304V33.9207Z" fill="white"/>
<path d="M225.579 33.9207C230.242 33.9207 233.986 37.7002 234.021 42.3275V50.5931C233.986 55.2558 230.242 59 225.579 59H207.882V33.9207H225.579ZM228.97 43.3872C228.97 40.9146 226.992 38.9365 224.555 38.9365H212.898V53.9842H224.555C226.992 53.9842 228.97 52.0061 228.97 49.5688V43.3872Z" fill="white"/>
<path d="M259.342 33.9207C261.744 33.9207 263.687 35.8281 263.687 38.2301V59H258.636V50.7698H242.564V59H237.548V38.2301C237.548 35.8281 239.455 33.9207 241.857 33.9207H259.342ZM258.636 38.9365H242.564V45.7539H258.636V38.9365Z" fill="white"/>
<path d="M267.214 33.9207H292.293V38.9365H282.262V59H277.246V38.9365H267.214V33.9207Z" fill="white"/>
<path d="M300.861 59H295.845V33.9207H300.861V59Z" fill="white"/>
<path d="M325.17 33.9207C328.137 33.9207 330.539 36.2873 330.539 39.2544V53.6663C330.539 56.6334 328.137 59 325.17 59H309.733C306.766 59 304.4 56.6334 304.4 53.6663V39.2544C304.4 36.2873 306.766 33.9207 309.733 33.9207H325.17ZM325.488 38.9365H309.416V53.9842H325.488V38.9365Z" fill="white"/>
<path d="M355.153 33.9207H360.205V55.7503C360.205 57.5518 358.721 59 356.92 59H353.034C351.798 59.0354 350.703 58.3642 350.138 57.2692L340.388 38.9365H339.081V59H334.066V37.2057C334.066 35.3689 335.514 33.9207 337.315 33.9207H341.413C342.614 33.9207 343.744 34.5565 344.309 35.6515L354.058 53.9842H355.153V33.9207Z" fill="white"/>
<mask id="mask0_187_214" style="mask-type:luminance" maskUnits="userSpaceOnUse" x="0" y="1" width="65" height="59">
<path d="M64.8493 1.62671H0V59.7299H64.8493V1.62671Z" fill="white"/>
</mask>
<g mask="url(#mask0_187_214)">
<path d="M64.5151 47.4369L53.81 58.9386C53.5773 59.1884 53.2957 59.3876 52.9828 59.5238C52.6699 59.6599 52.3324 59.7301 51.9913 59.7299H1.24281C1.00066 59.7299 0.763792 59.659 0.5613 59.526C0.358808 59.393 0.199517 59.2036 0.102999 58.9811C0.00647998 58.7586 -0.023062 58.5128 0.0180025 58.2737C0.059067 58.0346 0.168949 57.8128 0.334148 57.6354L11.0475 46.1338C11.2796 45.8846 11.5603 45.6858 11.8722 45.5497C12.1841 45.4136 12.5205 45.343 12.8607 45.3424H63.6064C63.8486 45.3425 64.0855 45.4133 64.288 45.5464C64.4905 45.6794 64.6497 45.8688 64.7463 46.0912C64.8428 46.3137 64.8723 46.5596 64.8313 46.7987C64.7902 47.0377 64.6803 47.2596 64.5151 47.4369ZM53.81 24.2759C53.5773 24.026 53.2957 23.8268 52.9828 23.6907C52.6699 23.5546 52.3324 23.4844 51.9913 23.4846H1.24281C1.00066 23.4846 0.763792 23.5555 0.5613 23.6885C0.358808 23.8215 0.199517 24.0109 0.102999 24.2334C0.00647998 24.4558 -0.023062 24.7017 0.0180025 24.9408C0.059067 25.1799 0.168949 25.4017 0.334148 25.5791L11.0475 37.0807C11.2796 37.3299 11.5603 37.5287 11.8722 37.6648C12.1841 37.8009 12.5205 37.8715 12.8607 37.872H63.6064C63.8486 37.872 64.0855 37.8012 64.288 37.6681C64.4905 37.5351 64.6497 37.3457 64.7463 37.1232C64.8428 36.9008 64.8723 36.6549 64.8313 36.4158C64.7902 36.1768 64.6803 35.9549 64.5151 35.7776L53.81 24.2759ZM1.24281 16.0142H51.9913C52.3324 16.0143 52.6699 15.9442 52.9828 15.808C53.2957 15.6719 53.5773 15.4727 53.81 15.2229L64.5151 3.72119C64.6803 3.54383 64.7902 3.32199 64.8313 3.08292C64.8723 2.84385 64.8428 2.59798 64.7463 2.3755C64.6497 2.15302 64.4905 1.96364 64.288 1.83061C64.0855 1.69759 63.8486 1.62672 63.6064 1.62671H12.8607C12.5205 1.62729 12.1841 1.69782 11.8722 1.83393C11.5603 1.97004 11.2796 2.16884 11.0475 2.41802L0.33691 13.9197C0.17187 14.0969 0.0620369 14.3185 0.0208792 14.5573C-0.0202785 14.7961 0.00902908 15.0417 0.105208 15.2641C0.201386 15.4865 0.360254 15.6759 0.562329 15.8091C0.764403 15.9424 1.0009 16.0136 1.24281 16.0142Z" fill="white"/>
</g>
</svg>
