<svg width="94" height="13" viewBox="0 0 94 13" fill="none" xmlns="http://www.w3.org/2000/svg">
<path d="M4.37244 12.192C3.41244 12.192 2.59644 12.0213 1.92444 11.68C1.2631 11.3387 0.692436 10.8907 0.212436 10.336L1.63644 8.96C2.02044 9.408 2.4471 9.74933 2.91644 9.984C3.39644 10.2187 3.92444 10.336 4.50044 10.336C5.1511 10.336 5.64177 10.1973 5.97244 9.92C6.3031 9.632 6.46844 9.248 6.46844 8.768C6.46844 8.39467 6.36177 8.09067 6.14844 7.856C5.9351 7.62133 5.5351 7.45067 4.94844 7.344L3.89244 7.184C1.6631 6.832 0.548436 5.74933 0.548436 3.936C0.548436 3.43467 0.639103 2.98133 0.820436 2.576C1.01244 2.17067 1.28444 1.824 1.63644 1.536C1.98844 1.248 2.40977 1.02933 2.90044 0.879999C3.40177 0.719999 3.9671 0.639999 4.59644 0.639999C5.4391 0.639999 6.1751 0.778666 6.80444 1.056C7.43377 1.33333 7.97244 1.744 8.42044 2.288L6.98044 3.648C6.7031 3.30667 6.3671 3.02933 5.97244 2.816C5.57777 2.60267 5.08177 2.496 4.48444 2.496C3.87644 2.496 3.41777 2.61333 3.10844 2.848C2.80977 3.072 2.66044 3.392 2.66044 3.808C2.66044 4.23467 2.7831 4.54933 3.02844 4.752C3.27377 4.95467 3.66844 5.104 4.21244 5.2L5.25244 5.392C6.3831 5.59467 7.2151 5.95733 7.74844 6.48C8.29244 6.992 8.56444 7.712 8.56444 8.64C8.56444 9.17333 8.46844 9.65867 8.27644 10.096C8.0951 10.5227 7.8231 10.896 7.46044 11.216C7.10844 11.5253 6.6711 11.7653 6.14844 11.936C5.63644 12.1067 5.04444 12.192 4.37244 12.192ZM14.7457 12.192C14.0097 12.192 13.343 12.0693 12.7457 11.824C12.1484 11.5787 11.6364 11.2107 11.2097 10.72C10.7937 10.2293 10.4684 9.62667 10.2337 8.912C9.99902 8.19733 9.88169 7.36533 9.88169 6.416C9.88169 5.47733 9.99902 4.65067 10.2337 3.936C10.4684 3.21067 10.7937 2.60267 11.2097 2.112C11.6364 1.62133 12.1484 1.25333 12.7457 1.008C13.343 0.762666 14.0097 0.639999 14.7457 0.639999C15.4817 0.639999 16.1484 0.762666 16.7457 1.008C17.343 1.25333 17.855 1.62133 18.2817 2.112C18.7084 2.60267 19.0337 3.21067 19.2577 3.936C19.4924 4.65067 19.6097 5.47733 19.6097 6.416C19.6097 7.36533 19.4924 8.19733 19.2577 8.912C19.0337 9.62667 18.7084 10.2293 18.2817 10.72C17.855 11.2107 17.343 11.5787 16.7457 11.824C16.1484 12.0693 15.4817 12.192 14.7457 12.192ZM14.7457 10.32C15.5457 10.32 16.1804 10.0533 16.6497 9.52C17.1297 8.98667 17.3697 8.24 17.3697 7.28V5.552C17.3697 4.592 17.1297 3.84533 16.6497 3.312C16.1804 2.77867 15.5457 2.512 14.7457 2.512C13.9457 2.512 13.3057 2.77867 12.8257 3.312C12.3564 3.84533 12.1217 4.592 12.1217 5.552V7.28C12.1217 8.24 12.3564 8.98667 12.8257 9.52C13.3057 10.0533 13.9457 10.32 14.7457 10.32ZM21.4323 12V0.832H23.5443V10.128H27.9443V12H21.4323ZM29.4561 0.832H34.6241C35.0827 0.832 35.4934 0.901333 35.8561 1.04C36.2294 1.17867 36.5441 1.37067 36.8001 1.616C37.0561 1.86133 37.2481 2.16533 37.3761 2.528C37.5147 2.88 37.5841 3.26933 37.5841 3.696C37.5841 4.12267 37.5254 4.48533 37.4081 4.784C37.3014 5.072 37.1521 5.312 36.9601 5.504C36.7787 5.696 36.5654 5.84 36.3201 5.936C36.0854 6.032 35.8401 6.08533 35.5841 6.096V6.192C35.8294 6.192 36.0907 6.24 36.3681 6.336C36.6561 6.432 36.9174 6.58667 37.1521 6.8C37.3974 7.00267 37.6001 7.26933 37.7601 7.6C37.9201 7.92 38.0001 8.32 38.0001 8.8C38.0001 9.248 37.9254 9.66933 37.7761 10.064C37.6374 10.448 37.4401 10.784 37.1841 11.072C36.9281 11.36 36.6241 11.5893 36.2721 11.76C35.9201 11.92 35.5361 12 35.1201 12H29.4561V0.832ZM31.5681 10.208H34.5121C34.9174 10.208 35.2321 10.1067 35.4561 9.904C35.6801 9.69067 35.7921 9.38667 35.7921 8.992V8.448C35.7921 8.05333 35.6801 7.74933 35.4561 7.536C35.2321 7.32267 34.9174 7.216 34.5121 7.216H31.5681V10.208ZM31.5681 5.488H34.1761C34.5601 5.488 34.8587 5.38667 35.0721 5.184C35.2854 4.97067 35.3921 4.67733 35.3921 4.304V3.808C35.3921 3.43467 35.2854 3.14667 35.0721 2.944C34.8587 2.73067 34.5601 2.624 34.1761 2.624H31.5681V5.488ZM44.1294 12.192C43.3934 12.192 42.7268 12.0693 42.1294 11.824C41.5321 11.5787 41.0201 11.2107 40.5934 10.72C40.1774 10.2293 39.8521 9.62667 39.6174 8.912C39.3828 8.19733 39.2654 7.36533 39.2654 6.416C39.2654 5.47733 39.3828 4.65067 39.6174 3.936C39.8521 3.21067 40.1774 2.60267 40.5934 2.112C41.0201 1.62133 41.5321 1.25333 42.1294 1.008C42.7268 0.762666 43.3934 0.639999 44.1294 0.639999C44.8654 0.639999 45.5321 0.762666 46.1294 1.008C46.7268 1.25333 47.2388 1.62133 47.6654 2.112C48.0921 2.60267 48.4174 3.21067 48.6414 3.936C48.8761 4.65067 48.9934 5.47733 48.9934 6.416C48.9934 7.36533 48.8761 8.19733 48.6414 8.912C48.4174 9.62667 48.0921 10.2293 47.6654 10.72C47.2388 11.2107 46.7268 11.5787 46.1294 11.824C45.5321 12.0693 44.8654 12.192 44.1294 12.192ZM44.1294 10.32C44.9294 10.32 45.5641 10.0533 46.0334 9.52C46.5134 8.98667 46.7534 8.24 46.7534 7.28V5.552C46.7534 4.592 46.5134 3.84533 46.0334 3.312C45.5641 2.77867 44.9294 2.512 44.1294 2.512C43.3294 2.512 42.6894 2.77867 42.2094 3.312C41.7401 3.84533 41.5054 4.592 41.5054 5.552V7.28C41.5054 8.24 41.7401 8.98667 42.2094 9.52C42.6894 10.0533 43.3294 10.32 44.1294 10.32ZM52.8161 0.832V7.696C52.8161 8.57067 52.9814 9.22667 53.3121 9.664C53.6534 10.1013 54.2241 10.32 55.0241 10.32C55.8241 10.32 56.3894 10.1013 56.7201 9.664C57.0614 9.22667 57.2321 8.57067 57.2321 7.696V0.832H59.3121V7.424C59.3121 8.24533 59.2321 8.95467 59.0721 9.552C58.9227 10.1493 58.6774 10.6453 58.3361 11.04C57.9947 11.4347 57.5467 11.728 56.9921 11.92C56.4481 12.1013 55.7867 12.192 55.0081 12.192C54.2187 12.192 53.5521 12.1013 53.0081 11.92C52.4747 11.728 52.0374 11.4347 51.6961 11.04C51.3547 10.6453 51.1094 10.1493 50.9601 9.552C50.8107 8.95467 50.7361 8.24533 50.7361 7.424V0.832H52.8161ZM64.7429 6.272L63.5909 3.952H63.5429V12H61.5429V0.832H63.8629L67.2229 6.56L68.3749 8.88H68.4229V0.832H70.4229V12H68.1029L64.7429 6.272ZM72.7229 0.832H76.7869C77.5123 0.832 78.1683 0.949333 78.7549 1.184C79.3523 1.41867 79.8589 1.77067 80.2749 2.24C80.7016 2.69867 81.0269 3.28 81.2509 3.984C81.4856 4.67733 81.6029 5.488 81.6029 6.416C81.6029 7.344 81.4856 8.16 81.2509 8.864C81.0269 9.55733 80.7016 10.1387 80.2749 10.608C79.8589 11.0667 79.3523 11.4133 78.7549 11.648C78.1683 11.8827 77.5123 12 76.7869 12H72.7229V0.832ZM76.7869 10.128C77.5763 10.128 78.2003 9.89867 78.6589 9.44C79.1283 8.97067 79.3629 8.256 79.3629 7.296V5.536C79.3629 4.576 79.1283 3.86667 78.6589 3.408C78.2003 2.93867 77.5763 2.704 76.7869 2.704H74.8349V10.128H76.7869ZM88.4262 12.192C87.6262 12.192 86.8902 12.0587 86.2182 11.792C85.5462 11.5253 84.9649 11.1413 84.4742 10.64C83.9942 10.1387 83.6155 9.536 83.3382 8.832C83.0609 8.11733 82.9222 7.312 82.9222 6.416C82.9222 5.52 83.0609 4.72 83.3382 4.016C83.6155 3.30133 83.9942 2.69333 84.4742 2.192C84.9649 1.69067 85.5462 1.30667 86.2182 1.04C86.8902 0.773333 87.6262 0.639999 88.4262 0.639999C89.2155 0.639999 89.9462 0.773333 90.6182 1.04C91.2902 1.30667 91.8715 1.69067 92.3622 2.192C92.8529 2.69333 93.2369 3.30133 93.5142 4.016C93.7915 4.72 93.9302 5.52 93.9302 6.416C93.9302 7.312 93.7915 8.11733 93.5142 8.832C93.2369 9.536 92.8529 10.1387 92.3622 10.64C91.8715 11.1413 91.2902 11.5253 90.6182 11.792C89.9462 12.0587 89.2155 12.192 88.4262 12.192ZM88.4262 11.184C89.0555 11.184 89.6369 11.0773 90.1702 10.864C90.7035 10.64 91.1622 10.3413 91.5462 9.968C91.9302 9.584 92.2289 9.136 92.4422 8.624C92.6555 8.10133 92.7622 7.54133 92.7622 6.944V5.888C92.7622 5.29067 92.6555 4.736 92.4422 4.224C92.2289 3.70133 91.9302 3.25333 91.5462 2.88C91.1622 2.496 90.7035 2.19733 90.1702 1.984C89.6369 1.76 89.0555 1.648 88.4262 1.648C87.7969 1.648 87.2155 1.76 86.6822 1.984C86.1489 2.19733 85.6902 2.496 85.3062 2.88C84.9222 3.25333 84.6182 3.70133 84.3942 4.224C84.1809 4.736 84.0742 5.29067 84.0742 5.888V6.944C84.0742 7.54133 84.1809 8.10133 84.3942 8.624C84.6182 9.136 84.9222 9.584 85.3062 9.968C85.6902 10.3413 86.1489 10.64 86.6822 10.864C87.2155 11.0773 87.7969 11.184 88.4262 11.184ZM88.5382 9.76C88.0475 9.76 87.6102 9.68 87.2262 9.52C86.8422 9.36 86.5169 9.136 86.2502 8.848C85.9835 8.54933 85.7755 8.19733 85.6262 7.792C85.4875 7.376 85.4182 6.91733 85.4182 6.416C85.4182 5.91467 85.4875 5.46133 85.6262 5.056C85.7755 4.64 85.9835 4.288 86.2502 4C86.5169 3.70133 86.8422 3.472 87.2262 3.312C87.6102 3.152 88.0475 3.072 88.5382 3.072C89.2422 3.072 89.8075 3.22667 90.2342 3.536C90.6715 3.84533 90.9969 4.256 91.2102 4.768L89.8022 5.456C89.6849 5.17867 89.5302 4.95467 89.3382 4.784C89.1462 4.61333 88.8795 4.528 88.5382 4.528C88.1542 4.528 87.8555 4.64533 87.6422 4.88C87.4289 5.11467 87.3222 5.424 87.3222 5.808V7.024C87.3222 7.408 87.4289 7.71733 87.6422 7.952C87.8555 8.18667 88.1542 8.304 88.5382 8.304C88.8795 8.304 89.1569 8.21867 89.3702 8.048C89.5942 7.86667 89.7809 7.63733 89.9302 7.36L91.3222 8.048C91.1089 8.528 90.7835 8.93333 90.3462 9.264C89.9089 9.59467 89.3062 9.76 88.5382 9.76Z" fill="#F8F8F8"/>
</svg>
