<svg width="309" height="104" viewBox="0 0 309 104" fill="none" xmlns="http://www.w3.org/2000/svg">
<g clip-path="url(#clip0_219_25)">
<path d="M140.683 49.8268C140.355 49.3647 139.991 48.9661 139.572 48.6309C139.153 48.2957 138.715 48.024 138.251 47.8065C137.786 47.5891 137.322 47.426 136.857 47.3263C136.393 47.2267 135.946 47.1633 135.527 47.1543H135.5H126.573C125.835 47.1543 125.261 46.9368 124.851 46.511C124.441 46.0762 124.232 45.4963 124.232 44.7535C124.232 44.0197 124.441 43.4307 124.851 42.9868C125.261 42.543 125.835 42.3165 126.573 42.3165H139.781V38.457H126.573C125.944 38.457 125.271 38.5658 124.542 38.7923C123.813 39.0188 123.139 39.3721 122.519 39.8794C121.9 40.3776 121.381 41.0299 120.971 41.8272C120.561 42.6245 120.352 43.6028 120.352 44.7625C120.352 45.9221 120.561 46.9007 120.971 47.6978C121.381 48.495 121.9 49.1473 122.519 49.6456C123.139 50.1439 123.813 50.4972 124.542 50.7237C125.271 50.9502 125.944 51.0589 126.573 51.0589H135.5C135.855 51.0589 136.183 51.1223 136.475 51.2401C136.766 51.3579 137.021 51.5301 137.222 51.7475C137.422 51.9648 137.586 52.2185 137.695 52.5176C137.805 52.8165 137.859 53.1427 137.859 53.4959C137.859 54.2298 137.65 54.8097 137.24 55.2444C136.83 55.6793 136.247 55.8967 135.5 55.8967H120.525V59.756H135.5C135.919 59.756 136.365 59.7108 136.839 59.6112C137.313 59.5115 137.777 59.3576 138.233 59.1491C138.688 58.9407 139.134 58.6781 139.563 58.3518C139.991 58.0258 140.364 57.6271 140.683 57.165C141.002 56.7029 141.257 56.1595 141.448 55.5524C141.639 54.9455 141.74 54.2569 141.74 53.4959C141.74 52.7349 141.649 52.0555 141.457 51.4484C141.266 50.8324 141.011 50.2979 140.683 49.8268Z" fill="white"/>
<path d="M164.895 40.6753C164.103 39.8871 163.155 39.2711 162.062 38.8272C160.969 38.3832 159.785 38.1567 158.5 38.1567H153.245C151.96 38.1567 150.767 38.3832 149.674 38.8272C148.581 39.2711 147.633 39.8871 146.841 40.6753C146.048 41.4634 145.42 42.4057 144.964 43.4928C144.509 44.58 144.281 45.7759 144.281 47.0623V51.13C144.281 52.4255 144.509 53.6215 144.964 54.7085C145.42 55.7958 146.039 56.738 146.841 57.5262C147.633 58.3143 148.581 58.9304 149.674 59.3742C150.767 59.8181 151.96 60.0357 153.245 60.0357H158.5C159.785 60.0357 160.969 59.8181 162.062 59.3742C163.155 58.9304 164.093 58.3143 164.895 57.5262C165.687 56.738 166.316 55.7958 166.762 54.7085C167.209 53.6215 167.436 52.4255 167.436 51.13V47.0623C167.436 45.7759 167.209 44.5891 166.762 43.4928C166.316 42.3966 165.687 41.4634 164.895 40.6753ZM163.547 51.1392C163.547 51.9002 163.428 52.5886 163.182 53.2137C162.937 53.8297 162.59 54.3644 162.144 54.7992C161.698 55.243 161.16 55.5784 160.541 55.8229C159.921 56.0675 159.229 56.1853 158.473 56.1853H153.245C152.489 56.1853 151.796 56.0675 151.177 55.8229C150.557 55.5784 150.02 55.243 149.574 54.7992C149.127 54.3553 148.781 53.8297 148.535 53.2137C148.289 52.5977 148.171 51.9091 148.171 51.1392V47.0714C148.171 46.3104 148.289 45.6218 148.535 44.9967C148.781 44.3807 149.127 43.8462 149.574 43.4112C150.02 42.9674 150.557 42.6322 151.177 42.3875C151.796 42.1429 152.489 42.0251 153.245 42.0251H158.5C159.247 42.0251 159.931 42.1429 160.55 42.3875C161.169 42.6322 161.707 42.9674 162.144 43.4112C162.59 43.8553 162.927 44.3807 163.173 44.9967C163.419 45.6127 163.538 46.3013 163.538 47.0714V51.1392H163.547Z" fill="white"/>
<path d="M175.142 38.458H171.262V57.8003C171.262 58.0812 171.307 58.3348 171.408 58.5703C171.508 58.8059 171.644 59.0143 171.817 59.1864C171.991 59.3584 172.2 59.4945 172.437 59.594C172.674 59.6938 172.938 59.739 173.211 59.739H190.919V55.8797H175.142V38.458Z" fill="white"/>
<path d="M194.955 38.6033C194.719 38.703 194.509 38.8389 194.336 39.0201C194.163 39.2012 194.026 39.4097 193.926 39.6453C193.826 39.8807 193.78 40.1344 193.78 40.4063V59.7484H197.661V51.0512H213.21V47.1646H197.661V42.3269H213.219V38.4674H195.739C195.456 38.4585 195.192 38.5037 194.955 38.6033Z" fill="white"/>
<path d="M220.232 38.458H216.353V57.8003C216.353 58.0812 216.397 58.3348 216.498 58.5703C216.598 58.8059 216.735 59.0143 216.908 59.1864C217.081 59.3584 217.29 59.4945 217.528 59.594C217.763 59.6938 218.029 59.739 218.302 59.739H236.009V55.8797H220.232V38.458Z" fill="white"/>
<path d="M259.291 39.0198C259.11 38.8386 258.9 38.7027 258.663 38.603C258.426 38.5034 258.172 38.458 257.898 38.458H249.153C247.613 38.458 246.184 38.7208 244.881 39.2463C243.578 39.7717 242.449 40.5055 241.492 41.4478C240.536 42.3899 239.789 43.5132 239.252 44.8178C238.715 46.1225 238.449 47.5538 238.449 49.1121V59.7571H242.331V54.5207H255.976V59.7481H259.856V40.4058C259.856 40.1432 259.81 39.8895 259.711 39.6448C259.611 39.4094 259.474 39.2009 259.291 39.0198ZM255.976 50.6612H242.339V49.1031C242.339 48.025 242.494 47.1099 242.796 46.3489C243.096 45.588 243.488 44.9628 243.951 44.4555C244.416 43.9482 244.935 43.5586 245.49 43.2687C246.047 42.9787 246.575 42.7705 247.086 42.6346C247.587 42.4986 248.032 42.4081 248.416 42.3718C248.798 42.3355 249.052 42.3175 249.171 42.3175H255.994V50.6612H255.976Z" fill="white"/>
<path d="M280.107 52.6182C280.653 52.5095 281.19 52.3373 281.719 52.0928C282.247 51.8481 282.758 51.5401 283.249 51.1686C283.742 50.7882 284.17 50.3443 284.543 49.8098C284.917 49.2842 285.217 48.6682 285.436 47.9796C285.653 47.2912 285.764 46.503 285.764 45.6151V43.1509C285.764 42.6798 285.682 42.1634 285.517 41.6198C285.354 41.0763 285.08 40.569 284.707 40.0978C284.333 39.6268 283.85 39.2372 283.249 38.9292C282.649 38.6212 281.919 38.458 281.053 38.458H266.325C266.043 38.458 265.788 38.5034 265.55 38.603C265.313 38.7027 265.104 38.8386 264.93 39.0198C264.757 39.2009 264.621 39.4094 264.522 39.6448C264.421 39.8804 264.375 40.1341 264.375 40.4058V59.7481H268.257V52.7812H272.601L280.689 59.7481H286.692L278.586 52.7812C279.059 52.7812 279.57 52.7269 280.107 52.6182ZM268.247 48.9219V42.3175H281.053C281.136 42.3175 281.218 42.3264 281.319 42.3355C281.409 42.3447 281.5 42.3809 281.582 42.4353C281.665 42.4896 281.737 42.5712 281.792 42.689C281.846 42.8066 281.874 42.9698 281.874 43.1872V45.6242C281.874 46.1316 281.792 46.5754 281.637 46.965C281.482 47.3545 281.254 47.6898 280.954 47.9707C280.663 48.2515 280.317 48.4689 279.906 48.6319C279.506 48.795 279.059 48.8947 278.568 48.9399H268.247V48.9219Z" fill="white"/>
<path d="M308.999 42.3175V38.458H291.519C291.237 38.458 290.981 38.5034 290.745 38.603C290.508 38.7027 290.299 38.8386 290.126 39.0198C289.953 39.2009 289.816 39.4094 289.715 39.6448C289.615 39.8804 289.57 40.1341 289.57 40.4058V54.3304C289.57 55.327 289.752 56.1695 290.116 56.8581C290.48 57.5467 290.937 58.1083 291.474 58.5341C292.02 58.9689 292.603 59.2769 293.241 59.4582C293.879 59.6484 294.462 59.739 295 59.739H308.999V55.8797H295.026C294.507 55.8797 294.116 55.7437 293.851 55.481C293.587 55.2183 293.45 54.8287 293.45 54.3214V51.0418H308.881V47.1553H293.45V42.3175H308.999Z" fill="white"/>
<path d="M52.6105 100.072C53.7079 100.072 54.5975 100.951 54.5975 102.036C54.5975 103.121 53.7079 104 52.6105 104C51.5131 104 50.6234 103.121 50.6234 102.036C50.6234 100.951 51.5131 100.072 52.6105 100.072ZM50.4518 6.2552C51.4228 6.3354 52.2072 7.0707 52.3385 8.024L54.7018 25.1845C55.4957 30.854 62.3381 33.3105 66.5619 29.4578L90.241 7.9197C90.813 7.4001 91.702 7.4362 92.228 8.0001C92.711 8.5175 92.726 9.3097 92.262 9.844L71.613 33.6468C67.8119 38.021 70.617 44.8514 76.412 45.3391L94.631 47.0942C95.538 47.1816 96.202 47.9787 96.113 48.8746C96.04 49.6135 95.471 50.2103 94.728 50.3262L75.584 53.3134C70.025 54.0706 67.5081 60.6484 71.124 64.9217L77.854 72.851C78.396 73.49 78.311 74.441 77.664 74.977C77.116 75.43 76.322 75.448 75.754 75.019L67.4573 68.7575C62.9801 65.3928 56.5265 68.2526 56.0533 73.821L54.225 95.539C54.1495 96.436 53.3517 97.103 52.4432 97.028C51.6721 96.965 51.0489 96.381 50.9443 95.624L48.0453 74.646C47.2682 68.9763 40.4258 66.5198 36.1851 70.373L10.9949 93.294C10.4734 93.769 9.6612 93.736 9.1806 93.221C8.7397 92.749 8.7263 92.026 9.1494 91.538L31.1338 66.1835C34.9351 61.8093 32.1475 54.9789 26.3524 54.4912L8.1291 52.7357C7.2217 52.6483 6.5579 51.8512 6.6465 50.9553C6.7195 50.2164 7.289 49.6197 8.0316 49.5037L27.1634 46.5169C32.7219 45.7597 35.2561 39.1819 31.6406 34.9086L27.0592 29.5112C26.3868 28.7191 26.4921 27.5388 27.2944 26.8749C27.9744 26.3123 28.9588 26.2906 29.6635 26.8229L35.2897 31.0728C39.767 34.4375 46.2206 31.5777 46.6938 26.0091L48.2072 8.1296C48.3028 7 49.3077 6.1608 50.4518 6.2552ZM1.987 48.9483C3.0844 48.9483 3.9741 49.8276 3.9741 50.9123C3.9741 51.9969 3.0844 52.8762 1.987 52.8762C0.8896 52.8762 0 51.9969 0 50.9123C0 49.8276 0.8896 48.9483 1.987 48.9483ZM101.644 46.9541C102.742 46.9541 103.631 47.8334 103.631 48.9181C103.631 50.0027 102.742 50.882 101.644 50.882C100.547 50.882 99.657 50.0027 99.657 48.9181C99.657 47.8334 100.547 46.9541 101.644 46.9541ZM50.1649 0C51.2623 0 52.1519 0.879301 52.1519 1.964C52.1519 3.0486 51.2623 3.9279 50.1649 3.9279C49.0675 3.9279 48.1779 3.0486 48.1779 1.964C48.1779 0.879301 49.0675 0 50.1649 0Z" fill="white"/>
</g>
<defs>
<clipPath id="clip0_219_25">
<rect width="309" height="104" fill="white"/>
</clipPath>
</defs>
</svg>
