<svg width="296" height="54" viewBox="0 0 296 54" fill="none" xmlns="http://www.w3.org/2000/svg">
<g clip-path="url(#clip0_187_141)">
<path d="M13.26 0C9.74846 0.00794475 6.38343 1.40848 3.90318 3.89435C1.42294 6.38022 0.0300203 9.74842 0.0300293 13.26H53.03V0H13.26Z" fill="white"/>
<path d="M39.77 19.88H0.0300293C0.0300293 21.6213 0.373006 23.3456 1.03938 24.9544C1.70576 26.5632 2.68248 28.0249 3.91379 29.2562C5.14509 30.4875 6.60688 31.4643 8.21565 32.1307C9.82443 32.797 11.5487 33.14 13.29 33.14H53.03C53.03 29.625 51.6344 26.2537 49.1498 23.7673C46.6652 21.2809 43.2951 19.8827 39.78 19.88" fill="white"/>
<path d="M13.26 53.02H26.51V39.76H0.0300293C0.0300293 43.2768 1.42706 46.6495 3.91379 49.1362C6.40052 51.623 9.77325 53.02 13.29 53.02" fill="white"/>
<path d="M79.36 28.71C78.0965 28.1593 77.0074 27.2742 76.21 26.15C75.4622 25.0592 75.0518 23.7724 75.03 22.45H77.86C77.997 23.7588 78.6089 24.9719 79.58 25.86C80.8148 26.9187 82.4177 27.447 84.04 27.33C85.5962 27.4163 87.1288 26.9209 88.34 25.94C88.8481 25.5052 89.2534 24.963 89.5266 24.3525C89.7999 23.7421 89.9342 23.0787 89.92 22.41C89.9702 21.4108 89.6577 20.4271 89.04 19.64C88.4615 18.9435 87.7145 18.4065 86.87 18.08C85.6958 17.6354 84.4972 17.2581 83.28 16.95C81.8361 16.5777 80.4194 16.1066 79.04 15.54C77.9815 15.0671 77.0621 14.3302 76.37 13.4C75.576 12.2486 75.1857 10.8667 75.26 9.47002C75.2423 8.16104 75.6148 6.87643 76.33 5.78001C77.0737 4.67266 78.113 3.79612 79.33 3.25001C80.7286 2.61182 82.2531 2.29734 83.79 2.33002C85.9391 2.22184 88.0593 2.86143 89.79 4.14001C90.5181 4.70385 91.1246 5.40911 91.5732 6.21336C92.0217 7.01762 92.3029 7.90426 92.4 8.82001H89.5C89.2836 7.65933 88.6462 6.61947 87.71 5.90001C86.5185 5.06619 85.0993 4.61896 83.645 4.61896C82.1907 4.61896 80.7716 5.06619 79.58 5.90001C79.0551 6.31327 78.6356 6.84498 78.3558 7.4516C78.0759 8.05821 77.9437 8.72248 77.97 9.39001C77.9273 10.3699 78.2398 11.3322 78.85 12.1C79.4456 12.7936 80.2005 13.3324 81.05 13.67C82.2184 14.1148 83.4101 14.4954 84.62 14.81C86.0474 15.1916 87.4472 15.6693 88.81 16.24C89.8859 16.7119 90.8201 17.4564 91.52 18.4C92.3103 19.5381 92.7007 20.9062 92.63 22.29C92.626 23.5423 92.2802 24.7697 91.63 25.84C90.9268 27.0039 89.9072 27.9437 88.69 28.55C87.2427 29.2617 85.642 29.6052 84.03 29.55C82.439 29.5852 80.8594 29.2747 79.4 28.64" fill="white"/>
<path d="M101.21 10.7701V23.71C101.107 24.6463 101.365 25.5866 101.93 26.34C102.659 26.9006 103.575 27.1617 104.49 27.07H106.93V29.36H104.03C102.512 29.4805 101.006 29.0073 99.83 28.04C98.92 27.16 98.46 25.72 98.46 23.71V10.7701H95.56V8.51004H98.46V3.29004H101.17V8.51004H106.89V10.7701H101.21Z" fill="white"/>
<path d="M116.69 9.20001C118.047 8.45017 119.581 8.08049 121.13 8.13001V10.92H120.41C118.716 10.836 117.052 11.393 115.75 12.48C114.583 13.5333 114 15.2767 114 17.71V29.36H111.32V8.51001H114.03V12.22C114.585 10.9596 115.527 9.90874 116.72 9.22002" fill="white"/>
<path d="M143.92 19.97H126.63C126.67 21.3789 127.066 22.7547 127.78 23.97C128.425 25.0558 129.365 25.9365 130.49 26.51C131.623 27.0859 132.879 27.3808 134.15 27.37C135.703 27.4225 137.233 26.9814 138.52 26.11C139.686 25.2958 140.521 24.0888 140.87 22.71H143.69C143.221 24.7062 142.067 26.4752 140.43 27.71C138.614 29.0422 136.401 29.7223 134.15 29.64C132.308 29.6704 130.49 29.2151 128.88 28.32C127.33 27.4522 126.065 26.1529 125.24 24.58C124.328 22.8354 123.874 20.888 123.92 18.92C123.874 16.9448 124.321 14.9892 125.22 13.23C126.032 11.654 127.291 10.3529 128.84 9.48997C130.467 8.60373 132.297 8.15576 134.15 8.18998C135.972 8.14676 137.772 8.59586 139.36 9.48997C140.807 10.3127 141.998 11.5209 142.8 12.98C143.607 14.475 144.02 16.1511 144 17.85C144 18.76 144 19.46 143.92 19.95M140.35 13.8C139.728 12.7324 138.806 11.8703 137.7 11.32C136.563 10.7561 135.309 10.4683 134.04 10.48C132.164 10.4391 130.344 11.1232 128.96 12.39C128.234 13.0874 127.655 13.9223 127.255 14.8459C126.855 15.7696 126.642 16.7635 126.63 17.77H141.29C141.358 16.3748 141.033 14.9886 140.35 13.77" fill="white"/>
<path d="M148.94 13.2701C149.737 11.7069 150.97 10.4079 152.49 9.53006C154.054 8.63795 155.829 8.18208 157.63 8.21006C159.436 8.16423 161.217 8.63989 162.76 9.58007C164.124 10.4131 165.207 11.6357 165.87 13.0901V8.51006H168.54V29.3601H165.87V24.7401C165.181 26.1949 164.087 27.4204 162.72 28.2701C161.183 29.2253 159.399 29.7086 157.59 29.6601C155.801 29.6867 154.038 29.227 152.49 28.3301C150.973 27.4313 149.742 26.1205 148.94 24.5501C148.061 22.7986 147.622 20.8594 147.66 18.9001C147.618 16.9468 148.058 15.0132 148.94 13.2701ZM164.84 14.5101C164.2 13.284 163.226 12.2645 162.03 11.5701C160.841 10.89 159.49 10.5444 158.12 10.5701C156.722 10.5482 155.343 10.893 154.12 11.5701C152.939 12.2433 151.977 13.2433 151.35 14.4501C150.652 15.8415 150.308 17.3839 150.35 18.9401C150.314 20.4925 150.657 22.0302 151.35 23.4201C151.969 24.6476 152.931 25.6689 154.12 26.3601C155.339 27.0475 156.721 27.393 158.12 27.3601C159.49 27.3857 160.841 27.0402 162.03 26.3601C163.226 25.6656 164.2 24.6461 164.84 23.4201C165.519 22.0438 165.872 20.5297 165.872 18.9951C165.872 17.4604 165.519 15.9463 164.84 14.5701" fill="white"/>
<path d="M205.43 10.45C206.97 11.99 207.74 14.23 207.74 17.15V29.37H205.11V17.45C205.239 15.5748 204.653 13.7203 203.47 12.26C202.904 11.6566 202.214 11.1825 201.448 10.8701C200.681 10.5578 199.857 10.4145 199.03 10.45C198.149 10.4185 197.272 10.5814 196.462 10.9271C195.651 11.2727 194.927 11.7927 194.34 12.45C193.068 14.0472 192.44 16.0629 192.58 18.1V29.4H189.95V17.45C190.079 15.5748 189.493 13.7203 188.31 12.26C187.733 11.6524 187.03 11.1769 186.252 10.8662C185.474 10.5555 184.637 10.4169 183.8 10.46C182.919 10.4285 182.043 10.5914 181.232 10.9371C180.421 11.2827 179.697 11.8027 179.11 12.46C177.838 14.0572 177.21 16.0729 177.35 18.11V29.41H174.68V8.51H177.35V12.1C177.956 10.8285 178.946 9.7792 180.18 9.1C181.431 8.41978 182.836 8.07525 184.26 8.1C185.947 8.07731 187.605 8.54641 189.03 9.45001C190.434 10.3466 191.492 11.6935 192.03 13.27C192.516 11.7053 193.535 10.3606 194.91 9.47001C196.293 8.58363 197.907 8.1245 199.55 8.15C200.655 8.10394 201.758 8.28519 202.79 8.68254C203.822 9.07988 204.761 9.68485 205.55 10.46" fill="white"/>
<path d="M236.38 1.10999H229.85V29.36H236.38V1.10999Z" fill="white"/>
<path d="M245.18 28.33C243.532 27.4582 242.168 26.1326 241.25 24.51C240.304 22.7248 239.81 20.7353 239.81 18.715C239.81 16.6948 240.304 14.7053 241.25 12.92C242.188 11.2861 243.577 9.95652 245.25 9.09004C247.003 8.20882 248.938 7.74988 250.9 7.74988C252.862 7.74988 254.797 8.20882 256.55 9.09004C258.224 9.95559 259.613 11.2854 260.55 12.92C261.543 14.6854 262.044 16.685 262 18.71C262.045 20.7333 261.541 22.731 260.54 24.49C259.598 26.1235 258.211 27.4554 256.54 28.33C254.788 29.2322 252.841 29.689 250.87 29.66C248.912 29.6924 246.977 29.2352 245.24 28.33M254.06 22.64C254.901 21.5024 255.355 20.1249 255.355 18.71C255.355 17.2952 254.901 15.9177 254.06 14.78C253.656 14.348 253.167 14.0035 252.625 13.768C252.082 13.5325 251.497 13.411 250.905 13.411C250.313 13.411 249.728 13.5325 249.185 13.768C248.643 14.0035 248.154 14.348 247.75 14.78C246.839 15.8865 246.388 17.3005 246.49 18.73C246.396 20.1492 246.838 21.5519 247.73 22.66C248.116 23.1027 248.595 23.455 249.132 23.6917C249.67 23.9285 250.253 24.044 250.84 24.03C251.438 24.0397 252.032 23.9226 252.582 23.6865C253.131 23.4504 253.625 23.1006 254.03 22.66" fill="white"/>
<path d="M296 8.05005L290.24 29.3601H283.02L279.66 15.54L276.19 29.3601H269.01L263.21 8.05005H269.74L272.75 23.29L276.34 8.05005H283.25L286.88 23.21L289.85 8.05005H296Z" fill="white"/>
<path d="M218.98 40.6899V41.6199H214.08V45.7699H218.22V46.6899H214.08V51.8099H212.97V40.6899H218.98Z" fill="white"/>
<path d="M225.1 40.6899H223.99V51.8099H225.1V40.6899Z" fill="white"/>
<path d="M239.19 51.81H238.08L231.93 42.4599V51.81H230.81V40.7H231.93L238.08 50.0299V40.7H239.19V51.81Z" fill="white"/>
<path d="M251.35 49.17H246.29L245.29 51.8199H244.12L248.17 40.8199H249.43L253.43 51.8199H252.25L251.35 49.17ZM251.02 48.25L248.82 42.25L246.63 48.25H251.02Z" fill="white"/>
<path d="M266.84 51.81H265.72L259.57 42.4599V51.81H258.46V40.7H259.57L265.72 50.0299V40.7H266.84V51.81Z" fill="white"/>
<path d="M272.76 43.31C273.232 42.4738 273.924 41.7823 274.76 41.31C275.598 40.8251 276.552 40.5763 277.52 40.59C278.648 40.5559 279.759 40.8626 280.71 41.47C281.605 42.0703 282.282 42.9437 282.64 43.96H281.34C281.047 43.2366 280.537 42.6218 279.88 42.2C279.174 41.7567 278.353 41.5339 277.52 41.56C276.749 41.5487 275.989 41.7456 275.32 42.13C274.659 42.5207 274.124 43.0935 273.78 43.78C273.413 44.5624 273.223 45.4159 273.223 46.28C273.223 47.1441 273.413 47.9976 273.78 48.78C274.129 49.4605 274.663 50.0288 275.32 50.42C276.021 50.8043 276.809 51.0008 277.608 50.9903C278.407 50.9798 279.19 50.7627 279.88 50.36C280.534 49.9434 281.043 49.3359 281.34 48.62H282.64C282.275 49.6303 281.595 50.4964 280.7 51.09C279.749 51.6874 278.643 51.9901 277.52 51.96C276.552 51.9737 275.598 51.7248 274.76 51.24C273.924 50.7676 273.232 50.0761 272.76 49.24C272.27 48.346 272.021 47.3394 272.04 46.32C272.025 45.2945 272.273 44.2823 272.76 43.38" fill="white"/>
<path d="M289.1 41.6001V45.7501H293.32V46.6701H289.1V50.8901H293.8V51.8101H287.99V40.6801H293.8V41.6001H289.1Z" fill="white"/>
<path d="M220.5 9.74998H224.8V15.75H220.5V29.35H213.5V15.75H211.56V9.74998H213.5V9.27998C213.375 7.03583 214.111 4.82857 215.56 3.10998C216.277 2.34888 217.151 1.75327 218.122 1.36468C219.092 0.976083 220.136 0.80385 221.18 0.859979C222.93 0.800179 224.661 1.2296 226.18 2.09997L224.41 7.28997C223.96 7.05491 223.458 6.93793 222.95 6.94998C221.3 6.94998 220.6 7.76998 220.5 9.74998Z" fill="white"/>
</g>
<defs>
<clipPath id="clip0_187_141">
<rect width="296" height="53.02" fill="white"/>
</clipPath>
</defs>
</svg>
